<ttFont>
    <TTGlyph name=".notdef" xMin="40" yMin="0" xMax="547" yMax="700">
      <contour>
        <pt x="40" y="0" on="1" overlap="1"/>
        <pt x="40" y="700" on="1"/>
        <pt x="547" y="700" on="1"/>
        <pt x="547" y="0" on="1"/>
      </contour>
      <contour>
        <pt x="120" y="70" on="1"/>
        <pt x="467" y="70" on="1"/>
        <pt x="467" y="630" on="1"/>
        <pt x="120" y="630" on="1"/>
      </contour>
    </TTGlyph>
    <TTGlyph name="A" xMin="-1" yMin="0" xMax="733" yMax="700">
      <contour>
        <pt x="-1" y="0" on="1" overlap="1"/>
        <pt x="316" y="700" on="1"/>
        <pt x="415" y="700" on="1"/>
        <pt x="733" y="0" on="1"/>
        <pt x="628" y="0" on="1"/>
        <pt x="345" y="644" on="1"/>
        <pt x="385" y="644" on="1"/>
        <pt x="102" y="0" on="1"/>
      </contour>
      <contour>
        <pt x="134" y="175" on="1"/>
        <pt x="161" y="255" on="1"/>
        <pt x="555" y="255" on="1"/>
        <pt x="584" y="175" on="1"/>
      </contour>
    </TTGlyph>
    <TTGlyph name="A.ss01" xMin="99" yMin="0" xMax="701" yMax="708">
      <contour>
        <pt x="99" y="0" on="1" overlap="1"/>
        <pt x="99" y="393" on="1"/>
        <pt x="99" y="497" on="0"/>
        <pt x="174" y="637" on="0"/>
        <pt x="310" y="708" on="0"/>
        <pt x="399" y="708" on="1"/>
        <pt x="490" y="708" on="0"/>
        <pt x="626" y="637" on="0"/>
        <pt x="701" y="497" on="0"/>
        <pt x="701" y="393" on="1"/>
        <pt x="701" y="0" on="1"/>
        <pt x="601" y="0" on="1"/>
        <pt x="601" y="402" on="1"/>
        <pt x="601" y="512" on="0"/>
        <pt x="492" y="619" on="0"/>
        <pt x="399" y="619" on="1"/>
        <pt x="307" y="619" on="0"/>
        <pt x="197" y="512" on="0"/>
        <pt x="197" y="402" on="1"/>
        <pt x="197" y="0" on="1"/>
      </contour>
      <contour>
        <pt x="162" y="193" on="1"/>
        <pt x="162" y="280" on="1"/>
        <pt x="637" y="280" on="1"/>
        <pt x="637" y="193" on="1"/>
      </contour>
    </TTGlyph>
    <TTGlyph name="AE" xMin="-1" yMin="0" xMax="991" yMax="700">
      <contour>
        <pt x="-1" y="0" on="1" overlap="1"/>
        <pt x="416" y="700" on="1"/>
        <pt x="516" y="700" on="1"/>
        <pt x="516" y="613" on="1"/>
        <pt x="428" y="613" on="1"/>
        <pt x="489" y="657" on="1"/>
        <pt x="102" y="0" on="1"/>
      </contour>
      <contour>
        <pt x="177" y="175" on="1"/>
        <pt x="183" y="255" on="1"/>
        <pt x="516" y="255" on="1"/>
        <pt x="516" y="175" on="1"/>
      </contour>
      <contour>
        <pt x="574" y="398" on="1"/>
        <pt x="933" y="398" on="1"/>
        <pt x="933" y="313" on="1"/>
        <pt x="573" y="313" on="1"/>
      </contour>
      <contour>
        <pt x="582" y="87" on="1"/>
        <pt x="991" y="87" on="1"/>
        <pt x="991" y="0" on="1"/>
        <pt x="483" y="0" on="1"/>
        <pt x="483" y="700" on="1"/>
        <pt x="977" y="700" on="1"/>
        <pt x="977" y="613" on="1"/>
        <pt x="582" y="613" on="1"/>
      </contour>
    </TTGlyph>
    <TTGlyph name="AE.ss01" xMin="90" yMin="0" xMax="1035" yMax="700">
      <contour>
        <pt x="526" y="0" on="1" overlap="1"/>
        <pt x="526" y="700" on="1"/>
        <pt x="1021" y="700" on="1"/>
        <pt x="1021" y="615" on="1"/>
        <pt x="624" y="615" on="1"/>
        <pt x="624" y="396" on="1"/>
        <pt x="977" y="396" on="1"/>
        <pt x="977" y="315" on="1"/>
        <pt x="624" y="315" on="1"/>
        <pt x="624" y="85" on="1"/>
        <pt x="1035" y="85" on="1"/>
        <pt x="1035" y="0" on="1"/>
      </contour>
      <contour>
        <pt x="153" y="203" on="1"/>
        <pt x="153" y="287" on="1"/>
        <pt x="575" y="287" on="1"/>
        <pt x="575" y="203" on="1"/>
      </contour>
      <contour>
        <pt x="90" y="0" on="1"/>
        <pt x="90" y="393" on="1"/>
        <pt x="90" y="541" on="0"/>
        <pt x="242" y="700" on="0"/>
        <pt x="383" y="700" on="1"/>
        <pt x="575" y="700" on="1"/>
        <pt x="575" y="610" on="1"/>
        <pt x="390" y="610" on="1"/>
        <pt x="292" y="610" on="0"/>
        <pt x="190" y="499" on="0"/>
        <pt x="190" y="391" on="1"/>
        <pt x="190" y="0" on="1"/>
      </contour>
    </TTGlyph>
    <TTGlyph name="AEacute" xMin="-1" yMin="0" xMax="991" yMax="887">
      <component glyphName="AE" x="0" y="0" flags="0x604"/>
      <component glyphName="acutecomb.case" x="232" y="0" flags="0x4"/>
    </TTGlyph>
    <TTGlyph name="AEacute.ss01" xMin="90" yMin="0" xMax="1035" yMax="887">
      <component glyphName="AE.ss01" x="0" y="0" flags="0x604"/>
      <component glyphName="acutecomb.case" x="232" y="0" flags="0x4"/>
    </TTGlyph>
    <TTGlyph name="Aacute" xMin="-1" yMin="0" xMax="733" yMax="887">
      <component glyphName="A" x="0" y="0" flags="0x604"/>
      <component glyphName="acutecomb.case" x="66" y="0" flags="0x4"/>
    </TTGlyph>
    <TTGlyph name="Aacute.ss01" xMin="99" yMin="0" xMax="701" yMax="887">
      <component glyphName="A.ss01" x="0" y="0" flags="0x604"/>
      <component glyphName="acutecomb.case" x="99" y="0" flags="0x4"/>
    </TTGlyph>
    <TTGlyph name="Abreve" xMin="-1" yMin="0" xMax="733" yMax="887">
      <component glyphName="A" x="0" y="0" flags="0x604"/>
      <component glyphName="uni0306.case" x="66" y="0" flags="0x4"/>
    </TTGlyph>
    <TTGlyph name="Abreve.ss01" xMin="99" yMin="0" xMax="701" yMax="887">
      <component glyphName="A.ss01" x="0" y="0" flags="0x604"/>
      <component glyphName="uni0306.case" x="99" y="0" flags="0x4"/>
    </TTGlyph>
    <TTGlyph name="Acircumflex" xMin="-1" yMin="0" xMax="733" yMax="887">
      <component glyphName="A" x="0" y="0" flags="0x604"/>
      <component glyphName="uni0302.case" x="66" y="0" flags="0x4"/>
    </TTGlyph>
    <TTGlyph name="Acircumflex.ss01" xMin="99" yMin="0" xMax="701" yMax="887">
      <component glyphName="A.ss01" x="0" y="0" flags="0x604"/>
      <component glyphName="uni0302.case" x="99" y="0" flags="0x4"/>
    </TTGlyph>
    <TTGlyph name="Adieresis" xMin="-1" yMin="0" xMax="733" yMax="877">
      <component glyphName="A" x="0" y="0" flags="0x604"/>
      <component glyphName="uni0308.case" x="66" y="0" flags="0x4"/>
    </TTGlyph>
    <TTGlyph name="Adieresis.ss01" xMin="99" yMin="0" xMax="701" yMax="877">
      <component glyphName="A.ss01" x="0" y="0" flags="0x604"/>
      <component glyphName="uni0308.case" x="99" y="0" flags="0x4"/>
    </TTGlyph>
    <TTGlyph name="Agrave" xMin="-1" yMin="0" xMax="733" yMax="887">
      <component glyphName="A" x="0" y="0" flags="0x604"/>
      <component glyphName="gravecomb.case" x="66" y="0" flags="0x4"/>
    </TTGlyph>
    <TTGlyph name="Agrave.ss01" xMin="99" yMin="0" xMax="701" yMax="887">
      <component glyphName="A.ss01" x="0" y="0" flags="0x604"/>
      <component glyphName="gravecomb.case" x="99" y="0" flags="0x4"/>
    </TTGlyph>
    <TTGlyph name="Amacron" xMin="-1" yMin="0" xMax="733" yMax="852">
      <component glyphName="A" x="0" y="0" flags="0x604"/>
      <component glyphName="uni0304.case" x="66" y="0" flags="0x4"/>
    </TTGlyph>
    <TTGlyph name="Amacron.ss01" xMin="99" yMin="0" xMax="701" yMax="852">
      <component glyphName="A.ss01" x="0" y="0" flags="0x604"/>
      <component glyphName="uni0304.case" x="99" y="0" flags="0x4"/>
    </TTGlyph>
    <TTGlyph name="Aogonek" xMin="-1" yMin="-224" xMax="755" yMax="700">
      <component glyphName="A" x="0" y="0" flags="0x604"/>
      <component glyphName="uni0328" x="432" y="0" flags="0x4"/>
    </TTGlyph>
    <TTGlyph name="Aogonek.ss01" xMin="99" yMin="-224" xMax="723" yMax="708">
      <component glyphName="A.ss01" x="0" y="0" flags="0x604"/>
      <component glyphName="uni0328" x="400" y="0" flags="0x4"/>
    </TTGlyph>
    <TTGlyph name="Aring" xMin="-1" yMin="0" xMax="733" yMax="982">
      <component glyphName="A" x="0" y="0" flags="0x604"/>
      <component glyphName="uni030A" x="66" y="170" flags="0x4"/>
    </TTGlyph>
    <TTGlyph name="Aring.ss01" xMin="99" yMin="0" xMax="701" yMax="982">
      <component glyphName="A.ss01" x="0" y="0" flags="0x604"/>
      <component glyphName="uni030A" x="99" y="170" flags="0x4"/>
    </TTGlyph>
    <TTGlyph name="Aringacute" xMin="-1" yMin="0" xMax="733" yMax="1053">
      <component glyphName="A" x="0" y="0" flags="0x604"/>
      <component glyphName="uni030A0301" x="66" y="170" flags="0x4"/>
    </TTGlyph>
    <TTGlyph name="Aringacute.ss01" xMin="99" yMin="0" xMax="701" yMax="1053">
      <component glyphName="A.ss01" x="0" y="0" flags="0x604"/>
      <component glyphName="uni030A0301" x="99" y="170" flags="0x4"/>
    </TTGlyph>
    <TTGlyph name="Atilde" xMin="-1" yMin="0" xMax="733" yMax="887">
      <component glyphName="A" x="0" y="0" flags="0x604"/>
      <component glyphName="tildecomb.case" x="66" y="0" flags="0x4"/>
    </TTGlyph>
    <TTGlyph name="Atilde.ss01" xMin="99" yMin="0" xMax="701" yMax="887">
      <component glyphName="A.ss01" x="0" y="0" flags="0x604"/>
      <component glyphName="tildecomb.case" x="99" y="0" flags="0x4"/>
    </TTGlyph>
    <TTGlyph name="B" xMin="105" yMin="0" xMax="707" yMax="700">
      <contour>
        <pt x="105" y="0" on="1" overlap="1"/>
        <pt x="105" y="700" on="1"/>
        <pt x="419" y="700" on="1"/>
        <pt x="540" y="700" on="0"/>
        <pt x="670" y="603" on="0"/>
        <pt x="670" y="519" on="1"/>
        <pt x="670" y="462" on="0"/>
        <pt x="619" y="384" on="0"/>
        <pt x="533" y="342" on="0"/>
        <pt x="483" y="342" on="1"/>
        <pt x="501" y="372" on="1"/>
        <pt x="561" y="372" on="0"/>
        <pt x="653" y="330" on="0"/>
        <pt x="707" y="249" on="0"/>
        <pt x="707" y="189" on="1"/>
        <pt x="707" y="99" on="0"/>
        <pt x="572" y="0" on="0"/>
        <pt x="439" y="0" on="1"/>
      </contour>
      <contour>
        <pt x="205" y="81" on="1"/>
        <pt x="435" y="81" on="1"/>
        <pt x="518" y="81" on="0"/>
        <pt x="606" y="137" on="0"/>
        <pt x="606" y="197" on="1"/>
        <pt x="606" y="258" on="0"/>
        <pt x="518" y="314" on="0"/>
        <pt x="435" y="314" on="1"/>
        <pt x="196" y="314" on="1"/>
        <pt x="196" y="395" on="1"/>
        <pt x="410" y="395" on="1"/>
        <pt x="486" y="395" on="0"/>
        <pt x="570" y="451" on="0"/>
        <pt x="570" y="507" on="1"/>
        <pt x="570" y="563" on="0"/>
        <pt x="486" y="619" on="0"/>
        <pt x="410" y="619" on="1"/>
        <pt x="205" y="619" on="1"/>
      </contour>
    </TTGlyph>
    <TTGlyph name="C" xMin="48" yMin="-8" xMax="685" yMax="708">
      <contour>
        <pt x="418" y="-8" on="1" overlap="1"/>
        <pt x="338" y="-8" on="0"/>
        <pt x="203" y="45" on="0"/>
        <pt x="104" y="142" on="0"/>
        <pt x="48" y="272" on="0"/>
        <pt x="48" y="350" on="1"/>
        <pt x="48" y="428" on="0"/>
        <pt x="104" y="558" on="0"/>
        <pt x="204" y="655" on="0"/>
        <pt x="339" y="708" on="0"/>
        <pt x="419" y="708" on="1"/>
        <pt x="500" y="708" on="0"/>
        <pt x="637" y="653" on="0"/>
        <pt x="685" y="599" on="1"/>
        <pt x="620" y="536" on="1"/>
        <pt x="580" y="578" on="0"/>
        <pt x="480" y="619" on="0"/>
        <pt x="423" y="619" on="1"/>
        <pt x="364" y="619" on="0"/>
        <pt x="263" y="579" on="0"/>
        <pt x="189" y="507" on="0"/>
        <pt x="148" y="408" on="0"/>
        <pt x="148" y="350" on="1"/>
        <pt x="148" y="292" on="0"/>
        <pt x="189" y="193" on="0"/>
        <pt x="263" y="121" on="0"/>
        <pt x="364" y="81" on="0"/>
        <pt x="423" y="81" on="1"/>
        <pt x="480" y="81" on="0"/>
        <pt x="580" y="122" on="0"/>
        <pt x="620" y="165" on="1"/>
        <pt x="685" y="102" on="1"/>
        <pt x="637" y="48" on="0"/>
        <pt x="500" y="-8" on="0"/>
      </contour>
    </TTGlyph>
    <TTGlyph name="Cacute" xMin="48" yMin="-8" xMax="685" yMax="887">
      <component glyphName="C" x="0" y="0" flags="0x604"/>
      <component glyphName="acutecomb.case" x="111" y="0" flags="0x4"/>
    </TTGlyph>
    <TTGlyph name="Ccaron" xMin="48" yMin="-8" xMax="685" yMax="887">
      <component glyphName="C" x="0" y="0" flags="0x604"/>
      <component glyphName="uni030C.case" x="111" y="0" flags="0x4"/>
    </TTGlyph>
    <TTGlyph name="Ccedilla" xMin="48" yMin="-224" xMax="685" yMax="708">
      <component glyphName="C" x="0" y="0" flags="0x604"/>
      <component glyphName="uni0327" x="102" y="0" flags="0x4"/>
    </TTGlyph>
    <TTGlyph name="Ccircumflex" xMin="48" yMin="-8" xMax="685" yMax="887">
      <component glyphName="C" x="0" y="0" flags="0x604"/>
      <component glyphName="uni0302.case" x="111" y="0" flags="0x4"/>
    </TTGlyph>
    <TTGlyph name="Cdotaccent" xMin="48" yMin="-8" xMax="685" yMax="893">
      <component glyphName="C" x="0" y="0" flags="0x604"/>
      <component glyphName="uni0307.case" x="111" y="0" flags="0x4"/>
    </TTGlyph>
    <TTGlyph name="D" xMin="105" yMin="0" xMax="778" yMax="700">
      <contour>
        <pt x="105" y="0" on="1" overlap="1"/>
        <pt x="105" y="700" on="1"/>
        <pt x="400" y="700" on="1"/>
        <pt x="512" y="700" on="0"/>
        <pt x="683" y="612" on="0"/>
        <pt x="778" y="454" on="0"/>
        <pt x="778" y="350" on="1"/>
        <pt x="778" y="246" on="0"/>
        <pt x="683" y="88" on="0"/>
        <pt x="512" y="0" on="0"/>
        <pt x="400" y="0" on="1"/>
      </contour>
      <contour>
        <pt x="205" y="87" on="1"/>
        <pt x="394" y="87" on="1"/>
        <pt x="481" y="87" on="0"/>
        <pt x="608" y="153" on="0"/>
        <pt x="678" y="272" on="0"/>
        <pt x="678" y="350" on="1"/>
        <pt x="678" y="429" on="0"/>
        <pt x="608" y="547" on="0"/>
        <pt x="481" y="613" on="0"/>
        <pt x="394" y="613" on="1"/>
        <pt x="205" y="613" on="1"/>
      </contour>
    </TTGlyph>
    <TTGlyph name="Dcaron" xMin="105" yMin="0" xMax="778" yMax="886">
      <component glyphName="D" x="0" y="0" flags="0x604"/>
      <component glyphName="uni030C.case" x="79" y="-1" flags="0x4"/>
    </TTGlyph>
    <TTGlyph name="Dcroat" xMin="10" yMin="0" xMax="786" yMax="700">
      <component glyphName="Eth" x="0" y="0" flags="0x604"/>
    </TTGlyph>
    <TTGlyph name="E" xMin="105" yMin="0" xMax="613" yMax="700">
      <contour>
        <pt x="196" y="398" on="1" overlap="1"/>
        <pt x="556" y="398" on="1"/>
        <pt x="556" y="313" on="1"/>
        <pt x="196" y="313" on="1"/>
      </contour>
      <contour>
        <pt x="205" y="87" on="1"/>
        <pt x="613" y="87" on="1"/>
        <pt x="613" y="0" on="1"/>
        <pt x="105" y="0" on="1"/>
        <pt x="105" y="700" on="1"/>
        <pt x="599" y="700" on="1"/>
        <pt x="599" y="613" on="1"/>
        <pt x="205" y="613" on="1"/>
      </contour>
    </TTGlyph>
    <TTGlyph name="E.ss01" xMin="51" yMin="-8" xMax="626" yMax="708">
      <contour>
        <pt x="349" y="-8" on="1" overlap="1"/>
        <pt x="251" y="-8" on="0"/>
        <pt x="118" y="43" on="0"/>
        <pt x="51" y="134" on="0"/>
        <pt x="51" y="192" on="1"/>
        <pt x="51" y="247" on="0"/>
        <pt x="107" y="327" on="0"/>
        <pt x="199" y="370" on="0"/>
        <pt x="252" y="370" on="1"/>
        <pt x="257" y="341" on="1"/>
        <pt x="205" y="341" on="0"/>
        <pt x="124" y="385" on="0"/>
        <pt x="81" y="463" on="0"/>
        <pt x="81" y="512" on="1"/>
        <pt x="81" y="565" on="0"/>
        <pt x="142" y="654" on="0"/>
        <pt x="269" y="708" on="0"/>
        <pt x="364" y="708" on="1"/>
        <pt x="430" y="708" on="0"/>
        <pt x="552" y="680" on="0"/>
        <pt x="597" y="654" on="1"/>
        <pt x="568" y="574" on="1"/>
        <pt x="521" y="599" on="0"/>
        <pt x="422" y="622" on="0"/>
        <pt x="368" y="622" on="1"/>
        <pt x="274" y="622" on="0"/>
        <pt x="181" y="555" on="0"/>
        <pt x="181" y="505" on="1"/>
        <pt x="181" y="453" on="0"/>
        <pt x="255" y="397" on="0"/>
        <pt x="324" y="397" on="1"/>
        <pt x="504" y="397" on="1"/>
        <pt x="504" y="311" on="1"/>
        <pt x="320" y="311" on="1"/>
        <pt x="269" y="311" on="0"/>
        <pt x="193" y="287" on="0"/>
        <pt x="151" y="237" on="0"/>
        <pt x="151" y="199" on="1"/>
        <pt x="151" y="145" on="0"/>
        <pt x="250" y="78" on="0"/>
        <pt x="354" y="78" on="1"/>
        <pt x="424" y="78" on="0"/>
        <pt x="551" y="116" on="0"/>
        <pt x="592" y="151" on="1"/>
        <pt x="626" y="73" on="1"/>
        <pt x="581" y="35" on="0"/>
        <pt x="435" y="-8" on="0"/>
      </contour>
    </TTGlyph>
    <TTGlyph name="Eacute" xMin="105" yMin="0" xMax="613" yMax="887">
      <component glyphName="E" x="0" y="0" flags="0x604"/>
      <component glyphName="acutecomb.case" x="53" y="0" flags="0x4"/>
    </TTGlyph>
    <TTGlyph name="Eacute.ss01" xMin="51" yMin="-8" xMax="626" yMax="887">
      <component glyphName="E.ss01" x="0" y="0" flags="0x604"/>
      <component glyphName="acutecomb.case" x="50" y="0" flags="0x4"/>
    </TTGlyph>
    <TTGlyph name="Ebreve" xMin="105" yMin="0" xMax="613" yMax="887">
      <component glyphName="E" x="0" y="0" flags="0x604"/>
      <component glyphName="uni0306.case" x="53" y="0" flags="0x4"/>
    </TTGlyph>
    <TTGlyph name="Ebreve.ss01" xMin="51" yMin="-8" xMax="626" yMax="887">
      <component glyphName="E.ss01" x="0" y="0" flags="0x604"/>
      <component glyphName="uni0306.case" x="50" y="0" flags="0x4"/>
    </TTGlyph>
    <TTGlyph name="Ecaron" xMin="105" yMin="0" xMax="613" yMax="887">
      <component glyphName="E" x="0" y="0" flags="0x604"/>
      <component glyphName="uni030C.case" x="53" y="0" flags="0x4"/>
    </TTGlyph>
    <TTGlyph name="Ecaron.ss01" xMin="51" yMin="-8" xMax="626" yMax="887">
      <component glyphName="E.ss01" x="0" y="0" flags="0x604"/>
      <component glyphName="uni030C.case" x="50" y="0" flags="0x4"/>
    </TTGlyph>
    <TTGlyph name="Ecircumflex" xMin="105" yMin="0" xMax="613" yMax="887">
      <component glyphName="E" x="0" y="0" flags="0x604"/>
      <component glyphName="uni0302.case" x="53" y="0" flags="0x4"/>
    </TTGlyph>
    <TTGlyph name="Ecircumflex.ss01" xMin="51" yMin="-8" xMax="626" yMax="887">
      <component glyphName="E.ss01" x="0" y="0" flags="0x604"/>
      <component glyphName="uni0302.case" x="50" y="0" flags="0x4"/>
    </TTGlyph>
    <TTGlyph name="Edieresis" xMin="105" yMin="0" xMax="613" yMax="877">
      <component glyphName="E" x="0" y="0" flags="0x604"/>
      <component glyphName="uni0308.case" x="53" y="0" flags="0x4"/>
    </TTGlyph>
    <TTGlyph name="Edieresis.ss01" xMin="51" yMin="-8" xMax="626" yMax="877">
      <component glyphName="E.ss01" x="0" y="0" flags="0x604"/>
      <component glyphName="uni0308.case" x="50" y="0" flags="0x4"/>
    </TTGlyph>
    <TTGlyph name="Edotaccent" xMin="105" yMin="0" xMax="613" yMax="893">
      <component glyphName="E" x="0" y="0" flags="0x604"/>
      <component glyphName="uni0307.case" x="53" y="0" flags="0x4"/>
    </TTGlyph>
    <TTGlyph name="Edotaccent.ss01" xMin="51" yMin="-8" xMax="626" yMax="893">
      <component glyphName="E.ss01" x="0" y="0" flags="0x604"/>
      <component glyphName="uni0307.case" x="50" y="0" flags="0x4"/>
    </TTGlyph>
    <TTGlyph name="Egrave" xMin="105" yMin="0" xMax="613" yMax="887">
      <component glyphName="E" x="0" y="0" flags="0x604"/>
      <component glyphName="gravecomb.case" x="53" y="0" flags="0x4"/>
    </TTGlyph>
    <TTGlyph name="Egrave.ss01" xMin="51" yMin="-8" xMax="626" yMax="887">
      <component glyphName="E.ss01" x="0" y="0" flags="0x604"/>
      <component glyphName="gravecomb.case" x="50" y="0" flags="0x4"/>
    </TTGlyph>
    <TTGlyph name="Emacron" xMin="105" yMin="0" xMax="613" yMax="852">
      <component glyphName="E" x="0" y="0" flags="0x604"/>
      <component glyphName="uni0304.case" x="53" y="0" flags="0x4"/>
    </TTGlyph>
    <TTGlyph name="Emacron.ss01" xMin="51" yMin="-8" xMax="626" yMax="852">
      <component glyphName="E.ss01" x="0" y="0" flags="0x604"/>
      <component glyphName="uni0304.case" x="50" y="0" flags="0x4"/>
    </TTGlyph>
    <TTGlyph name="Eng" xMin="105" yMin="-200" xMax="707" yMax="700">
      <contour>
        <pt x="105" y="0" on="1" overlap="1"/>
        <pt x="105" y="700" on="1"/>
        <pt x="187" y="700" on="1"/>
        <pt x="650" y="125" on="1"/>
        <pt x="625" y="0" on="1"/>
        <pt x="162" y="575" on="1"/>
        <pt x="205" y="575" on="1"/>
        <pt x="205" y="0" on="1"/>
      </contour>
      <contour>
        <pt x="490" y="-200" on="1"/>
        <pt x="437" y="-200" on="0"/>
        <pt x="343" y="-159" on="0"/>
        <pt x="310" y="-121" on="1"/>
        <pt x="359" y="-49" on="1"/>
        <pt x="383" y="-79" on="0"/>
        <pt x="449" y="-114" on="0"/>
        <pt x="490" y="-114" on="1"/>
        <pt x="607" y="-114" on="0"/>
        <pt x="607" y="29" on="1"/>
        <pt x="607" y="700" on="1"/>
        <pt x="707" y="700" on="1"/>
        <pt x="707" y="42" on="1"/>
        <pt x="707" y="-81" on="0"/>
        <pt x="597" y="-200" on="0"/>
      </contour>
    </TTGlyph>
    <TTGlyph name="Eng.ss01" xMin="105" yMin="-200" xMax="699" yMax="708">
      <contour>
        <pt x="431" y="708" on="1" overlap="1"/>
        <pt x="556" y="708" on="0"/>
        <pt x="699" y="557" on="0"/>
        <pt x="699" y="415" on="1"/>
        <pt x="699" y="34" on="1"/>
        <pt x="699" y="-84" on="0"/>
        <pt x="589" y="-200" on="0"/>
        <pt x="482" y="-200" on="1"/>
        <pt x="428" y="-200" on="0"/>
        <pt x="333" y="-159" on="0"/>
        <pt x="300" y="-121" on="1"/>
        <pt x="349" y="-46" on="1"/>
        <pt x="373" y="-78" on="0"/>
        <pt x="440" y="-113" on="0"/>
        <pt x="481" y="-113" on="1"/>
        <pt x="600" y="-113" on="0"/>
        <pt x="600" y="31" on="1"/>
        <pt x="600" y="412" on="1"/>
        <pt x="600" y="516" on="0"/>
        <pt x="498" y="619" on="0"/>
        <pt x="411" y="619" on="1"/>
        <pt x="318" y="619" on="0"/>
        <pt x="205" y="510" on="0"/>
        <pt x="205" y="397" on="1"/>
        <pt x="205" y="0" on="1"/>
        <pt x="105" y="0" on="1"/>
        <pt x="105" y="700" on="1"/>
        <pt x="201" y="700" on="1"/>
        <pt x="201" y="529" on="1"/>
        <pt x="173" y="545" on="1"/>
        <pt x="206" y="630" on="0"/>
        <pt x="339" y="708" on="0"/>
      </contour>
    </TTGlyph>
    <TTGlyph name="Eogonek" xMin="105" yMin="-224" xMax="636" yMax="700">
      <component glyphName="E" x="0" y="0" flags="0x604"/>
      <component glyphName="uni0328" x="312" y="0" flags="0x4"/>
    </TTGlyph>
    <TTGlyph name="Eogonek.ss01" xMin="51" yMin="-224" xMax="626" yMax="708">
      <contour>
        <pt x="525" y="-224" on="1" overlap="1"/>
        <pt x="469" y="-224" on="0"/>
        <pt x="405" y="-168" on="0"/>
        <pt x="405" y="-123" on="1"/>
        <pt x="405" y="-83" on="0"/>
        <pt x="445" y="-3" on="0"/>
        <pt x="495" y="35" on="1"/>
        <pt x="511" y="17" on="1"/>
        <pt x="474" y="5" on="0"/>
        <pt x="394" y="-8" on="0"/>
        <pt x="349" y="-8" on="1"/>
        <pt x="251" y="-8" on="0"/>
        <pt x="118" y="43" on="0"/>
        <pt x="51" y="134" on="0"/>
        <pt x="51" y="192" on="1"/>
        <pt x="51" y="247" on="0"/>
        <pt x="107" y="327" on="0"/>
        <pt x="199" y="370" on="0"/>
        <pt x="252" y="370" on="1"/>
        <pt x="257" y="341" on="1"/>
        <pt x="205" y="341" on="0"/>
        <pt x="124" y="385" on="0"/>
        <pt x="81" y="463" on="0"/>
        <pt x="81" y="512" on="1"/>
        <pt x="81" y="565" on="0"/>
        <pt x="142" y="654" on="0"/>
        <pt x="269" y="708" on="0"/>
        <pt x="364" y="708" on="1"/>
        <pt x="430" y="708" on="0"/>
        <pt x="552" y="680" on="0"/>
        <pt x="597" y="654" on="1"/>
        <pt x="568" y="574" on="1"/>
        <pt x="521" y="599" on="0"/>
        <pt x="422" y="622" on="0"/>
        <pt x="368" y="622" on="1"/>
        <pt x="274" y="622" on="0"/>
        <pt x="181" y="555" on="0"/>
        <pt x="181" y="505" on="1"/>
        <pt x="181" y="453" on="0"/>
        <pt x="255" y="397" on="0"/>
        <pt x="324" y="397" on="1"/>
        <pt x="504" y="397" on="1"/>
        <pt x="504" y="311" on="1"/>
        <pt x="320" y="311" on="1"/>
        <pt x="269" y="311" on="0"/>
        <pt x="193" y="287" on="0"/>
        <pt x="151" y="237" on="0"/>
        <pt x="151" y="199" on="1"/>
        <pt x="151" y="145" on="0"/>
        <pt x="250" y="78" on="0"/>
        <pt x="354" y="78" on="1"/>
        <pt x="424" y="78" on="0"/>
        <pt x="551" y="119" on="0"/>
        <pt x="592" y="151" on="1"/>
        <pt x="626" y="72" on="1"/>
        <pt x="564" y="30" on="0"/>
        <pt x="498" y="-37" on="0"/>
        <pt x="473" y="-91" on="0"/>
        <pt x="473" y="-114" on="1"/>
        <pt x="473" y="-140" on="0"/>
        <pt x="508" y="-168" on="0"/>
        <pt x="535" y="-168" on="1"/>
        <pt x="551" y="-168" on="0"/>
        <pt x="584" y="-158" on="0"/>
        <pt x="596" y="-151" on="1"/>
        <pt x="615" y="-200" on="1"/>
        <pt x="596" y="-211" on="0"/>
        <pt x="550" y="-224" on="0"/>
      </contour>
    </TTGlyph>
    <TTGlyph name="Eth" xMin="10" yMin="0" xMax="786" yMax="700">
      <component glyphName="D" x="8" y="0" flags="0x604"/>
      <component glyphName="uni0335.case" x="-90" y="0" flags="0x4"/>
    </TTGlyph>
    <TTGlyph name="Euro" xMin="30" yMin="-8" xMax="769" yMax="708">
      <contour>
        <pt x="30" y="253" on="1" overlap="1"/>
        <pt x="30" y="309" on="1"/>
        <pt x="567" y="309" on="1"/>
        <pt x="567" y="253" on="1"/>
      </contour>
      <contour>
        <pt x="30" y="391" on="1"/>
        <pt x="30" y="447" on="1"/>
        <pt x="567" y="447" on="1"/>
        <pt x="567" y="391" on="1"/>
      </contour>
      <contour>
        <pt x="502" y="-8" on="1"/>
        <pt x="423" y="-8" on="0"/>
        <pt x="288" y="45" on="0"/>
        <pt x="188" y="142" on="0"/>
        <pt x="132" y="272" on="0"/>
        <pt x="132" y="350" on="1"/>
        <pt x="132" y="428" on="0"/>
        <pt x="188" y="558" on="0"/>
        <pt x="288" y="655" on="0"/>
        <pt x="423" y="708" on="0"/>
        <pt x="502" y="708" on="1"/>
        <pt x="584" y="708" on="0"/>
        <pt x="722" y="653" on="0"/>
        <pt x="769" y="599" on="1"/>
        <pt x="705" y="536" on="1"/>
        <pt x="664" y="578" on="0"/>
        <pt x="565" y="619" on="0"/>
        <pt x="507" y="619" on="1"/>
        <pt x="448" y="619" on="0"/>
        <pt x="348" y="579" on="0"/>
        <pt x="273" y="507" on="0"/>
        <pt x="233" y="408" on="0"/>
        <pt x="233" y="350" on="1"/>
        <pt x="233" y="292" on="0"/>
        <pt x="273" y="193" on="0"/>
        <pt x="348" y="121" on="0"/>
        <pt x="448" y="81" on="0"/>
        <pt x="507" y="81" on="1"/>
        <pt x="565" y="81" on="0"/>
        <pt x="664" y="122" on="0"/>
        <pt x="705" y="165" on="1"/>
        <pt x="769" y="102" on="1"/>
        <pt x="722" y="48" on="0"/>
        <pt x="584" y="-8" on="0"/>
      </contour>
    </TTGlyph>
    <TTGlyph name="F" xMin="105" yMin="0" xMax="599" yMax="700">
      <contour>
        <pt x="195" y="369" on="1" overlap="1"/>
        <pt x="556" y="369" on="1"/>
        <pt x="556" y="283" on="1"/>
        <pt x="195" y="283" on="1"/>
      </contour>
      <contour>
        <pt x="205" y="0" on="1"/>
        <pt x="105" y="0" on="1"/>
        <pt x="105" y="700" on="1"/>
        <pt x="599" y="700" on="1"/>
        <pt x="599" y="613" on="1"/>
        <pt x="205" y="613" on="1"/>
      </contour>
    </TTGlyph>
    <TTGlyph name="F.ss01" xMin="99" yMin="0" xMax="591" yMax="708">
      <contour>
        <pt x="99" y="0" on="1" overlap="1"/>
        <pt x="99" y="450" on="1"/>
        <pt x="99" y="570" on="0"/>
        <pt x="252" y="708" on="0"/>
        <pt x="389" y="708" on="1"/>
        <pt x="448" y="708" on="0"/>
        <pt x="552" y="682" on="0"/>
        <pt x="591" y="655" on="1"/>
        <pt x="558" y="572" on="1"/>
        <pt x="523" y="597" on="0"/>
        <pt x="438" y="619" on="0"/>
        <pt x="392" y="619" on="1"/>
        <pt x="295" y="619" on="0"/>
        <pt x="199" y="531" on="0"/>
        <pt x="199" y="449" on="1"/>
        <pt x="199" y="0" on="1"/>
      </contour>
      <contour>
        <pt x="162" y="283" on="1"/>
        <pt x="162" y="369" on="1"/>
        <pt x="519" y="369" on="1"/>
        <pt x="519" y="283" on="1"/>
      </contour>
    </TTGlyph>
    <TTGlyph name="G" xMin="48" yMin="-8" xMax="692" yMax="708">
      <contour>
        <pt x="421" y="-8" on="1" overlap="1"/>
        <pt x="340" y="-8" on="0"/>
        <pt x="204" y="45" on="0"/>
        <pt x="104" y="142" on="0"/>
        <pt x="48" y="272" on="0"/>
        <pt x="48" y="350" on="1"/>
        <pt x="48" y="428" on="0"/>
        <pt x="104" y="558" on="0"/>
        <pt x="205" y="655" on="0"/>
        <pt x="341" y="708" on="0"/>
        <pt x="423" y="708" on="1"/>
        <pt x="506" y="708" on="0"/>
        <pt x="644" y="654" on="0"/>
        <pt x="692" y="600" on="1"/>
        <pt x="630" y="538" on="1"/>
        <pt x="587" y="580" on="0"/>
        <pt x="486" y="619" on="0"/>
        <pt x="427" y="619" on="1"/>
        <pt x="367" y="619" on="0"/>
        <pt x="264" y="579" on="0"/>
        <pt x="189" y="507" on="0"/>
        <pt x="148" y="408" on="0"/>
        <pt x="148" y="350" on="1"/>
        <pt x="148" y="293" on="0"/>
        <pt x="189" y="194" on="0"/>
        <pt x="264" y="121" on="0"/>
        <pt x="366" y="81" on="0"/>
        <pt x="426" y="81" on="1"/>
        <pt x="482" y="81" on="0"/>
        <pt x="585" y="116" on="0"/>
        <pt x="629" y="157" on="1"/>
        <pt x="686" y="81" on="1"/>
        <pt x="634" y="37" on="0"/>
        <pt x="495" y="-8" on="0"/>
      </contour>
      <contour>
        <pt x="590" y="94" on="1"/>
        <pt x="590" y="354" on="1"/>
        <pt x="686" y="354" on="1"/>
        <pt x="686" y="81" on="1"/>
      </contour>
    </TTGlyph>
    <TTGlyph name="G.ss01" xMin="48" yMin="-8" xMax="692" yMax="708">
      <contour>
        <pt x="403" y="-8" on="1" overlap="1"/>
        <pt x="333" y="-8" on="0"/>
        <pt x="205" y="38" on="0"/>
        <pt x="105" y="129" on="0"/>
        <pt x="48" y="261" on="0"/>
        <pt x="48" y="347" on="1"/>
        <pt x="48" y="426" on="0"/>
        <pt x="104" y="557" on="0"/>
        <pt x="205" y="655" on="0"/>
        <pt x="341" y="708" on="0"/>
        <pt x="423" y="708" on="1"/>
        <pt x="506" y="708" on="0"/>
        <pt x="644" y="654" on="0"/>
        <pt x="692" y="600" on="1"/>
        <pt x="630" y="538" on="1"/>
        <pt x="587" y="580" on="0"/>
        <pt x="486" y="619" on="0"/>
        <pt x="427" y="619" on="1"/>
        <pt x="367" y="619" on="0"/>
        <pt x="264" y="579" on="0"/>
        <pt x="189" y="507" on="0"/>
        <pt x="148" y="407" on="0"/>
        <pt x="148" y="347" on="1"/>
        <pt x="148" y="282" on="0"/>
        <pt x="191" y="182" on="0"/>
        <pt x="266" y="114" on="0"/>
        <pt x="359" y="79" on="0"/>
        <pt x="411" y="79" on="1"/>
        <pt x="469" y="79" on="0"/>
        <pt x="579" y="125" on="0"/>
        <pt x="618" y="174" on="1"/>
        <pt x="660" y="112" on="1"/>
        <pt x="623" y="52" on="0"/>
        <pt x="487" y="-8" on="0"/>
      </contour>
      <contour>
        <pt x="598" y="0" on="1"/>
        <pt x="598" y="93" on="1"/>
        <pt x="590" y="106" on="1"/>
        <pt x="590" y="354" on="1"/>
        <pt x="686" y="354" on="1"/>
        <pt x="686" y="0" on="1"/>
      </contour>
    </TTGlyph>
    <TTGlyph name="Gbreve" xMin="48" yMin="-8" xMax="692" yMax="887">
      <component glyphName="G" x="0" y="0" flags="0x604"/>
      <component glyphName="uni0306.case" x="110" y="0" flags="0x4"/>
    </TTGlyph>
    <TTGlyph name="Gbreve.ss01" xMin="48" yMin="-8" xMax="692" yMax="887">
      <component glyphName="G.ss01" x="0" y="0" flags="0x604"/>
      <component glyphName="uni0306.case" x="110" y="0" flags="0x4"/>
    </TTGlyph>
    <TTGlyph name="Gcaron" xMin="48" yMin="-8" xMax="692" yMax="887">
      <component glyphName="G" x="0" y="0" flags="0x604"/>
      <component glyphName="uni030C.case" x="110" y="0" flags="0x4"/>
    </TTGlyph>
    <TTGlyph name="Gcaron.ss01" xMin="48" yMin="-8" xMax="692" yMax="887">
      <component glyphName="G.ss01" x="0" y="0" flags="0x604"/>
      <component glyphName="uni030C.case" x="110" y="0" flags="0x4"/>
    </TTGlyph>
    <TTGlyph name="Gcircumflex" xMin="48" yMin="-8" xMax="692" yMax="887">
      <component glyphName="G" x="0" y="0" flags="0x604"/>
      <component glyphName="uni0302.case" x="110" y="0" flags="0x4"/>
    </TTGlyph>
    <TTGlyph name="Gcircumflex.ss01" xMin="48" yMin="-8" xMax="692" yMax="887">
      <component glyphName="G.ss01" x="0" y="0" flags="0x604"/>
      <component glyphName="uni0302.case" x="110" y="0" flags="0x4"/>
    </TTGlyph>
    <TTGlyph name="Gdotaccent" xMin="48" yMin="-8" xMax="692" yMax="893">
      <component glyphName="G" x="0" y="0" flags="0x604"/>
      <component glyphName="uni0307.case" x="110" y="0" flags="0x4"/>
    </TTGlyph>
    <TTGlyph name="Gdotaccent.ss01" xMin="48" yMin="-8" xMax="692" yMax="893">
      <component glyphName="G.ss01" x="0" y="0" flags="0x604"/>
      <component glyphName="uni0307.case" x="110" y="0" flags="0x4"/>
    </TTGlyph>
    <TTGlyph name="H" xMin="105" yMin="0" xMax="707" yMax="700">
      <contour>
        <pt x="607" y="700" on="1" overlap="1"/>
        <pt x="707" y="700" on="1"/>
        <pt x="707" y="0" on="1"/>
        <pt x="607" y="0" on="1"/>
      </contour>
      <contour>
        <pt x="205" y="0" on="1"/>
        <pt x="105" y="0" on="1"/>
        <pt x="105" y="700" on="1"/>
        <pt x="205" y="700" on="1"/>
      </contour>
      <contour>
        <pt x="616" y="312" on="1"/>
        <pt x="195" y="312" on="1"/>
        <pt x="195" y="399" on="1"/>
        <pt x="616" y="399" on="1"/>
      </contour>
    </TTGlyph>
    <TTGlyph name="Hbar" xMin="9" yMin="0" xMax="816" yMax="700">
      <component glyphName="H" x="8" y="0" flags="0x604"/>
      <component glyphName="uni0336" x="-24" y="116" flags="0x4"/>
    </TTGlyph>
    <TTGlyph name="Hcircumflex" xMin="105" yMin="0" xMax="707" yMax="887">
      <component glyphName="H" x="0" y="0" flags="0x604"/>
      <component glyphName="uni0302.case" x="105" y="0" flags="0x4"/>
    </TTGlyph>
    <TTGlyph name="I" xMin="105" yMin="0" xMax="205" yMax="700">
      <contour>
        <pt x="105" y="0" on="1" overlap="1"/>
        <pt x="105" y="700" on="1"/>
        <pt x="205" y="700" on="1"/>
        <pt x="205" y="0" on="1"/>
      </contour>
    </TTGlyph>
    <TTGlyph name="I.ss01" xMin="43" yMin="0" xMax="413" yMax="700">
      <contour>
        <pt x="178" y="14" on="1" overlap="1"/>
        <pt x="178" y="687" on="1"/>
        <pt x="278" y="687" on="1"/>
        <pt x="278" y="14" on="1"/>
      </contour>
      <contour>
        <pt x="43" y="0" on="1"/>
        <pt x="43" y="87" on="1"/>
        <pt x="413" y="87" on="1"/>
        <pt x="413" y="0" on="1"/>
      </contour>
      <contour>
        <pt x="43" y="613" on="1"/>
        <pt x="43" y="700" on="1"/>
        <pt x="413" y="700" on="1"/>
        <pt x="413" y="613" on="1"/>
      </contour>
    </TTGlyph>
    <TTGlyph name="IJ" xMin="87" yMin="-8" xMax="621" yMax="700">
      <contour>
        <pt x="327" y="-8" on="1" overlap="1"/>
        <pt x="256" y="-8" on="0"/>
        <pt x="133" y="31" on="0"/>
        <pt x="87" y="63" on="1"/>
        <pt x="126" y="143" on="1"/>
        <pt x="169" y="113" on="0"/>
        <pt x="274" y="81" on="0"/>
        <pt x="329" y="81" on="1"/>
        <pt x="421" y="81" on="0"/>
        <pt x="521" y="189" on="0"/>
        <pt x="521" y="302" on="1"/>
        <pt x="521" y="700" on="1"/>
        <pt x="621" y="700" on="1"/>
        <pt x="621" y="307" on="1"/>
        <pt x="621" y="203" on="0"/>
        <pt x="547" y="63" on="0"/>
        <pt x="416" y="-8" on="0"/>
      </contour>
      <contour>
        <pt x="99" y="309" on="1"/>
        <pt x="99" y="700" on="1"/>
        <pt x="199" y="700" on="1"/>
        <pt x="199" y="309" on="1"/>
      </contour>
    </TTGlyph>
    <TTGlyph name="IJ.ss01" xMin="87" yMin="-108" xMax="621" yMax="700">
      <contour>
        <pt x="327" y="-108" on="1" overlap="1"/>
        <pt x="256" y="-108" on="0"/>
        <pt x="133" y="-69" on="0"/>
        <pt x="87" y="-37" on="1"/>
        <pt x="126" y="43" on="1"/>
        <pt x="169" y="13" on="0"/>
        <pt x="274" y="-19" on="0"/>
        <pt x="329" y="-19" on="1"/>
        <pt x="421" y="-19" on="0"/>
        <pt x="521" y="89" on="0"/>
        <pt x="521" y="202" on="1"/>
        <pt x="521" y="700" on="1"/>
        <pt x="621" y="700" on="1"/>
        <pt x="621" y="207" on="1"/>
        <pt x="621" y="103" on="0"/>
        <pt x="547" y="-37" on="0"/>
        <pt x="416" y="-108" on="0"/>
      </contour>
      <contour>
        <pt x="99" y="209" on="1"/>
        <pt x="99" y="700" on="1"/>
        <pt x="199" y="700" on="1"/>
        <pt x="199" y="209" on="1"/>
      </contour>
    </TTGlyph>
    <TTGlyph name="Iacute" xMin="79" yMin="0" xMax="338" yMax="887">
      <component glyphName="I" x="0" y="0" flags="0x604"/>
      <component glyphName="acutecomb.case" x="-145" y="0" flags="0x4"/>
    </TTGlyph>
    <TTGlyph name="Iacute.ss01" xMin="43" yMin="0" xMax="413" yMax="887">
      <component glyphName="I.ss01" x="0" y="0" flags="0x604"/>
      <component glyphName="acutecomb.case" x="-71" y="0" flags="0x4"/>
    </TTGlyph>
    <TTGlyph name="Iacute_J.loclNLD" xMin="87" yMin="-6" xMax="765" yMax="887">
      <contour>
        <pt x="327" y="-6" on="1" overlap="1"/>
        <pt x="256" y="-6" on="0"/>
        <pt x="133" y="35" on="0"/>
        <pt x="87" y="67" on="1"/>
        <pt x="126" y="146" on="1"/>
        <pt x="169" y="115" on="0"/>
        <pt x="272" y="83" on="0"/>
        <pt x="324" y="83" on="1"/>
        <pt x="419" y="83" on="0"/>
        <pt x="521" y="191" on="0"/>
        <pt x="521" y="304" on="1"/>
        <pt x="521" y="700" on="1"/>
        <pt x="621" y="700" on="1"/>
        <pt x="621" y="308" on="1"/>
        <pt x="621" y="205" on="0"/>
        <pt x="547" y="66" on="0"/>
        <pt x="416" y="-6" on="0"/>
      </contour>
      <contour>
        <pt x="99" y="309" on="1"/>
        <pt x="99" y="700" on="1"/>
        <pt x="199" y="700" on="1"/>
        <pt x="199" y="309" on="1"/>
      </contour>
      <contour>
        <pt x="101" y="757" on="1"/>
        <pt x="238" y="887" on="1"/>
        <pt x="343" y="887" on="1"/>
        <pt x="175" y="757" on="1"/>
      </contour>
      <contour>
        <pt x="523" y="757" on="1"/>
        <pt x="660" y="887" on="1"/>
        <pt x="765" y="887" on="1"/>
        <pt x="597" y="757" on="1"/>
      </contour>
    </TTGlyph>
    <TTGlyph name="Iacute_J.loclNLD.ss01" xMin="87" yMin="-106" xMax="765" yMax="887">
      <contour>
        <pt x="327" y="-106" on="1" overlap="1"/>
        <pt x="256" y="-106" on="0"/>
        <pt x="133" y="-65" on="0"/>
        <pt x="87" y="-33" on="1"/>
        <pt x="126" y="46" on="1"/>
        <pt x="169" y="15" on="0"/>
        <pt x="272" y="-17" on="0"/>
        <pt x="324" y="-17" on="1"/>
        <pt x="419" y="-17" on="0"/>
        <pt x="521" y="91" on="0"/>
        <pt x="521" y="204" on="1"/>
        <pt x="521" y="700" on="1"/>
        <pt x="621" y="700" on="1"/>
        <pt x="621" y="208" on="1"/>
        <pt x="621" y="105" on="0"/>
        <pt x="547" y="-34" on="0"/>
        <pt x="416" y="-106" on="0"/>
      </contour>
      <contour>
        <pt x="99" y="209" on="1"/>
        <pt x="99" y="700" on="1"/>
        <pt x="199" y="700" on="1"/>
        <pt x="199" y="209" on="1"/>
      </contour>
      <contour>
        <pt x="101" y="757" on="1"/>
        <pt x="238" y="887" on="1"/>
        <pt x="343" y="887" on="1"/>
        <pt x="175" y="757" on="1"/>
      </contour>
      <contour>
        <pt x="523" y="757" on="1"/>
        <pt x="660" y="887" on="1"/>
        <pt x="765" y="887" on="1"/>
        <pt x="597" y="757" on="1"/>
      </contour>
    </TTGlyph>
    <TTGlyph name="Ibreve" xMin="-8" yMin="0" xMax="317" yMax="887">
      <component glyphName="I" x="0" y="0" flags="0x604"/>
      <component glyphName="uni0306.case" x="-145" y="0" flags="0x4"/>
    </TTGlyph>
    <TTGlyph name="Ibreve.ss01" xMin="43" yMin="0" xMax="413" yMax="887">
      <component glyphName="I.ss01" x="0" y="0" flags="0x604"/>
      <component glyphName="uni0306.case" x="-71" y="0" flags="0x4"/>
    </TTGlyph>
    <TTGlyph name="Icircumflex" xMin="-24" yMin="0" xMax="333" yMax="887">
      <component glyphName="I" x="0" y="0" flags="0x604"/>
      <component glyphName="uni0302.case" x="-145" y="0" flags="0x4"/>
    </TTGlyph>
    <TTGlyph name="Icircumflex.ss01" xMin="43" yMin="0" xMax="413" yMax="887">
      <component glyphName="I.ss01" x="0" y="0" flags="0x604"/>
      <component glyphName="uni0302.case" x="-71" y="0" flags="0x4"/>
    </TTGlyph>
    <TTGlyph name="Idieresis" xMin="11" yMin="0" xMax="299" yMax="877">
      <component glyphName="I" x="0" y="0" flags="0x604"/>
      <component glyphName="uni0308.case" x="-145" y="0" flags="0x4"/>
    </TTGlyph>
    <TTGlyph name="Idieresis.ss01" xMin="43" yMin="0" xMax="413" yMax="877">
      <component glyphName="I.ss01" x="0" y="0" flags="0x604"/>
      <component glyphName="uni0308.case" x="-71" y="0" flags="0x4"/>
    </TTGlyph>
    <TTGlyph name="Idotaccent" xMin="96" yMin="0" xMax="214" yMax="893">
      <component glyphName="I" x="0" y="0" flags="0x604"/>
      <component glyphName="uni0307.case" x="-145" y="0" flags="0x4"/>
    </TTGlyph>
    <TTGlyph name="Idotaccent.ss01" xMin="43" yMin="0" xMax="413" yMax="893">
      <component glyphName="I.ss01" x="0" y="0" flags="0x604"/>
      <component glyphName="uni0307.case" x="-71" y="0" flags="0x4"/>
    </TTGlyph>
    <TTGlyph name="Igrave" xMin="-28" yMin="0" xMax="230" yMax="887">
      <component glyphName="I" x="0" y="0" flags="0x604"/>
      <component glyphName="gravecomb.case" x="-145" y="0" flags="0x4"/>
    </TTGlyph>
    <TTGlyph name="Igrave.ss01" xMin="43" yMin="0" xMax="413" yMax="887">
      <component glyphName="I.ss01" x="0" y="0" flags="0x604"/>
      <component glyphName="gravecomb.case" x="-71" y="0" flags="0x4"/>
    </TTGlyph>
    <TTGlyph name="Imacron" xMin="22" yMin="0" xMax="288" yMax="853">
      <component glyphName="I" x="0" y="0" flags="0x604"/>
      <component glyphName="uni0304.narrow.case" x="-145" y="0" flags="0x4"/>
    </TTGlyph>
    <TTGlyph name="Imacron.ss01" xMin="43" yMin="0" xMax="413" yMax="852">
      <component glyphName="I.ss01" x="0" y="0" flags="0x604"/>
      <component glyphName="uni0304.case" x="-71" y="0" flags="0x4"/>
    </TTGlyph>
    <TTGlyph name="Iogonek" xMin="78" yMin="-224" xMax="241" yMax="700">
      <component glyphName="I" x="0" y="0" flags="0x604"/>
      <component glyphName="uni0328.i" x="-96" y="0" flags="0x4"/>
    </TTGlyph>
    <TTGlyph name="Iogonek.ss01" xMin="43" yMin="-224" xMax="413" yMax="700">
      <component glyphName="I.ss01" x="0" y="0" flags="0x604"/>
      <component glyphName="uni0328.i" x="-23" y="0" flags="0x4"/>
    </TTGlyph>
    <TTGlyph name="Itilde" xMin="-13" yMin="0" xMax="323" yMax="887">
      <component glyphName="I" x="0" y="0" flags="0x604"/>
      <component glyphName="tildecomb.case" x="-145" y="0" flags="0x4"/>
    </TTGlyph>
    <TTGlyph name="Itilde.ss01" xMin="43" yMin="0" xMax="413" yMax="887">
      <component glyphName="I.ss01" x="0" y="0" flags="0x604"/>
      <component glyphName="tildecomb.case" x="-71" y="0" flags="0x4"/>
    </TTGlyph>
    <TTGlyph name="J" xMin="-9" yMin="-8" xMax="414" yMax="700">
      <contour>
        <pt x="195" y="-8" on="1" overlap="1"/>
        <pt x="133" y="-8" on="0"/>
        <pt x="25" y="44" on="0"/>
        <pt x="-9" y="93" on="1"/>
        <pt x="49" y="161" on="1"/>
        <pt x="78" y="121" on="0"/>
        <pt x="151" y="78" on="0"/>
        <pt x="195" y="78" on="1"/>
        <pt x="315" y="78" on="0"/>
        <pt x="315" y="220" on="1"/>
        <pt x="315" y="613" on="1"/>
        <pt x="62" y="613" on="1"/>
        <pt x="62" y="700" on="1"/>
        <pt x="414" y="700" on="1"/>
        <pt x="414" y="225" on="1"/>
        <pt x="414" y="108" on="0"/>
        <pt x="303" y="-8" on="0"/>
      </contour>
    </TTGlyph>
    <TTGlyph name="J.ss01" xMin="-9" yMin="-108" xMax="412" yMax="700">
      <contour>
        <pt x="192" y="-108" on="1" overlap="1"/>
        <pt x="130" y="-108" on="0"/>
        <pt x="25" y="-56" on="0"/>
        <pt x="-9" y="-7" on="1"/>
        <pt x="47" y="61" on="1"/>
        <pt x="76" y="21" on="0"/>
        <pt x="148" y="-22" on="0"/>
        <pt x="191" y="-22" on="1"/>
        <pt x="312" y="-22" on="0"/>
        <pt x="312" y="120" on="1"/>
        <pt x="312" y="613" on="1"/>
        <pt x="60" y="613" on="1"/>
        <pt x="60" y="700" on="1"/>
        <pt x="412" y="700" on="1"/>
        <pt x="412" y="125" on="1"/>
        <pt x="412" y="8" on="0"/>
        <pt x="300" y="-108" on="0"/>
      </contour>
    </TTGlyph>
    <TTGlyph name="Jcircumflex" xMin="-9" yMin="-8" xMax="417" yMax="887">
      <component glyphName="J" x="0" y="0" flags="0x604"/>
      <component glyphName="uni0302.case" x="-61" y="0" flags="0x4"/>
    </TTGlyph>
    <TTGlyph name="Jcircumflex.ss01" xMin="-9" yMin="-108" xMax="415" yMax="887">
      <component glyphName="J.ss01" x="0" y="0" flags="0x604"/>
      <component glyphName="uni0302.case" x="-64" y="0" flags="0x4"/>
    </TTGlyph>
    <TTGlyph name="K" xMin="105" yMin="0" xMax="718" yMax="700">
      <contour>
        <pt x="193" y="169" on="1" overlap="1"/>
        <pt x="188" y="291" on="1"/>
        <pt x="585" y="700" on="1"/>
        <pt x="699" y="700" on="1"/>
        <pt x="392" y="376" on="1"/>
        <pt x="336" y="314" on="1"/>
      </contour>
      <contour>
        <pt x="105" y="0" on="1"/>
        <pt x="105" y="700" on="1"/>
        <pt x="205" y="700" on="1"/>
        <pt x="205" y="0" on="1"/>
      </contour>
      <contour>
        <pt x="601" y="0" on="1"/>
        <pt x="314" y="334" on="1"/>
        <pt x="381" y="408" on="1"/>
        <pt x="718" y="0" on="1"/>
      </contour>
    </TTGlyph>
    <TTGlyph name="L" xMin="105" yMin="0" xMax="584" yMax="700">
      <contour>
        <pt x="105" y="0" on="1" overlap="1"/>
        <pt x="105" y="700" on="1"/>
        <pt x="205" y="700" on="1"/>
        <pt x="205" y="87" on="1"/>
        <pt x="584" y="87" on="1"/>
        <pt x="584" y="0" on="1"/>
      </contour>
    </TTGlyph>
    <TTGlyph name="Lacute" xMin="79" yMin="0" xMax="584" yMax="887">
      <component glyphName="L" x="0" y="0" flags="0x604"/>
      <component glyphName="acutecomb.case" x="-145" y="0" flags="0x4"/>
    </TTGlyph>
    <TTGlyph name="Lcaron" xMin="105" yMin="0" xMax="584" yMax="733">
      <component glyphName="L" x="0" y="0" flags="0x604"/>
      <component glyphName="uni030C.alt" x="138" y="0" flags="0x4"/>
    </TTGlyph>
    <TTGlyph name="Ldot" xMin="105" yMin="0" xMax="584" yMax="700">
      <component glyphName="L" x="0" y="0" flags="0x604"/>
      <component glyphName="periodcentered.loclCAT.case" x="265" y="-34" flags="0x4"/>
    </TTGlyph>
    <TTGlyph name="Lslash" xMin="8" yMin="0" xMax="592" yMax="700">
      <component glyphName="L" x="8" y="0" flags="0x604"/>
      <component glyphName="uni0337.case" x="-45" y="-10" flags="0x4"/>
    </TTGlyph>
    <TTGlyph name="M" xMin="105" yMin="0" xMax="850" yMax="700">
      <contour>
        <pt x="105" y="0" on="1" overlap="1"/>
        <pt x="105" y="700" on="1"/>
        <pt x="187" y="700" on="1"/>
        <pt x="501" y="171" on="1"/>
        <pt x="457" y="171" on="1"/>
        <pt x="767" y="700" on="1"/>
        <pt x="849" y="700" on="1"/>
        <pt x="850" y="0" on="1"/>
        <pt x="754" y="0" on="1"/>
        <pt x="753" y="549" on="1"/>
        <pt x="776" y="549" on="1"/>
        <pt x="500" y="85" on="1"/>
        <pt x="454" y="85" on="1"/>
        <pt x="176" y="549" on="1"/>
        <pt x="201" y="549" on="1"/>
        <pt x="201" y="0" on="1"/>
      </contour>
    </TTGlyph>
    <TTGlyph name="M.ss01" xMin="105" yMin="0" xMax="1127" yMax="708">
      <contour>
        <pt x="870" y="708" on="1" overlap="1"/>
        <pt x="989" y="708" on="0"/>
        <pt x="1127" y="570" on="0"/>
        <pt x="1127" y="435" on="1"/>
        <pt x="1127" y="0" on="1"/>
        <pt x="1028" y="0" on="1"/>
        <pt x="1028" y="432" on="1"/>
        <pt x="1028" y="528" on="0"/>
        <pt x="929" y="619" on="0"/>
        <pt x="853" y="619" on="1"/>
        <pt x="770" y="619" on="0"/>
        <pt x="665" y="524" on="0"/>
        <pt x="665" y="418" on="1"/>
        <pt x="665" y="0" on="1"/>
        <pt x="566" y="0" on="1"/>
        <pt x="566" y="432" on="1"/>
        <pt x="566" y="528" on="0"/>
        <pt x="472" y="619" on="0"/>
        <pt x="396" y="619" on="1"/>
        <pt x="341" y="619" on="0"/>
        <pt x="254" y="577" on="0"/>
        <pt x="205" y="489" on="0"/>
        <pt x="205" y="418" on="1"/>
        <pt x="205" y="0" on="1"/>
        <pt x="105" y="0" on="1"/>
        <pt x="105" y="700" on="1"/>
        <pt x="201" y="700" on="1"/>
        <pt x="201" y="560" on="1"/>
        <pt x="189" y="574" on="1"/>
        <pt x="216" y="637" on="0"/>
        <pt x="336" y="708" on="0"/>
        <pt x="420" y="708" on="1"/>
        <pt x="509" y="708" on="0"/>
        <pt x="630" y="629" on="0"/>
        <pt x="650" y="560" on="1"/>
        <pt x="623" y="561" on="1"/>
        <pt x="651" y="632" on="0"/>
        <pt x="783" y="708" on="0"/>
      </contour>
    </TTGlyph>
    <TTGlyph name="N" xMin="105" yMin="0" xMax="707" yMax="700">
      <contour>
        <pt x="105" y="0" on="1" overlap="1"/>
        <pt x="105" y="700" on="1"/>
        <pt x="187" y="700" on="1"/>
        <pt x="650" y="125" on="1"/>
        <pt x="607" y="125" on="1"/>
        <pt x="607" y="700" on="1"/>
        <pt x="707" y="700" on="1"/>
        <pt x="707" y="0" on="1"/>
        <pt x="625" y="0" on="1"/>
        <pt x="162" y="575" on="1"/>
        <pt x="205" y="575" on="1"/>
        <pt x="205" y="0" on="1"/>
      </contour>
    </TTGlyph>
    <TTGlyph name="N.ss01" xMin="105" yMin="0" xMax="699" yMax="708">
      <contour>
        <pt x="431" y="708" on="1" overlap="1"/>
        <pt x="556" y="708" on="0"/>
        <pt x="699" y="557" on="0"/>
        <pt x="699" y="415" on="1"/>
        <pt x="699" y="0" on="1"/>
        <pt x="600" y="0" on="1"/>
        <pt x="600" y="412" on="1"/>
        <pt x="600" y="516" on="0"/>
        <pt x="498" y="619" on="0"/>
        <pt x="411" y="619" on="1"/>
        <pt x="318" y="619" on="0"/>
        <pt x="205" y="510" on="0"/>
        <pt x="205" y="397" on="1"/>
        <pt x="205" y="0" on="1"/>
        <pt x="105" y="0" on="1"/>
        <pt x="105" y="700" on="1"/>
        <pt x="201" y="700" on="1"/>
        <pt x="201" y="529" on="1"/>
        <pt x="173" y="545" on="1"/>
        <pt x="206" y="630" on="0"/>
        <pt x="339" y="708" on="0"/>
      </contour>
    </TTGlyph>
    <TTGlyph name="Nacute" xMin="105" yMin="0" xMax="707" yMax="887">
      <component glyphName="N" x="0" y="0" flags="0x604"/>
      <component glyphName="acutecomb.case" x="105" y="0" flags="0x4"/>
    </TTGlyph>
    <TTGlyph name="Nacute.ss01" xMin="105" yMin="0" xMax="699" yMax="887">
      <component glyphName="N.ss01" x="0" y="0" flags="0x604"/>
      <component glyphName="acutecomb.case" x="102" y="0" flags="0x4"/>
    </TTGlyph>
    <TTGlyph name="Ncaron" xMin="105" yMin="0" xMax="707" yMax="887">
      <component glyphName="N" x="0" y="0" flags="0x604"/>
      <component glyphName="uni030C.case" x="105" y="0" flags="0x4"/>
    </TTGlyph>
    <TTGlyph name="Ncaron.ss01" xMin="105" yMin="0" xMax="699" yMax="887">
      <component glyphName="N.ss01" x="0" y="0" flags="0x604"/>
      <component glyphName="uni030C.case" x="102" y="0" flags="0x4"/>
    </TTGlyph>
    <TTGlyph name="Ntilde" xMin="105" yMin="0" xMax="707" yMax="887">
      <component glyphName="N" x="0" y="0" flags="0x604"/>
      <component glyphName="tildecomb.case" x="105" y="0" flags="0x4"/>
    </TTGlyph>
    <TTGlyph name="Ntilde.ss01" xMin="105" yMin="0" xMax="699" yMax="887">
      <component glyphName="N.ss01" x="0" y="0" flags="0x604"/>
      <component glyphName="tildecomb.case" x="102" y="0" flags="0x4"/>
    </TTGlyph>
    <TTGlyph name="O" xMin="48" yMin="-8" xMax="792" yMax="708">
      <contour>
        <pt x="421" y="-8" on="1" overlap="1"/>
        <pt x="341" y="-8" on="0"/>
        <pt x="204" y="46" on="0"/>
        <pt x="104" y="143" on="0"/>
        <pt x="48" y="273" on="0"/>
        <pt x="48" y="350" on="1"/>
        <pt x="48" y="427" on="0"/>
        <pt x="104" y="557" on="0"/>
        <pt x="204" y="654" on="0"/>
        <pt x="340" y="708" on="0"/>
        <pt x="421" y="708" on="1"/>
        <pt x="501" y="708" on="0"/>
        <pt x="636" y="655" on="0"/>
        <pt x="737" y="558" on="0"/>
        <pt x="792" y="428" on="0"/>
        <pt x="792" y="350" on="1"/>
        <pt x="792" y="272" on="0"/>
        <pt x="737" y="142" on="0"/>
        <pt x="636" y="45" on="0"/>
        <pt x="501" y="-8" on="0"/>
      </contour>
      <contour>
        <pt x="421" y="81" on="1"/>
        <pt x="479" y="81" on="0"/>
        <pt x="578" y="121" on="0"/>
        <pt x="651" y="194" on="0"/>
        <pt x="692" y="292" on="0"/>
        <pt x="692" y="350" on="1"/>
        <pt x="692" y="408" on="0"/>
        <pt x="651" y="506" on="0"/>
        <pt x="578" y="579" on="0"/>
        <pt x="479" y="619" on="0"/>
        <pt x="421" y="619" on="1"/>
        <pt x="362" y="619" on="0"/>
        <pt x="263" y="579" on="0"/>
        <pt x="189" y="506" on="0"/>
        <pt x="148" y="408" on="0"/>
        <pt x="148" y="350" on="1"/>
        <pt x="148" y="292" on="0"/>
        <pt x="189" y="194" on="0"/>
        <pt x="263" y="121" on="0"/>
        <pt x="362" y="81" on="0"/>
      </contour>
    </TTGlyph>
    <TTGlyph name="OE" xMin="48" yMin="0" xMax="1069" yMax="700">
      <contour>
        <pt x="426" y="0" on="1" overlap="1"/>
        <pt x="314" y="0" on="0"/>
        <pt x="144" y="88" on="0"/>
        <pt x="48" y="245" on="0"/>
        <pt x="48" y="349" on="1"/>
        <pt x="48" y="453" on="0"/>
        <pt x="144" y="612" on="0"/>
        <pt x="314" y="700" on="0"/>
        <pt x="426" y="700" on="1"/>
        <pt x="586" y="700" on="1"/>
        <pt x="586" y="613" on="1"/>
        <pt x="431" y="613" on="1"/>
        <pt x="346" y="613" on="0"/>
        <pt x="218" y="547" on="0"/>
        <pt x="148" y="428" on="0"/>
        <pt x="148" y="349" on="1"/>
        <pt x="148" y="271" on="0"/>
        <pt x="218" y="153" on="0"/>
        <pt x="346" y="87" on="0"/>
        <pt x="431" y="87" on="1"/>
        <pt x="586" y="87" on="1"/>
        <pt x="586" y="0" on="1"/>
      </contour>
      <contour>
        <pt x="652" y="398" on="1"/>
        <pt x="1012" y="398" on="1"/>
        <pt x="1012" y="313" on="1"/>
        <pt x="652" y="313" on="1"/>
      </contour>
      <contour>
        <pt x="660" y="87" on="1"/>
        <pt x="1069" y="87" on="1"/>
        <pt x="1069" y="0" on="1"/>
        <pt x="561" y="0" on="1"/>
        <pt x="561" y="700" on="1"/>
        <pt x="1055" y="700" on="1"/>
        <pt x="1055" y="613" on="1"/>
        <pt x="660" y="613" on="1"/>
      </contour>
    </TTGlyph>
    <TTGlyph name="Oacute" xMin="48" yMin="-8" xMax="792" yMax="887">
      <component glyphName="O" x="0" y="0" flags="0x604"/>
      <component glyphName="acutecomb.case" x="121" y="0" flags="0x4"/>
    </TTGlyph>
    <TTGlyph name="Obreve" xMin="48" yMin="-8" xMax="792" yMax="887">
      <component glyphName="O" x="0" y="0" flags="0x604"/>
      <component glyphName="uni0306.case" x="121" y="0" flags="0x4"/>
    </TTGlyph>
    <TTGlyph name="Ocircumflex" xMin="48" yMin="-8" xMax="792" yMax="887">
      <component glyphName="O" x="0" y="0" flags="0x604"/>
      <component glyphName="uni0302.case" x="121" y="0" flags="0x4"/>
    </TTGlyph>
    <TTGlyph name="Odieresis" xMin="48" yMin="-8" xMax="792" yMax="877">
      <component glyphName="O" x="0" y="0" flags="0x604"/>
      <component glyphName="uni0308.case" x="121" y="0" flags="0x4"/>
    </TTGlyph>
    <TTGlyph name="Ograve" xMin="48" yMin="-8" xMax="792" yMax="887">
      <component glyphName="O" x="0" y="0" flags="0x604"/>
      <component glyphName="gravecomb.case" x="121" y="0" flags="0x4"/>
    </TTGlyph>
    <TTGlyph name="Ohorn" xMin="48" yMin="-8" xMax="792" yMax="853">
      <contour>
        <pt x="421" y="-8" on="1" overlap="1"/>
        <pt x="341" y="-8" on="0"/>
        <pt x="204" y="46" on="0"/>
        <pt x="104" y="143" on="0"/>
        <pt x="48" y="273" on="0"/>
        <pt x="48" y="350" on="1"/>
        <pt x="48" y="428" on="0"/>
        <pt x="104" y="558" on="0"/>
        <pt x="205" y="655" on="0"/>
        <pt x="343" y="708" on="0"/>
        <pt x="424" y="708" on="1"/>
        <pt x="484" y="708" on="0"/>
        <pt x="574" y="694" on="0"/>
        <pt x="616" y="694" on="1"/>
        <pt x="662" y="694" on="0"/>
        <pt x="711" y="730" on="0"/>
        <pt x="711" y="767" on="1"/>
        <pt x="711" y="785" on="0"/>
        <pt x="699" y="816" on="0"/>
        <pt x="691" y="829" on="1"/>
        <pt x="751" y="853" on="1"/>
        <pt x="764" y="834" on="0"/>
        <pt x="779" y="788" on="0"/>
        <pt x="779" y="764" on="1"/>
        <pt x="779" y="701" on="0"/>
        <pt x="692" y="631" on="0"/>
        <pt x="612" y="631" on="1"/>
        <pt x="583" y="631" on="0"/>
        <pt x="518" y="638" on="0"/>
        <pt x="489" y="642" on="1"/>
        <pt x="614" y="657" on="1"/>
        <pt x="667" y="630" on="0"/>
        <pt x="747" y="538" on="0"/>
        <pt x="792" y="419" on="0"/>
        <pt x="792" y="350" on="1"/>
        <pt x="792" y="272" on="0"/>
        <pt x="737" y="142" on="0"/>
        <pt x="636" y="45" on="0"/>
        <pt x="501" y="-8" on="0"/>
      </contour>
      <contour>
        <pt x="421" y="81" on="1"/>
        <pt x="479" y="81" on="0"/>
        <pt x="578" y="122" on="0"/>
        <pt x="651" y="194" on="0"/>
        <pt x="692" y="292" on="0"/>
        <pt x="692" y="350" on="1"/>
        <pt x="692" y="407" on="0"/>
        <pt x="651" y="506" on="0"/>
        <pt x="578" y="578" on="0"/>
        <pt x="479" y="619" on="0"/>
        <pt x="421" y="619" on="1"/>
        <pt x="362" y="619" on="0"/>
        <pt x="263" y="579" on="0"/>
        <pt x="189" y="506" on="0"/>
        <pt x="148" y="408" on="0"/>
        <pt x="148" y="350" on="1"/>
        <pt x="148" y="293" on="0"/>
        <pt x="189" y="195" on="0"/>
        <pt x="263" y="121" on="0"/>
        <pt x="362" y="81" on="0"/>
      </contour>
    </TTGlyph>
    <TTGlyph name="Ohungarumlaut" xMin="48" yMin="-8" xMax="792" yMax="887">
      <component glyphName="O" x="0" y="0" flags="0x604"/>
      <component glyphName="uni030B.case" x="121" y="0" flags="0x4"/>
    </TTGlyph>
    <TTGlyph name="Omacron" xMin="48" yMin="-8" xMax="792" yMax="852">
      <component glyphName="O" x="0" y="0" flags="0x604"/>
      <component glyphName="uni0304.case" x="121" y="0" flags="0x4"/>
    </TTGlyph>
    <TTGlyph name="Oslash" xMin="48" yMin="-70" xMax="792" yMax="770">
      <component glyphName="O" x="0" y="0" flags="0x604"/>
      <component glyphName="uni0338.case" x="16" y="0" flags="0x4"/>
    </TTGlyph>
    <TTGlyph name="Oslashacute" xMin="48" yMin="-70" xMax="792" yMax="887">
      <component glyphName="Oslash" x="0" y="0" flags="0x604"/>
      <component glyphName="acutecomb.case" x="121" y="0" flags="0x4"/>
    </TTGlyph>
    <TTGlyph name="Otilde" xMin="48" yMin="-8" xMax="792" yMax="887">
      <component glyphName="O" x="0" y="0" flags="0x604"/>
      <component glyphName="tildecomb.case" x="121" y="0" flags="0x4"/>
    </TTGlyph>
    <TTGlyph name="P" xMin="105" yMin="0" xMax="670" yMax="700">
      <contour>
        <pt x="105" y="0" on="1" overlap="1"/>
        <pt x="105" y="700" on="1"/>
        <pt x="378" y="700" on="1"/>
        <pt x="470" y="700" on="0"/>
        <pt x="600" y="642" on="0"/>
        <pt x="670" y="532" on="0"/>
        <pt x="670" y="456" on="1"/>
        <pt x="670" y="380" on="0"/>
        <pt x="600" y="271" on="0"/>
        <pt x="470" y="212" on="0"/>
        <pt x="378" y="212" on="1"/>
        <pt x="160" y="212" on="1"/>
        <pt x="205" y="259" on="1"/>
        <pt x="205" y="0" on="1"/>
      </contour>
      <contour>
        <pt x="205" y="249" on="1"/>
        <pt x="160" y="299" on="1"/>
        <pt x="375" y="299" on="1"/>
        <pt x="471" y="299" on="0"/>
        <pt x="570" y="381" on="0"/>
        <pt x="570" y="456" on="1"/>
        <pt x="570" y="531" on="0"/>
        <pt x="471" y="613" on="0"/>
        <pt x="375" y="613" on="1"/>
        <pt x="160" y="613" on="1"/>
        <pt x="205" y="663" on="1"/>
      </contour>
    </TTGlyph>
    <TTGlyph name="Q" xMin="48" yMin="-146" xMax="826" yMax="708">
      <contour>
        <pt x="421" y="-8" on="1" overlap="1"/>
        <pt x="341" y="-8" on="0"/>
        <pt x="204" y="46" on="0"/>
        <pt x="104" y="143" on="0"/>
        <pt x="48" y="273" on="0"/>
        <pt x="48" y="350" on="1"/>
        <pt x="48" y="427" on="0"/>
        <pt x="104" y="557" on="0"/>
        <pt x="204" y="654" on="0"/>
        <pt x="340" y="708" on="0"/>
        <pt x="421" y="708" on="1"/>
        <pt x="501" y="708" on="0"/>
        <pt x="636" y="655" on="0"/>
        <pt x="737" y="558" on="0"/>
        <pt x="792" y="428" on="0"/>
        <pt x="792" y="350" on="1"/>
        <pt x="792" y="272" on="0"/>
        <pt x="737" y="142" on="0"/>
        <pt x="636" y="45" on="0"/>
        <pt x="501" y="-8" on="0"/>
      </contour>
      <contour>
        <pt x="650" y="-146" on="1"/>
        <pt x="615" y="-146" on="0"/>
        <pt x="551" y="-129" on="0"/>
        <pt x="487" y="-92" on="0"/>
        <pt x="419" y="-33" on="0"/>
        <pt x="379" y="10" on="1"/>
        <pt x="486" y="38" on="1"/>
        <pt x="516" y="1" on="0"/>
        <pt x="571" y="-46" on="0"/>
        <pt x="625" y="-67" on="0"/>
        <pt x="651" y="-67" on="1"/>
        <pt x="726" y="-67" on="0"/>
        <pt x="779" y="-7" on="1"/>
        <pt x="826" y="-64" on="1"/>
        <pt x="758" y="-146" on="0"/>
      </contour>
      <contour>
        <pt x="421" y="81" on="1"/>
        <pt x="479" y="81" on="0"/>
        <pt x="578" y="121" on="0"/>
        <pt x="651" y="195" on="0"/>
        <pt x="692" y="293" on="0"/>
        <pt x="692" y="350" on="1"/>
        <pt x="692" y="408" on="0"/>
        <pt x="651" y="506" on="0"/>
        <pt x="578" y="579" on="0"/>
        <pt x="479" y="619" on="0"/>
        <pt x="421" y="619" on="1"/>
        <pt x="362" y="619" on="0"/>
        <pt x="263" y="579" on="0"/>
        <pt x="189" y="506" on="0"/>
        <pt x="148" y="408" on="0"/>
        <pt x="148" y="350" on="1"/>
        <pt x="148" y="293" on="0"/>
        <pt x="189" y="195" on="0"/>
        <pt x="263" y="121" on="0"/>
        <pt x="362" y="81" on="0"/>
      </contour>
    </TTGlyph>
    <TTGlyph name="Q.ss01" xMin="48" yMin="-135" xMax="792" yMax="708">
      <contour>
        <pt x="370" y="-135" on="1" overlap="1"/>
        <pt x="370" y="11" on="1"/>
        <pt x="373" y="44" on="1"/>
        <pt x="373" y="250" on="1"/>
        <pt x="466" y="250" on="1"/>
        <pt x="466" y="44" on="1"/>
        <pt x="470" y="11" on="1"/>
        <pt x="470" y="-135" on="1"/>
      </contour>
      <contour>
        <pt x="421" y="-8" on="1"/>
        <pt x="341" y="-8" on="0"/>
        <pt x="204" y="46" on="0"/>
        <pt x="104" y="143" on="0"/>
        <pt x="48" y="273" on="0"/>
        <pt x="48" y="350" on="1"/>
        <pt x="48" y="427" on="0"/>
        <pt x="104" y="557" on="0"/>
        <pt x="204" y="654" on="0"/>
        <pt x="340" y="708" on="0"/>
        <pt x="421" y="708" on="1"/>
        <pt x="501" y="708" on="0"/>
        <pt x="636" y="655" on="0"/>
        <pt x="737" y="558" on="0"/>
        <pt x="792" y="428" on="0"/>
        <pt x="792" y="350" on="1"/>
        <pt x="792" y="272" on="0"/>
        <pt x="737" y="142" on="0"/>
        <pt x="636" y="45" on="0"/>
        <pt x="501" y="-8" on="0"/>
      </contour>
      <contour>
        <pt x="421" y="81" on="1"/>
        <pt x="479" y="81" on="0"/>
        <pt x="578" y="121" on="0"/>
        <pt x="651" y="195" on="0"/>
        <pt x="692" y="293" on="0"/>
        <pt x="692" y="350" on="1"/>
        <pt x="692" y="408" on="0"/>
        <pt x="651" y="506" on="0"/>
        <pt x="578" y="579" on="0"/>
        <pt x="479" y="619" on="0"/>
        <pt x="421" y="619" on="1"/>
        <pt x="362" y="619" on="0"/>
        <pt x="263" y="579" on="0"/>
        <pt x="189" y="506" on="0"/>
        <pt x="148" y="408" on="0"/>
        <pt x="148" y="350" on="1"/>
        <pt x="148" y="293" on="0"/>
        <pt x="189" y="195" on="0"/>
        <pt x="263" y="121" on="0"/>
        <pt x="362" y="81" on="0"/>
      </contour>
    </TTGlyph>
    <TTGlyph name="Q.ss01.BRACKET.170" xMin="48" yMin="-135" xMax="792" yMax="708">
      <contour>
        <pt x="370" y="-135" on="1" overlap="1"/>
        <pt x="370" y="11" on="1"/>
        <pt x="470" y="11" on="1"/>
        <pt x="470" y="-135" on="1"/>
      </contour>
      <contour>
        <pt x="421" y="-8" on="1"/>
        <pt x="341" y="-8" on="0"/>
        <pt x="204" y="46" on="0"/>
        <pt x="104" y="143" on="0"/>
        <pt x="48" y="273" on="0"/>
        <pt x="48" y="350" on="1"/>
        <pt x="48" y="427" on="0"/>
        <pt x="104" y="557" on="0"/>
        <pt x="204" y="654" on="0"/>
        <pt x="340" y="708" on="0"/>
        <pt x="421" y="708" on="1"/>
        <pt x="501" y="708" on="0"/>
        <pt x="636" y="655" on="0"/>
        <pt x="737" y="558" on="0"/>
        <pt x="792" y="428" on="0"/>
        <pt x="792" y="350" on="1"/>
        <pt x="792" y="272" on="0"/>
        <pt x="737" y="142" on="0"/>
        <pt x="636" y="45" on="0"/>
        <pt x="501" y="-8" on="0"/>
      </contour>
      <contour>
        <pt x="421" y="81" on="1"/>
        <pt x="479" y="81" on="0"/>
        <pt x="578" y="121" on="0"/>
        <pt x="651" y="195" on="0"/>
        <pt x="692" y="293" on="0"/>
        <pt x="692" y="350" on="1"/>
        <pt x="692" y="408" on="0"/>
        <pt x="651" y="506" on="0"/>
        <pt x="578" y="579" on="0"/>
        <pt x="479" y="619" on="0"/>
        <pt x="421" y="619" on="1"/>
        <pt x="362" y="619" on="0"/>
        <pt x="263" y="579" on="0"/>
        <pt x="189" y="506" on="0"/>
        <pt x="148" y="408" on="0"/>
        <pt x="148" y="350" on="1"/>
        <pt x="148" y="293" on="0"/>
        <pt x="189" y="195" on="0"/>
        <pt x="263" y="121" on="0"/>
        <pt x="362" y="81" on="0"/>
      </contour>
    </TTGlyph>
    <TTGlyph name="R" xMin="105" yMin="0" xMax="682" yMax="700">
      <contour>
        <pt x="105" y="0" on="1" overlap="1"/>
        <pt x="105" y="700" on="1"/>
        <pt x="378" y="700" on="1"/>
        <pt x="470" y="700" on="0"/>
        <pt x="600" y="642" on="0"/>
        <pt x="670" y="532" on="0"/>
        <pt x="670" y="456" on="1"/>
        <pt x="670" y="380" on="0"/>
        <pt x="600" y="271" on="0"/>
        <pt x="470" y="213" on="0"/>
        <pt x="378" y="213" on="1"/>
        <pt x="160" y="213" on="1"/>
        <pt x="205" y="259" on="1"/>
        <pt x="205" y="0" on="1"/>
      </contour>
      <contour>
        <pt x="573" y="0" on="1"/>
        <pt x="395" y="254" on="1"/>
        <pt x="502" y="254" on="1"/>
        <pt x="682" y="0" on="1"/>
      </contour>
      <contour>
        <pt x="205" y="249" on="1"/>
        <pt x="160" y="298" on="1"/>
        <pt x="375" y="298" on="1"/>
        <pt x="471" y="298" on="0"/>
        <pt x="570" y="381" on="0"/>
        <pt x="570" y="456" on="1"/>
        <pt x="570" y="531" on="0"/>
        <pt x="471" y="613" on="0"/>
        <pt x="375" y="613" on="1"/>
        <pt x="160" y="613" on="1"/>
        <pt x="205" y="663" on="1"/>
      </contour>
    </TTGlyph>
    <TTGlyph name="Racute" xMin="105" yMin="0" xMax="682" yMax="887">
      <component glyphName="R" x="0" y="0" flags="0x604"/>
      <component glyphName="acutecomb.case" x="71" y="0" flags="0x4"/>
    </TTGlyph>
    <TTGlyph name="Rcaron" xMin="105" yMin="0" xMax="682" yMax="887">
      <component glyphName="R" x="0" y="0" flags="0x604"/>
      <component glyphName="uni030C.case" x="71" y="0" flags="0x4"/>
    </TTGlyph>
    <TTGlyph name="S" xMin="41" yMin="-8" xMax="580" yMax="708">
      <contour>
        <pt x="309" y="-8" on="1" overlap="1"/>
        <pt x="229" y="-8" on="0"/>
        <pt x="83" y="41" on="0"/>
        <pt x="41" y="80" on="1"/>
        <pt x="78" y="158" on="1"/>
        <pt x="118" y="123" on="0"/>
        <pt x="242" y="77" on="0"/>
        <pt x="309" y="77" on="1"/>
        <pt x="370" y="77" on="0"/>
        <pt x="446" y="105" on="0"/>
        <pt x="482" y="154" on="0"/>
        <pt x="482" y="185" on="1"/>
        <pt x="482" y="221" on="0"/>
        <pt x="435" y="265" on="0"/>
        <pt x="360" y="292" on="0"/>
        <pt x="270" y="312" on="0"/>
        <pt x="179" y="339" on="0"/>
        <pt x="104" y="381" on="0"/>
        <pt x="58" y="452" on="0"/>
        <pt x="58" y="508" on="1"/>
        <pt x="58" y="562" on="0"/>
        <pt x="115" y="653" on="0"/>
        <pt x="234" y="708" on="0"/>
        <pt x="326" y="708" on="1"/>
        <pt x="387" y="708" on="0"/>
        <pt x="507" y="676" on="0"/>
        <pt x="551" y="646" on="1"/>
        <pt x="518" y="566" on="1"/>
        <pt x="473" y="596" on="0"/>
        <pt x="373" y="623" on="0"/>
        <pt x="326" y="623" on="1"/>
        <pt x="267" y="623" on="0"/>
        <pt x="191" y="593" on="0"/>
        <pt x="156" y="543" on="0"/>
        <pt x="156" y="512" on="1"/>
        <pt x="156" y="475" on="0"/>
        <pt x="203" y="431" on="0"/>
        <pt x="278" y="405" on="0"/>
        <pt x="368" y="384" on="0"/>
        <pt x="459" y="358" on="0"/>
        <pt x="534" y="316" on="0"/>
        <pt x="580" y="246" on="0"/>
        <pt x="580" y="191" on="1"/>
        <pt x="580" y="138" on="0"/>
        <pt x="522" y="47" on="0"/>
        <pt x="401" y="-8" on="0"/>
      </contour>
    </TTGlyph>
    <TTGlyph name="Sacute" xMin="41" yMin="-8" xMax="580" yMax="887">
      <component glyphName="S" x="0" y="0" flags="0x604"/>
      <component glyphName="acutecomb.case" x="22" y="0" flags="0x4"/>
    </TTGlyph>
    <TTGlyph name="Scaron" xMin="41" yMin="-8" xMax="580" yMax="887">
      <component glyphName="S" x="0" y="0" flags="0x604"/>
      <component glyphName="uni030C.case" x="22" y="0" flags="0x4"/>
    </TTGlyph>
    <TTGlyph name="Scedilla" xMin="41" yMin="-224" xMax="580" yMax="708">
      <component glyphName="S" x="0" y="0" flags="0x604"/>
      <component glyphName="uni0327" x="22" y="0" flags="0x4"/>
    </TTGlyph>
    <TTGlyph name="Scircumflex" xMin="41" yMin="-8" xMax="580" yMax="887">
      <component glyphName="S" x="0" y="0" flags="0x604"/>
      <component glyphName="uni0302.case" x="22" y="0" flags="0x4"/>
    </TTGlyph>
    <TTGlyph name="T" xMin="4" yMin="0" xMax="583" yMax="700">
      <contour>
        <pt x="244" y="0" on="1" overlap="1"/>
        <pt x="244" y="613" on="1"/>
        <pt x="4" y="613" on="1"/>
        <pt x="4" y="700" on="1"/>
        <pt x="583" y="700" on="1"/>
        <pt x="583" y="613" on="1"/>
        <pt x="343" y="613" on="1"/>
        <pt x="343" y="0" on="1"/>
      </contour>
    </TTGlyph>
    <TTGlyph name="T.ss01" xMin="-4" yMin="0" xMax="602" yMax="708">
      <contour>
        <pt x="31" y="549" on="1" overlap="1"/>
        <pt x="-4" y="628" on="1"/>
        <pt x="66" y="669" on="0"/>
        <pt x="220" y="708" on="0"/>
        <pt x="298" y="708" on="1"/>
        <pt x="377" y="708" on="0"/>
        <pt x="533" y="669" on="0"/>
        <pt x="602" y="628" on="1"/>
        <pt x="567" y="549" on="1"/>
        <pt x="505" y="585" on="0"/>
        <pt x="370" y="620" on="0"/>
        <pt x="298" y="620" on="1"/>
        <pt x="228" y="620" on="0"/>
        <pt x="94" y="585" on="0"/>
      </contour>
      <contour>
        <pt x="250" y="0" on="1"/>
        <pt x="250" y="655" on="1"/>
        <pt x="349" y="655" on="1"/>
        <pt x="349" y="0" on="1"/>
      </contour>
    </TTGlyph>
    <TTGlyph name="T_h" xMin="4" yMin="0" xMax="1115" yMax="700">
      <contour>
        <pt x="244" y="0" on="1" overlap="1"/>
        <pt x="244" y="613" on="1"/>
        <pt x="4" y="613" on="1"/>
        <pt x="4" y="700" on="1"/>
        <pt x="621" y="700" on="1"/>
        <pt x="621" y="613" on="1"/>
        <pt x="343" y="613" on="1"/>
        <pt x="343" y="0" on="1"/>
      </contour>
      <contour>
        <pt x="894" y="535" on="1"/>
        <pt x="959" y="535" on="0"/>
        <pt x="1058" y="485" on="0"/>
        <pt x="1115" y="383" on="0"/>
        <pt x="1115" y="305" on="1"/>
        <pt x="1115" y="0" on="1"/>
        <pt x="1019" y="0" on="1"/>
        <pt x="1019" y="294" on="1"/>
        <pt x="1019" y="371" on="0"/>
        <pt x="944" y="449" on="0"/>
        <pt x="875" y="449" on="1"/>
        <pt x="825" y="449" on="0"/>
        <pt x="749" y="409" on="0"/>
        <pt x="708" y="331" on="0"/>
        <pt x="708" y="273" on="1"/>
        <pt x="708" y="0" on="1"/>
        <pt x="612" y="0" on="1"/>
        <pt x="612" y="700" on="1"/>
        <pt x="708" y="700" on="1"/>
        <pt x="708" y="387" on="1"/>
        <pt x="688" y="425" on="1"/>
        <pt x="715" y="477" on="0"/>
        <pt x="822" y="535" on="0"/>
      </contour>
    </TTGlyph>
    <TTGlyph name="Tbar" xMin="4" yMin="0" xMax="583" yMax="700">
      <component glyphName="T" x="0" y="0" flags="0x604"/>
      <component glyphName="uni0335.case" x="-7" y="-17" flags="0x4"/>
    </TTGlyph>
    <TTGlyph name="Tbar.ss01" xMin="-4" yMin="0" xMax="602" yMax="708">
      <component glyphName="T.ss01" x="0" y="0" flags="0x604"/>
      <component glyphName="uni0335.case" x="-2" y="-26" flags="0x4"/>
    </TTGlyph>
    <TTGlyph name="Tcaron" xMin="4" yMin="0" xMax="583" yMax="887">
      <component glyphName="T" x="0" y="0" flags="0x604"/>
      <component glyphName="uni030C.case" x="-7" y="0" flags="0x4"/>
    </TTGlyph>
    <TTGlyph name="Tcaron.ss01" xMin="-4" yMin="0" xMax="602" yMax="887">
      <component glyphName="T.ss01" x="0" y="0" flags="0x604"/>
      <component glyphName="uni030C.case" x="1" y="0" flags="0x4"/>
    </TTGlyph>
    <TTGlyph name="Thorn" xMin="105" yMin="0" xMax="670" yMax="700">
      <contour>
        <pt x="181" y="125" on="1" overlap="1"/>
        <pt x="181" y="211" on="1"/>
        <pt x="375" y="211" on="1"/>
        <pt x="471" y="211" on="0"/>
        <pt x="570" y="294" on="0"/>
        <pt x="570" y="369" on="1"/>
        <pt x="570" y="445" on="0"/>
        <pt x="471" y="527" on="0"/>
        <pt x="375" y="527" on="1"/>
        <pt x="181" y="527" on="1"/>
        <pt x="181" y="614" on="1"/>
        <pt x="378" y="614" on="1"/>
        <pt x="470" y="614" on="0"/>
        <pt x="600" y="555" on="0"/>
        <pt x="670" y="446" on="0"/>
        <pt x="670" y="370" on="1"/>
        <pt x="670" y="294" on="0"/>
        <pt x="600" y="183" on="0"/>
        <pt x="470" y="125" on="0"/>
        <pt x="378" y="125" on="1"/>
      </contour>
      <contour>
        <pt x="105" y="0" on="1"/>
        <pt x="105" y="700" on="1"/>
        <pt x="205" y="700" on="1"/>
        <pt x="205" y="0" on="1"/>
      </contour>
    </TTGlyph>
    <TTGlyph name="U" xMin="99" yMin="-8" xMax="691" yMax="700">
      <contour>
        <pt x="395" y="-8" on="1" overlap="1"/>
        <pt x="257" y="-8" on="0"/>
        <pt x="99" y="150" on="0"/>
        <pt x="99" y="302" on="1"/>
        <pt x="99" y="700" on="1"/>
        <pt x="199" y="700" on="1"/>
        <pt x="199" y="306" on="1"/>
        <pt x="199" y="189" on="0"/>
        <pt x="302" y="81" on="0"/>
        <pt x="396" y="81" on="1"/>
        <pt x="491" y="81" on="0"/>
        <pt x="594" y="189" on="0"/>
        <pt x="594" y="306" on="1"/>
        <pt x="594" y="700" on="1"/>
        <pt x="691" y="700" on="1"/>
        <pt x="691" y="302" on="1"/>
        <pt x="691" y="150" on="0"/>
        <pt x="534" y="-8" on="0"/>
      </contour>
    </TTGlyph>
    <TTGlyph name="U.ss01" xMin="99" yMin="-8" xMax="689" yMax="700">
      <contour>
        <pt x="365" y="-8" on="1" overlap="1"/>
        <pt x="242" y="-8" on="0"/>
        <pt x="99" y="143" on="0"/>
        <pt x="99" y="285" on="1"/>
        <pt x="99" y="700" on="1"/>
        <pt x="199" y="700" on="1"/>
        <pt x="199" y="288" on="1"/>
        <pt x="199" y="184" on="0"/>
        <pt x="301" y="81" on="0"/>
        <pt x="386" y="81" on="1"/>
        <pt x="477" y="81" on="0"/>
        <pt x="590" y="190" on="0"/>
        <pt x="590" y="303" on="1"/>
        <pt x="590" y="700" on="1"/>
        <pt x="689" y="700" on="1"/>
        <pt x="689" y="0" on="1"/>
        <pt x="593" y="0" on="1"/>
        <pt x="593" y="171" on="1"/>
        <pt x="621" y="155" on="1"/>
        <pt x="589" y="70" on="0"/>
        <pt x="457" y="-8" on="0"/>
      </contour>
    </TTGlyph>
    <TTGlyph name="Uacute" xMin="99" yMin="-8" xMax="691" yMax="887">
      <component glyphName="U" x="0" y="0" flags="0x604"/>
      <component glyphName="acutecomb.case" x="96" y="0" flags="0x4"/>
    </TTGlyph>
    <TTGlyph name="Uacute.ss01" xMin="99" yMin="-8" xMax="689" yMax="887">
      <component glyphName="U.ss01" x="0" y="0" flags="0x604"/>
      <component glyphName="acutecomb.case" x="92" y="0" flags="0x4"/>
    </TTGlyph>
    <TTGlyph name="Ubreve" xMin="99" yMin="-8" xMax="691" yMax="887">
      <component glyphName="U" x="0" y="0" flags="0x604"/>
      <component glyphName="uni0306.case" x="96" y="0" flags="0x4"/>
    </TTGlyph>
    <TTGlyph name="Ubreve.ss01" xMin="99" yMin="-8" xMax="689" yMax="887">
      <component glyphName="U.ss01" x="0" y="0" flags="0x604"/>
      <component glyphName="uni0306.case" x="92" y="0" flags="0x4"/>
    </TTGlyph>
    <TTGlyph name="Ucircumflex" xMin="99" yMin="-8" xMax="691" yMax="887">
      <component glyphName="U" x="0" y="0" flags="0x604"/>
      <component glyphName="uni0302.case" x="96" y="0" flags="0x4"/>
    </TTGlyph>
    <TTGlyph name="Ucircumflex.ss01" xMin="99" yMin="-8" xMax="689" yMax="887">
      <component glyphName="U.ss01" x="0" y="0" flags="0x604"/>
      <component glyphName="uni0302.case" x="92" y="0" flags="0x4"/>
    </TTGlyph>
    <TTGlyph name="Udieresis" xMin="99" yMin="-8" xMax="691" yMax="877">
      <component glyphName="U" x="0" y="0" flags="0x604"/>
      <component glyphName="uni0308.case" x="96" y="0" flags="0x4"/>
    </TTGlyph>
    <TTGlyph name="Udieresis.ss01" xMin="99" yMin="-8" xMax="689" yMax="877">
      <component glyphName="U.ss01" x="0" y="0" flags="0x604"/>
      <component glyphName="uni0308.case" x="92" y="0" flags="0x4"/>
    </TTGlyph>
    <TTGlyph name="Ugrave" xMin="99" yMin="-8" xMax="691" yMax="887">
      <component glyphName="U" x="0" y="0" flags="0x604"/>
      <component glyphName="gravecomb.case" x="96" y="0" flags="0x4"/>
    </TTGlyph>
    <TTGlyph name="Ugrave.ss01" xMin="99" yMin="-8" xMax="689" yMax="887">
      <component glyphName="U.ss01" x="0" y="0" flags="0x604"/>
      <component glyphName="gravecomb.case" x="92" y="0" flags="0x4"/>
    </TTGlyph>
    <TTGlyph name="Uhorn" xMin="99" yMin="-8" xMax="793" yMax="852">
      <component glyphName="U" x="0" y="0" flags="0x604"/>
      <component glyphName="uni031B" x="360" y="170" flags="0x4"/>
    </TTGlyph>
    <TTGlyph name="Uhorn.ss01" xMin="99" yMin="-8" xMax="787" yMax="852">
      <component glyphName="U.ss01" x="0" y="0" flags="0x604"/>
      <component glyphName="uni031B" x="354" y="170" flags="0x4"/>
    </TTGlyph>
    <TTGlyph name="Uhungarumlaut" xMin="99" yMin="-8" xMax="691" yMax="887">
      <component glyphName="U" x="0" y="0" flags="0x604"/>
      <component glyphName="uni030B.case" x="96" y="0" flags="0x4"/>
    </TTGlyph>
    <TTGlyph name="Uhungarumlaut.ss01" xMin="99" yMin="-8" xMax="689" yMax="887">
      <component glyphName="U.ss01" x="0" y="0" flags="0x604"/>
      <component glyphName="uni030B.case" x="92" y="0" flags="0x4"/>
    </TTGlyph>
    <TTGlyph name="Umacron" xMin="99" yMin="-8" xMax="691" yMax="852">
      <component glyphName="U" x="0" y="0" flags="0x604"/>
      <component glyphName="uni0304.case" x="96" y="0" flags="0x4"/>
    </TTGlyph>
    <TTGlyph name="Umacron.ss01" xMin="99" yMin="-8" xMax="689" yMax="852">
      <component glyphName="U.ss01" x="0" y="0" flags="0x604"/>
      <component glyphName="uni0304.case" x="92" y="0" flags="0x4"/>
    </TTGlyph>
    <TTGlyph name="Uogonek" xMin="99" yMin="-224" xMax="691" yMax="700">
      <contour>
        <pt x="594" y="700" on="1" overlap="1"/>
        <pt x="691" y="700" on="1"/>
        <pt x="691" y="302" on="1"/>
        <pt x="691" y="180" on="0"/>
        <pt x="593" y="38" on="0"/>
        <pt x="510" y="8" on="1"/>
        <pt x="451" y="-13" on="0"/>
        <pt x="389" y="-56" on="0"/>
        <pt x="366" y="-97" on="0"/>
        <pt x="366" y="-116" on="1"/>
        <pt x="366" y="-141" on="0"/>
        <pt x="401" y="-168" on="0"/>
        <pt x="428" y="-168" on="1"/>
        <pt x="444" y="-168" on="0"/>
        <pt x="477" y="-158" on="0"/>
        <pt x="489" y="-151" on="1"/>
        <pt x="508" y="-200" on="1"/>
        <pt x="489" y="-211" on="0"/>
        <pt x="443" y="-224" on="0"/>
        <pt x="418" y="-224" on="1"/>
        <pt x="362" y="-224" on="0"/>
        <pt x="298" y="-168" on="0"/>
        <pt x="298" y="-123" on="1"/>
        <pt x="298" y="-96" on="0"/>
        <pt x="325" y="-41" on="0"/>
        <pt x="387" y="11" on="0"/>
        <pt x="441" y="32" on="1"/>
        <pt x="438" y="-6" on="1"/>
        <pt x="428" y="-7" on="0"/>
        <pt x="406" y="-8" on="0"/>
        <pt x="395" y="-8" on="1"/>
        <pt x="257" y="-8" on="0"/>
        <pt x="99" y="150" on="0"/>
        <pt x="99" y="302" on="1"/>
        <pt x="99" y="700" on="1"/>
        <pt x="199" y="700" on="1"/>
        <pt x="199" y="306" on="1"/>
        <pt x="199" y="189" on="0"/>
        <pt x="302" y="81" on="0"/>
        <pt x="396" y="81" on="1"/>
        <pt x="491" y="81" on="0"/>
        <pt x="594" y="189" on="0"/>
        <pt x="594" y="306" on="1"/>
      </contour>
    </TTGlyph>
    <TTGlyph name="Uogonek.ss01" xMin="99" yMin="-224" xMax="711" yMax="700">
      <component glyphName="U.ss01" x="0" y="0" flags="0x604"/>
      <component glyphName="uni0328" x="388" y="0" flags="0x4"/>
    </TTGlyph>
    <TTGlyph name="Uring" xMin="99" yMin="-8" xMax="691" yMax="982">
      <component glyphName="U" x="0" y="0" flags="0x604"/>
      <component glyphName="uni030A" x="96" y="170" flags="0x4"/>
    </TTGlyph>
    <TTGlyph name="Uring.ss01" xMin="99" yMin="-8" xMax="689" yMax="982">
      <component glyphName="U.ss01" x="0" y="0" flags="0x604"/>
      <component glyphName="uni030A" x="92" y="170" flags="0x4"/>
    </TTGlyph>
    <TTGlyph name="Ustraitcy" xMin="7" yMin="0" xMax="661" yMax="700">
      <contour>
        <pt x="284" y="0" on="1" overlap="1"/>
        <pt x="284" y="268" on="1"/>
        <pt x="307" y="206" on="1"/>
        <pt x="7" y="700" on="1"/>
        <pt x="113" y="700" on="1"/>
        <pt x="366" y="283" on="1"/>
        <pt x="308" y="283" on="1"/>
        <pt x="562" y="700" on="1"/>
        <pt x="661" y="700" on="1"/>
        <pt x="361" y="206" on="1"/>
        <pt x="383" y="268" on="1"/>
        <pt x="383" y="0" on="1"/>
      </contour>
    </TTGlyph>
    <TTGlyph name="Ustraitstrokecy" xMin="7" yMin="0" xMax="661" yMax="700">
      <contour>
        <pt x="117" y="216" on="1" overlap="1"/>
        <pt x="117" y="284" on="1"/>
        <pt x="545" y="284" on="1"/>
        <pt x="545" y="216" on="1"/>
      </contour>
      <contour>
        <pt x="284" y="0" on="1"/>
        <pt x="284" y="268" on="1"/>
        <pt x="307" y="206" on="1"/>
        <pt x="7" y="700" on="1"/>
        <pt x="113" y="700" on="1"/>
        <pt x="366" y="283" on="1"/>
        <pt x="308" y="283" on="1"/>
        <pt x="562" y="700" on="1"/>
        <pt x="661" y="700" on="1"/>
        <pt x="361" y="206" on="1"/>
        <pt x="383" y="268" on="1"/>
        <pt x="383" y="0" on="1"/>
      </contour>
    </TTGlyph>
    <TTGlyph name="Utilde" xMin="99" yMin="-8" xMax="691" yMax="887">
      <component glyphName="U" x="0" y="0" flags="0x604"/>
      <component glyphName="tildecomb.case" x="96" y="0" flags="0x4"/>
    </TTGlyph>
    <TTGlyph name="Utilde.ss01" xMin="99" yMin="-8" xMax="689" yMax="887">
      <component glyphName="U.ss01" x="0" y="0" flags="0x604"/>
      <component glyphName="tildecomb.case" x="92" y="0" flags="0x4"/>
    </TTGlyph>
    <TTGlyph name="V" xMin="-1" yMin="0" xMax="713" yMax="700">
      <contour>
        <pt x="307" y="0" on="1" overlap="1"/>
        <pt x="-1" y="700" on="1"/>
        <pt x="107" y="700" on="1"/>
        <pt x="390" y="54" on="1"/>
        <pt x="328" y="54" on="1"/>
        <pt x="613" y="700" on="1"/>
        <pt x="713" y="700" on="1"/>
        <pt x="406" y="0" on="1"/>
      </contour>
    </TTGlyph>
    <TTGlyph name="W" xMin="32" yMin="0" xMax="1094" yMax="700">
      <contour>
        <pt x="266" y="0" on="1" overlap="1"/>
        <pt x="32" y="700" on="1"/>
        <pt x="135" y="700" on="1"/>
        <pt x="350" y="54" on="1"/>
        <pt x="298" y="54" on="1"/>
        <pt x="521" y="700" on="1"/>
        <pt x="613" y="700" on="1"/>
        <pt x="831" y="54" on="1"/>
        <pt x="781" y="54" on="1"/>
        <pt x="999" y="700" on="1"/>
        <pt x="1094" y="700" on="1"/>
        <pt x="860" y="0" on="1"/>
        <pt x="755" y="0" on="1"/>
        <pt x="551" y="599" on="1"/>
        <pt x="578" y="599" on="1"/>
        <pt x="373" y="0" on="1"/>
      </contour>
    </TTGlyph>
    <TTGlyph name="W.ss01" xMin="99" yMin="-8" xMax="1091" yMax="700">
      <contour>
        <pt x="370" y="-8" on="1" overlap="1"/>
        <pt x="241" y="-8" on="0"/>
        <pt x="99" y="136" on="0"/>
        <pt x="99" y="279" on="1"/>
        <pt x="99" y="700" on="1"/>
        <pt x="199" y="700" on="1"/>
        <pt x="199" y="282" on="1"/>
        <pt x="199" y="175" on="0"/>
        <pt x="290" y="81" on="0"/>
        <pt x="370" y="81" on="1"/>
        <pt x="451" y="81" on="0"/>
        <pt x="545" y="175" on="0"/>
        <pt x="545" y="282" on="1"/>
        <pt x="545" y="700" on="1"/>
        <pt x="645" y="700" on="1"/>
        <pt x="645" y="282" on="1"/>
        <pt x="645" y="175" on="0"/>
        <pt x="739" y="81" on="0"/>
        <pt x="819" y="81" on="1"/>
        <pt x="899" y="81" on="0"/>
        <pt x="991" y="175" on="0"/>
        <pt x="991" y="282" on="1"/>
        <pt x="991" y="700" on="1"/>
        <pt x="1091" y="700" on="1"/>
        <pt x="1091" y="279" on="1"/>
        <pt x="1091" y="136" on="0"/>
        <pt x="948" y="-8" on="0"/>
        <pt x="819" y="-8" on="1"/>
        <pt x="728" y="-8" on="0"/>
        <pt x="602" y="65" on="0"/>
        <pt x="578" y="126" on="1"/>
        <pt x="611" y="126" on="1"/>
        <pt x="586" y="65" on="0"/>
        <pt x="463" y="-8" on="0"/>
      </contour>
    </TTGlyph>
    <TTGlyph name="Wacute" xMin="32" yMin="0" xMax="1094" yMax="887">
      <component glyphName="W" x="0" y="0" flags="0x604"/>
      <component glyphName="acutecomb.case" x="264" y="0" flags="0x4"/>
    </TTGlyph>
    <TTGlyph name="Wacute.ss01" xMin="99" yMin="-8" xMax="1091" yMax="887">
      <component glyphName="W.ss01" x="0" y="0" flags="0x604"/>
      <component glyphName="acutecomb.case" x="294" y="0" flags="0x4"/>
    </TTGlyph>
    <TTGlyph name="Wcircumflex" xMin="32" yMin="0" xMax="1094" yMax="887">
      <component glyphName="W" x="0" y="0" flags="0x604"/>
      <component glyphName="uni0302.case" x="264" y="0" flags="0x4"/>
    </TTGlyph>
    <TTGlyph name="Wcircumflex.ss01" xMin="99" yMin="-8" xMax="1091" yMax="887">
      <component glyphName="W.ss01" x="0" y="0" flags="0x604"/>
      <component glyphName="uni0302.case" x="294" y="0" flags="0x4"/>
    </TTGlyph>
    <TTGlyph name="Wdieresis" xMin="32" yMin="0" xMax="1094" yMax="877">
      <component glyphName="W" x="0" y="0" flags="0x604"/>
      <component glyphName="uni0308.case" x="264" y="0" flags="0x4"/>
    </TTGlyph>
    <TTGlyph name="Wdieresis.ss01" xMin="99" yMin="-8" xMax="1091" yMax="877">
      <component glyphName="W.ss01" x="0" y="0" flags="0x604"/>
      <component glyphName="uni0308.case" x="294" y="0" flags="0x4"/>
    </TTGlyph>
    <TTGlyph name="Wgrave" xMin="32" yMin="0" xMax="1094" yMax="887">
      <component glyphName="W" x="0" y="0" flags="0x604"/>
      <component glyphName="gravecomb.case" x="264" y="0" flags="0x4"/>
    </TTGlyph>
    <TTGlyph name="Wgrave.ss01" xMin="99" yMin="-8" xMax="1091" yMax="887">
      <component glyphName="W.ss01" x="0" y="0" flags="0x604"/>
      <component glyphName="gravecomb.case" x="294" y="0" flags="0x4"/>
    </TTGlyph>
    <TTGlyph name="X" xMin="13" yMin="0" xMax="660" yMax="700">
      <contour>
        <pt x="13" y="0" on="1" overlap="1"/>
        <pt x="304" y="397" on="1"/>
        <pt x="304" y="320" on="1"/>
        <pt x="29" y="700" on="1"/>
        <pt x="143" y="700" on="1"/>
        <pt x="361" y="401" on="1"/>
        <pt x="316" y="400" on="1"/>
        <pt x="533" y="700" on="1"/>
        <pt x="642" y="700" on="1"/>
        <pt x="369" y="326" on="1"/>
        <pt x="369" y="398" on="1"/>
        <pt x="660" y="0" on="1"/>
        <pt x="545" y="0" on="1"/>
        <pt x="313" y="319" on="1"/>
        <pt x="357" y="319" on="1"/>
        <pt x="128" y="0" on="1"/>
      </contour>
    </TTGlyph>
    <TTGlyph name="Y" xMin="-4" yMin="0" xMax="651" yMax="700">
      <contour>
        <pt x="274" y="0" on="1" overlap="1"/>
        <pt x="274" y="268" on="1"/>
        <pt x="297" y="206" on="1"/>
        <pt x="-4" y="700" on="1"/>
        <pt x="103" y="700" on="1"/>
        <pt x="356" y="283" on="1"/>
        <pt x="298" y="283" on="1"/>
        <pt x="552" y="700" on="1"/>
        <pt x="651" y="700" on="1"/>
        <pt x="351" y="206" on="1"/>
        <pt x="373" y="268" on="1"/>
        <pt x="373" y="0" on="1"/>
      </contour>
    </TTGlyph>
    <TTGlyph name="Y.ss01" xMin="94" yMin="-106" xMax="688" yMax="700">
      <contour>
        <pt x="383" y="-106" on="1" overlap="1"/>
        <pt x="295" y="-106" on="0"/>
        <pt x="155" y="-51" on="0"/>
        <pt x="108" y="-4" on="1"/>
        <pt x="151" y="74" on="1"/>
        <pt x="197" y="29" on="0"/>
        <pt x="312" y="-16" on="0"/>
        <pt x="383" y="-16" on="1"/>
        <pt x="483" y="-16" on="0"/>
        <pt x="589" y="92" on="0"/>
        <pt x="589" y="204" on="1"/>
        <pt x="589" y="346" on="1"/>
        <pt x="620" y="335" on="1"/>
        <pt x="588" y="250" on="0"/>
        <pt x="459" y="173" on="0"/>
        <pt x="372" y="173" on="1"/>
        <pt x="242" y="173" on="0"/>
        <pt x="94" y="324" on="0"/>
        <pt x="94" y="466" on="1"/>
        <pt x="94" y="700" on="1"/>
        <pt x="194" y="700" on="1"/>
        <pt x="194" y="470" on="1"/>
        <pt x="194" y="366" on="0"/>
        <pt x="296" y="262" on="0"/>
        <pt x="383" y="262" on="1"/>
        <pt x="476" y="262" on="0"/>
        <pt x="589" y="371" on="0"/>
        <pt x="589" y="485" on="1"/>
        <pt x="589" y="700" on="1"/>
        <pt x="688" y="700" on="1"/>
        <pt x="688" y="208" on="1"/>
        <pt x="688" y="105" on="0"/>
        <pt x="614" y="-34" on="0"/>
        <pt x="477" y="-106" on="0"/>
      </contour>
    </TTGlyph>
    <TTGlyph name="Yacute" xMin="-4" yMin="0" xMax="651" yMax="887">
      <component glyphName="Y" x="0" y="0" flags="0x604"/>
      <component glyphName="acutecomb.case" x="24" y="0" flags="0x4"/>
    </TTGlyph>
    <TTGlyph name="Yacute.ss01" xMin="94" yMin="-106" xMax="688" yMax="887">
      <component glyphName="Y.ss01" x="0" y="0" flags="0x604"/>
      <component glyphName="acutecomb.case" x="91" y="0" flags="0x4"/>
    </TTGlyph>
    <TTGlyph name="Ycircumflex" xMin="-4" yMin="0" xMax="651" yMax="887">
      <component glyphName="Y" x="0" y="0" flags="0x604"/>
      <component glyphName="uni0302.case" x="24" y="0" flags="0x4"/>
    </TTGlyph>
    <TTGlyph name="Ycircumflex.ss01" xMin="94" yMin="-106" xMax="688" yMax="887">
      <component glyphName="Y.ss01" x="0" y="0" flags="0x604"/>
      <component glyphName="uni0302.case" x="91" y="0" flags="0x4"/>
    </TTGlyph>
    <TTGlyph name="Ydieresis" xMin="-4" yMin="0" xMax="651" yMax="877">
      <component glyphName="Y" x="0" y="0" flags="0x604"/>
      <component glyphName="uni0308.case" x="24" y="0" flags="0x4"/>
    </TTGlyph>
    <TTGlyph name="Ydieresis.ss01" xMin="94" yMin="-106" xMax="688" yMax="877">
      <component glyphName="Y.ss01" x="0" y="0" flags="0x604"/>
      <component glyphName="uni0308.case" x="91" y="0" flags="0x4"/>
    </TTGlyph>
    <TTGlyph name="Ygrave" xMin="-4" yMin="0" xMax="651" yMax="887">
      <component glyphName="Y" x="0" y="0" flags="0x604"/>
      <component glyphName="gravecomb.case" x="24" y="0" flags="0x4"/>
    </TTGlyph>
    <TTGlyph name="Ygrave.ss01" xMin="94" yMin="-106" xMax="688" yMax="887">
      <component glyphName="Y.ss01" x="0" y="0" flags="0x604"/>
      <component glyphName="gravecomb.case" x="91" y="0" flags="0x4"/>
    </TTGlyph>
    <TTGlyph name="Z" xMin="43" yMin="0" xMax="628" yMax="700">
      <contour>
        <pt x="43" y="0" on="1" overlap="1"/>
        <pt x="43" y="68" on="1"/>
        <pt x="514" y="652" on="1"/>
        <pt x="525" y="613" on="1"/>
        <pt x="50" y="613" on="1"/>
        <pt x="50" y="700" on="1"/>
        <pt x="615" y="700" on="1"/>
        <pt x="615" y="632" on="1"/>
        <pt x="146" y="48" on="1"/>
        <pt x="134" y="87" on="1"/>
        <pt x="628" y="87" on="1"/>
        <pt x="628" y="0" on="1"/>
      </contour>
    </TTGlyph>
    <TTGlyph name="Z.ss01" xMin="48" yMin="0" xMax="633" yMax="700">
      <contour>
        <pt x="48" y="0" on="1" overlap="1"/>
        <pt x="48" y="62" on="1"/>
        <pt x="516" y="652" on="1"/>
        <pt x="527" y="613" on="1"/>
        <pt x="52" y="613" on="1"/>
        <pt x="52" y="700" on="1"/>
        <pt x="618" y="700" on="1"/>
        <pt x="618" y="639" on="1"/>
        <pt x="151" y="48" on="1"/>
        <pt x="139" y="87" on="1"/>
        <pt x="633" y="87" on="1"/>
        <pt x="633" y="0" on="1"/>
      </contour>
      <contour>
        <pt x="108" y="315" on="1"/>
        <pt x="108" y="398" on="1"/>
        <pt x="351" y="398" on="1"/>
        <pt x="378" y="396" on="1"/>
        <pt x="556" y="396" on="1"/>
        <pt x="556" y="313" on="1"/>
        <pt x="329" y="313" on="1"/>
        <pt x="302" y="315" on="1"/>
      </contour>
    </TTGlyph>
    <TTGlyph name="Zacute" xMin="43" yMin="0" xMax="628" yMax="887">
      <component glyphName="Z" x="0" y="0" flags="0x604"/>
      <component glyphName="acutecomb.case" x="36" y="0" flags="0x4"/>
    </TTGlyph>
    <TTGlyph name="Zacute.ss01" xMin="48" yMin="0" xMax="633" yMax="887">
      <component glyphName="Z.ss01" x="0" y="0" flags="0x604"/>
      <component glyphName="acutecomb.case" x="38" y="0" flags="0x4"/>
    </TTGlyph>
    <TTGlyph name="Zcaron" xMin="43" yMin="0" xMax="628" yMax="887">
      <component glyphName="Z" x="0" y="0" flags="0x604"/>
      <component glyphName="uni030C.case" x="36" y="0" flags="0x4"/>
    </TTGlyph>
    <TTGlyph name="Zcaron.ss01" xMin="48" yMin="0" xMax="633" yMax="887">
      <component glyphName="Z.ss01" x="0" y="0" flags="0x604"/>
      <component glyphName="uni030C.case" x="38" y="0" flags="0x4"/>
    </TTGlyph>
    <TTGlyph name="Zdotaccent" xMin="43" yMin="0" xMax="628" yMax="893">
      <component glyphName="Z" x="0" y="0" flags="0x604"/>
      <component glyphName="uni0307.case" x="36" y="0" flags="0x4"/>
    </TTGlyph>
    <TTGlyph name="Zdotaccent.ss01" xMin="48" yMin="0" xMax="633" yMax="893">
      <component glyphName="Z.ss01" x="0" y="0" flags="0x604"/>
      <component glyphName="uni0307.case" x="38" y="0" flags="0x4"/>
    </TTGlyph>
    <TTGlyph name="a" xMin="50" yMin="-6" xMax="511" yMax="535">
      <contour>
        <pt x="420" y="0" on="1" overlap="1"/>
        <pt x="420" y="112" on="1"/>
        <pt x="415" y="133" on="1"/>
        <pt x="415" y="324" on="1"/>
        <pt x="415" y="385" on="0"/>
        <pt x="344" y="452" on="0"/>
        <pt x="273" y="452" on="1"/>
        <pt x="226" y="452" on="0"/>
        <pt x="136" y="421" on="0"/>
        <pt x="105" y="395" on="1"/>
        <pt x="65" y="467" on="1"/>
        <pt x="106" y="500" on="0"/>
        <pt x="221" y="535" on="0"/>
        <pt x="284" y="535" on="1"/>
        <pt x="393" y="535" on="0"/>
        <pt x="511" y="429" on="0"/>
        <pt x="511" y="320" on="1"/>
        <pt x="511" y="0" on="1"/>
      </contour>
      <contour>
        <pt x="246" y="-6" on="1"/>
        <pt x="187" y="-6" on="0"/>
        <pt x="98" y="34" on="0"/>
        <pt x="50" y="105" on="0"/>
        <pt x="50" y="150" on="1"/>
        <pt x="50" y="193" on="0"/>
        <pt x="91" y="263" on="0"/>
        <pt x="184" y="305" on="0"/>
        <pt x="263" y="305" on="1"/>
        <pt x="431" y="305" on="1"/>
        <pt x="431" y="236" on="1"/>
        <pt x="267" y="236" on="1"/>
        <pt x="195" y="236" on="0"/>
        <pt x="145" y="188" on="0"/>
        <pt x="145" y="154" on="1"/>
        <pt x="145" y="115" on="0"/>
        <pt x="207" y="68" on="0"/>
        <pt x="262" y="68" on="1"/>
        <pt x="316" y="68" on="0"/>
        <pt x="397" y="116" on="0"/>
        <pt x="415" y="162" on="1"/>
        <pt x="434" y="96" on="1"/>
        <pt x="415" y="49" on="0"/>
        <pt x="319" y="-6" on="0"/>
      </contour>
    </TTGlyph>
    <TTGlyph name="a.sc" xMin="-1" yMin="0" xMax="616" yMax="568">
      <contour>
        <pt x="-1" y="0" on="1" overlap="1"/>
        <pt x="259" y="568" on="1"/>
        <pt x="355" y="568" on="1"/>
        <pt x="616" y="0" on="1"/>
        <pt x="518" y="0" on="1"/>
        <pt x="291" y="517" on="1"/>
        <pt x="324" y="517" on="1"/>
        <pt x="94" y="0" on="1"/>
      </contour>
      <contour>
        <pt x="118" y="135" on="1"/>
        <pt x="144" y="212" on="1"/>
        <pt x="456" y="212" on="1"/>
        <pt x="482" y="135" on="1"/>
      </contour>
    </TTGlyph>
    <TTGlyph name="a.sc.ss01" xMin="91" yMin="0" xMax="596" yMax="576">
      <contour>
        <pt x="91" y="0" on="1" overlap="1"/>
        <pt x="91" y="316" on="1"/>
        <pt x="91" y="401" on="0"/>
        <pt x="154" y="517" on="0"/>
        <pt x="269" y="576" on="0"/>
        <pt x="344" y="576" on="1"/>
        <pt x="419" y="576" on="0"/>
        <pt x="533" y="517" on="0"/>
        <pt x="596" y="401" on="0"/>
        <pt x="596" y="316" on="1"/>
        <pt x="596" y="0" on="1"/>
        <pt x="499" y="0" on="1"/>
        <pt x="499" y="329" on="1"/>
        <pt x="499" y="411" on="0"/>
        <pt x="416" y="492" on="0"/>
        <pt x="343" y="492" on="1"/>
        <pt x="271" y="492" on="0"/>
        <pt x="188" y="411" on="0"/>
        <pt x="188" y="329" on="1"/>
        <pt x="188" y="0" on="1"/>
      </contour>
      <contour>
        <pt x="153" y="150" on="1"/>
        <pt x="153" y="231" on="1"/>
        <pt x="534" y="231" on="1"/>
        <pt x="534" y="150" on="1"/>
      </contour>
    </TTGlyph>
    <TTGlyph name="a.ss01" xMin="42" yMin="-6" xMax="591" yMax="535">
      <contour>
        <pt x="310" y="-6" on="1" overlap="1"/>
        <pt x="233" y="-6" on="0"/>
        <pt x="112" y="62" on="0"/>
        <pt x="42" y="184" on="0"/>
        <pt x="42" y="265" on="1"/>
        <pt x="42" y="346" on="0"/>
        <pt x="112" y="467" on="0"/>
        <pt x="233" y="535" on="0"/>
        <pt x="310" y="535" on="1"/>
        <pt x="377" y="535" on="0"/>
        <pt x="485" y="475" on="0"/>
        <pt x="550" y="355" on="0"/>
        <pt x="550" y="265" on="1"/>
        <pt x="550" y="175" on="0"/>
        <pt x="487" y="55" on="0"/>
        <pt x="379" y="-6" on="0"/>
      </contour>
      <contour>
        <pt x="318" y="78" on="1"/>
        <pt x="368" y="78" on="0"/>
        <pt x="449" y="124" on="0"/>
        <pt x="496" y="209" on="0"/>
        <pt x="496" y="265" on="1"/>
        <pt x="496" y="322" on="0"/>
        <pt x="449" y="405" on="0"/>
        <pt x="368" y="451" on="0"/>
        <pt x="318" y="451" on="1"/>
        <pt x="267" y="451" on="0"/>
        <pt x="187" y="405" on="0"/>
        <pt x="139" y="322" on="0"/>
        <pt x="139" y="265" on="1"/>
        <pt x="139" y="209" on="0"/>
        <pt x="187" y="124" on="0"/>
        <pt x="267" y="78" on="0"/>
      </contour>
      <contour>
        <pt x="499" y="0" on="1"/>
        <pt x="499" y="143" on="1"/>
        <pt x="505" y="266" on="1"/>
        <pt x="495" y="389" on="1"/>
        <pt x="495" y="530" on="1"/>
        <pt x="591" y="530" on="1"/>
        <pt x="591" y="0" on="1"/>
      </contour>
    </TTGlyph>
    <TTGlyph name="aacute" xMin="50" yMin="-6" xMax="511" yMax="737">
      <component glyphName="a" x="0" y="0" flags="0x604"/>
      <component glyphName="acutecomb" x="-9" y="0" flags="0x4"/>
    </TTGlyph>
    <TTGlyph name="aacute.sc" xMin="-1" yMin="0" xMax="616" yMax="776">
      <component glyphName="a.sc" x="0" y="0" flags="0x604"/>
      <component glyphName="acutecomb" x="7" y="39" flags="0x4"/>
    </TTGlyph>
    <TTGlyph name="aacute.sc.ss01" xMin="91" yMin="0" xMax="596" yMax="776">
      <component glyphName="a.sc.ss01" x="0" y="0" flags="0x604"/>
      <component glyphName="acutecomb" x="43" y="39" flags="0x4"/>
    </TTGlyph>
    <TTGlyph name="aacute.ss01" xMin="42" yMin="-6" xMax="591" yMax="737">
      <component glyphName="a.ss01" x="0" y="0" flags="0x604"/>
      <component glyphName="acutecomb" x="35" y="0" flags="0x4"/>
    </TTGlyph>
    <TTGlyph name="abreve" xMin="50" yMin="-6" xMax="511" yMax="737">
      <component glyphName="a" x="0" y="0" flags="0x604"/>
      <component glyphName="uni0306" x="-9" y="0" flags="0x4"/>
    </TTGlyph>
    <TTGlyph name="abreve.sc" xMin="-1" yMin="0" xMax="616" yMax="776">
      <component glyphName="a.sc" x="0" y="0" flags="0x604"/>
      <component glyphName="uni0306" x="7" y="39" flags="0x4"/>
    </TTGlyph>
    <TTGlyph name="abreve.sc.ss01" xMin="91" yMin="0" xMax="596" yMax="776">
      <component glyphName="a.sc.ss01" x="0" y="0" flags="0x604"/>
      <component glyphName="uni0306" x="43" y="39" flags="0x4"/>
    </TTGlyph>
    <TTGlyph name="abreve.ss01" xMin="42" yMin="-6" xMax="591" yMax="737">
      <component glyphName="a.ss01" x="0" y="0" flags="0x604"/>
      <component glyphName="uni0306" x="35" y="0" flags="0x4"/>
    </TTGlyph>
    <TTGlyph name="acircumflex" xMin="50" yMin="-6" xMax="511" yMax="737">
      <component glyphName="a" x="0" y="0" flags="0x604"/>
      <component glyphName="uni0302" x="-9" y="0" flags="0x4"/>
    </TTGlyph>
    <TTGlyph name="acircumflex.sc" xMin="-1" yMin="0" xMax="616" yMax="776">
      <component glyphName="a.sc" x="0" y="0" flags="0x604"/>
      <component glyphName="uni0302" x="7" y="39" flags="0x4"/>
    </TTGlyph>
    <TTGlyph name="acircumflex.sc.ss01" xMin="91" yMin="0" xMax="596" yMax="776">
      <component glyphName="a.sc.ss01" x="0" y="0" flags="0x604"/>
      <component glyphName="uni0302" x="43" y="39" flags="0x4"/>
    </TTGlyph>
    <TTGlyph name="acircumflex.ss01" xMin="42" yMin="-6" xMax="591" yMax="737">
      <component glyphName="a.ss01" x="0" y="0" flags="0x604"/>
      <component glyphName="uni0302" x="35" y="0" flags="0x4"/>
    </TTGlyph>
    <TTGlyph name="acute" xMin="225" yMin="607" xMax="483" yMax="737">
      <component glyphName="acutecomb" x="0" y="0" flags="0x404"/>
    </TTGlyph>
    <TTGlyph name="acutecomb" xMin="225" yMin="607" xMax="483" yMax="737">
      <contour>
        <pt x="225" y="607" on="1" overlap="1"/>
        <pt x="361" y="737" on="1"/>
        <pt x="483" y="737" on="1"/>
        <pt x="315" y="607" on="1"/>
      </contour>
    </TTGlyph>
    <TTGlyph name="acutecomb.case" xMin="225" yMin="757" xMax="483" yMax="887">
      <component glyphName="acutecomb" x="0" y="150" flags="0x604"/>
    </TTGlyph>
    <TTGlyph name="acutecomb.loclVIET" xMin="231" yMin="607" xMax="458" yMax="720">
      <contour>
        <pt x="231" y="607" on="1" overlap="1"/>
        <pt x="349" y="720" on="1"/>
        <pt x="458" y="720" on="1"/>
        <pt x="310" y="607" on="1"/>
      </contour>
    </TTGlyph>
    <TTGlyph name="adieresis" xMin="50" yMin="-6" xMax="511" yMax="727">
      <component glyphName="a" x="0" y="0" flags="0x604"/>
      <component glyphName="uni0308" x="-9" y="0" flags="0x4"/>
    </TTGlyph>
    <TTGlyph name="adieresis.sc" xMin="-1" yMin="0" xMax="616" yMax="765">
      <component glyphName="a.sc" x="0" y="0" flags="0x604"/>
      <component glyphName="uni0308" x="7" y="39" flags="0x4"/>
    </TTGlyph>
    <TTGlyph name="adieresis.sc.ss01" xMin="91" yMin="0" xMax="596" yMax="765">
      <component glyphName="a.sc.ss01" x="0" y="0" flags="0x604"/>
      <component glyphName="uni0308" x="43" y="39" flags="0x4"/>
    </TTGlyph>
    <TTGlyph name="adieresis.ss01" xMin="42" yMin="-6" xMax="591" yMax="727">
      <component glyphName="a.ss01" x="0" y="0" flags="0x604"/>
      <component glyphName="uni0308" x="35" y="0" flags="0x4"/>
    </TTGlyph>
    <TTGlyph name="ae" xMin="50" yMin="-6" xMax="947" yMax="535">
      <contour>
        <pt x="256" y="-6" on="1" overlap="1"/>
        <pt x="159" y="-6" on="0"/>
        <pt x="50" y="83" on="0"/>
        <pt x="50" y="154" on="1"/>
        <pt x="50" y="194" on="0"/>
        <pt x="91" y="262" on="0"/>
        <pt x="184" y="304" on="0"/>
        <pt x="263" y="304" on="1"/>
        <pt x="430" y="304" on="1"/>
        <pt x="430" y="235" on="1"/>
        <pt x="267" y="235" on="1"/>
        <pt x="196" y="235" on="0"/>
        <pt x="145" y="188" on="0"/>
        <pt x="145" y="156" on="1"/>
        <pt x="145" y="115" on="0"/>
        <pt x="208" y="68" on="0"/>
        <pt x="264" y="68" on="1"/>
        <pt x="335" y="68" on="0"/>
        <pt x="415" y="141" on="0"/>
        <pt x="415" y="201" on="1"/>
        <pt x="415" y="324" on="1"/>
        <pt x="415" y="385" on="0"/>
        <pt x="344" y="452" on="0"/>
        <pt x="274" y="452" on="1"/>
        <pt x="226" y="452" on="0"/>
        <pt x="136" y="421" on="0"/>
        <pt x="105" y="395" on="1"/>
        <pt x="65" y="467" on="1"/>
        <pt x="106" y="500" on="0"/>
        <pt x="221" y="535" on="0"/>
        <pt x="283" y="535" on="1"/>
        <pt x="375" y="535" on="0"/>
        <pt x="483" y="462" on="0"/>
        <pt x="498" y="391" on="1"/>
        <pt x="452" y="397" on="1"/>
        <pt x="483" y="461" on="0"/>
        <pt x="604" y="535" on="0"/>
        <pt x="683" y="535" on="1"/>
        <pt x="740" y="535" on="0"/>
        <pt x="837" y="496" on="0"/>
        <pt x="908" y="424" on="0"/>
        <pt x="947" y="326" on="0"/>
        <pt x="947" y="268" on="1"/>
        <pt x="947" y="258" on="0"/>
        <pt x="946" y="242" on="0"/>
        <pt x="944" y="235" on="1"/>
        <pt x="492" y="235" on="1"/>
        <pt x="492" y="304" on="1"/>
        <pt x="894" y="304" on="1"/>
        <pt x="854" y="278" on="1"/>
        <pt x="854" y="335" on="0"/>
        <pt x="806" y="413" on="0"/>
        <pt x="727" y="454" on="0"/>
        <pt x="682" y="454" on="1"/>
        <pt x="639" y="454" on="0"/>
        <pt x="560" y="413" on="0"/>
        <pt x="511" y="334" on="0"/>
        <pt x="511" y="276" on="1"/>
        <pt x="511" y="260" on="1"/>
        <pt x="511" y="207" on="0"/>
        <pt x="559" y="124" on="0"/>
        <pt x="646" y="78" on="0"/>
        <pt x="704" y="78" on="1"/>
        <pt x="751" y="78" on="0"/>
        <pt x="827" y="110" on="0"/>
        <pt x="857" y="142" on="1"/>
        <pt x="911" y="80" on="1"/>
        <pt x="874" y="37" on="0"/>
        <pt x="767" y="-6" on="0"/>
        <pt x="701" y="-6" on="1"/>
        <pt x="640" y="-6" on="0"/>
        <pt x="532" y="32" on="0"/>
        <pt x="452" y="112" on="0"/>
        <pt x="430" y="175" on="1"/>
        <pt x="492" y="173" on="1"/>
        <pt x="480" y="106" on="0"/>
        <pt x="407" y="27" on="0"/>
        <pt x="308" y="-6" on="0"/>
      </contour>
    </TTGlyph>
    <TTGlyph name="ae.sc" xMin="-1" yMin="0" xMax="829" yMax="568">
      <contour>
        <pt x="-1" y="0" on="1" overlap="1"/>
        <pt x="336" y="568" on="1"/>
        <pt x="434" y="568" on="1"/>
        <pt x="434" y="488" on="1"/>
        <pt x="349" y="488" on="1"/>
        <pt x="409" y="528" on="1"/>
        <pt x="99" y="0" on="1"/>
      </contour>
      <contour>
        <pt x="155" y="135" on="1"/>
        <pt x="161" y="212" on="1"/>
        <pt x="434" y="212" on="1"/>
        <pt x="434" y="135" on="1"/>
      </contour>
      <contour>
        <pt x="484" y="328" on="1"/>
        <pt x="781" y="328" on="1"/>
        <pt x="781" y="249" on="1"/>
        <pt x="484" y="249" on="1"/>
      </contour>
      <contour>
        <pt x="499" y="81" on="1"/>
        <pt x="829" y="81" on="1"/>
        <pt x="829" y="0" on="1"/>
        <pt x="402" y="0" on="1"/>
        <pt x="402" y="568" on="1"/>
        <pt x="818" y="568" on="1"/>
        <pt x="818" y="488" on="1"/>
        <pt x="499" y="488" on="1"/>
      </contour>
    </TTGlyph>
    <TTGlyph name="ae.sc.ss01" xMin="85" yMin="0" xMax="874" yMax="568">
      <contour>
        <pt x="446" y="0" on="1" overlap="1"/>
        <pt x="446" y="568" on="1"/>
        <pt x="862" y="568" on="1"/>
        <pt x="862" y="489" on="1"/>
        <pt x="542" y="489" on="1"/>
        <pt x="542" y="327" on="1"/>
        <pt x="826" y="327" on="1"/>
        <pt x="826" y="251" on="1"/>
        <pt x="542" y="251" on="1"/>
        <pt x="542" y="79" on="1"/>
        <pt x="874" y="79" on="1"/>
        <pt x="874" y="0" on="1"/>
      </contour>
      <contour>
        <pt x="144" y="158" on="1"/>
        <pt x="144" y="238" on="1"/>
        <pt x="492" y="238" on="1"/>
        <pt x="492" y="158" on="1"/>
      </contour>
      <contour>
        <pt x="85" y="0" on="1"/>
        <pt x="85" y="318" on="1"/>
        <pt x="85" y="438" on="0"/>
        <pt x="213" y="568" on="0"/>
        <pt x="331" y="568" on="1"/>
        <pt x="492" y="568" on="1"/>
        <pt x="492" y="484" on="1"/>
        <pt x="339" y="484" on="1"/>
        <pt x="260" y="484" on="0"/>
        <pt x="178" y="399" on="0"/>
        <pt x="178" y="315" on="1"/>
        <pt x="178" y="0" on="1"/>
      </contour>
    </TTGlyph>
    <TTGlyph name="ae.ss01" xMin="50" yMin="-6" xMax="947" yMax="535">
      <contour>
        <pt x="256" y="-6" on="1" overlap="1"/>
        <pt x="159" y="-6" on="0"/>
        <pt x="50" y="83" on="0"/>
        <pt x="50" y="154" on="1"/>
        <pt x="50" y="194" on="0"/>
        <pt x="91" y="262" on="0"/>
        <pt x="184" y="304" on="0"/>
        <pt x="263" y="304" on="1"/>
        <pt x="430" y="304" on="1"/>
        <pt x="430" y="235" on="1"/>
        <pt x="267" y="235" on="1"/>
        <pt x="196" y="235" on="0"/>
        <pt x="145" y="188" on="0"/>
        <pt x="145" y="156" on="1"/>
        <pt x="145" y="115" on="0"/>
        <pt x="208" y="68" on="0"/>
        <pt x="264" y="68" on="1"/>
        <pt x="335" y="68" on="0"/>
        <pt x="415" y="141" on="0"/>
        <pt x="415" y="201" on="1"/>
        <pt x="415" y="324" on="1"/>
        <pt x="415" y="385" on="0"/>
        <pt x="344" y="452" on="0"/>
        <pt x="274" y="452" on="1"/>
        <pt x="226" y="452" on="0"/>
        <pt x="136" y="421" on="0"/>
        <pt x="105" y="395" on="1"/>
        <pt x="65" y="467" on="1"/>
        <pt x="106" y="500" on="0"/>
        <pt x="221" y="535" on="0"/>
        <pt x="283" y="535" on="1"/>
        <pt x="375" y="535" on="0"/>
        <pt x="483" y="462" on="0"/>
        <pt x="498" y="391" on="1"/>
        <pt x="452" y="397" on="1"/>
        <pt x="483" y="461" on="0"/>
        <pt x="609" y="535" on="0"/>
        <pt x="688" y="535" on="1"/>
        <pt x="760" y="535" on="0"/>
        <pt x="876" y="471" on="0"/>
        <pt x="945" y="354" on="0"/>
        <pt x="947" y="273" on="1"/>
        <pt x="498" y="186" on="1"/>
        <pt x="494" y="257" on="1"/>
        <pt x="889" y="332" on="1"/>
        <pt x="854" y="283" on="1"/>
        <pt x="854" y="332" on="0"/>
        <pt x="812" y="409" on="0"/>
        <pt x="737" y="454" on="0"/>
        <pt x="687" y="454" on="1"/>
        <pt x="636" y="454" on="0"/>
        <pt x="557" y="409" on="0"/>
        <pt x="511" y="328" on="0"/>
        <pt x="511" y="276" on="1"/>
        <pt x="511" y="260" on="1"/>
        <pt x="511" y="207" on="0"/>
        <pt x="562" y="124" on="0"/>
        <pt x="651" y="78" on="0"/>
        <pt x="708" y="78" on="1"/>
        <pt x="754" y="78" on="0"/>
        <pt x="828" y="110" on="0"/>
        <pt x="859" y="142" on="1"/>
        <pt x="912" y="80" on="1"/>
        <pt x="838" y="-6" on="0"/>
        <pt x="706" y="-6" on="1"/>
        <pt x="645" y="-6" on="0"/>
        <pt x="537" y="32" on="0"/>
        <pt x="455" y="112" on="0"/>
        <pt x="433" y="175" on="1"/>
        <pt x="492" y="173" on="1"/>
        <pt x="480" y="106" on="0"/>
        <pt x="407" y="27" on="0"/>
        <pt x="308" y="-6" on="0"/>
      </contour>
    </TTGlyph>
    <TTGlyph name="aeacute" xMin="50" yMin="-6" xMax="947" yMax="737">
      <component glyphName="ae" x="0" y="0" flags="0x604"/>
      <component glyphName="acutecomb" x="163" y="0" flags="0x4"/>
    </TTGlyph>
    <TTGlyph name="aeacute.sc" xMin="-1" yMin="0" xMax="829" yMax="776">
      <component glyphName="ae.sc" x="0" y="0" flags="0x604"/>
      <component glyphName="acutecomb" x="150" y="39" flags="0x4"/>
    </TTGlyph>
    <TTGlyph name="aeacute.sc.ss01" xMin="85" yMin="0" xMax="874" yMax="776">
      <component glyphName="ae.sc.ss01" x="0" y="0" flags="0x604"/>
      <component glyphName="acutecomb" x="156" y="39" flags="0x4"/>
    </TTGlyph>
    <TTGlyph name="aeacute.ss01" xMin="50" yMin="-6" xMax="947" yMax="737">
      <component glyphName="ae.ss01" x="0" y="0" flags="0x604"/>
      <component glyphName="acutecomb" x="185" y="0" flags="0x4"/>
    </TTGlyph>
    <TTGlyph name="agrave" xMin="50" yMin="-6" xMax="511" yMax="737">
      <component glyphName="a" x="0" y="0" flags="0x604"/>
      <component glyphName="gravecomb" x="-9" y="0" flags="0x4"/>
    </TTGlyph>
    <TTGlyph name="agrave.sc" xMin="-1" yMin="0" xMax="616" yMax="776">
      <component glyphName="a.sc" x="0" y="0" flags="0x604"/>
      <component glyphName="gravecomb" x="7" y="39" flags="0x4"/>
    </TTGlyph>
    <TTGlyph name="agrave.sc.ss01" xMin="91" yMin="0" xMax="596" yMax="776">
      <component glyphName="a.sc.ss01" x="0" y="0" flags="0x604"/>
      <component glyphName="gravecomb" x="43" y="39" flags="0x4"/>
    </TTGlyph>
    <TTGlyph name="agrave.ss01" xMin="42" yMin="-6" xMax="591" yMax="737">
      <component glyphName="a.ss01" x="0" y="0" flags="0x604"/>
      <component glyphName="gravecomb" x="35" y="0" flags="0x4"/>
    </TTGlyph>
    <TTGlyph name="amacron" xMin="50" yMin="-6" xMax="511" yMax="702">
      <component glyphName="a" x="0" y="0" flags="0x604"/>
      <component glyphName="uni0304" x="-9" y="0" flags="0x4"/>
    </TTGlyph>
    <TTGlyph name="amacron.sc" xMin="-1" yMin="0" xMax="616" yMax="741">
      <component glyphName="a.sc" x="0" y="0" flags="0x604"/>
      <component glyphName="uni0304" x="7" y="39" flags="0x4"/>
    </TTGlyph>
    <TTGlyph name="amacron.sc.ss01" xMin="91" yMin="0" xMax="596" yMax="741">
      <component glyphName="a.sc.ss01" x="0" y="0" flags="0x604"/>
      <component glyphName="uni0304" x="43" y="39" flags="0x4"/>
    </TTGlyph>
    <TTGlyph name="amacron.ss01" xMin="42" yMin="-6" xMax="591" yMax="702">
      <component glyphName="a.ss01" x="0" y="0" flags="0x604"/>
      <component glyphName="uni0304" x="35" y="0" flags="0x4"/>
    </TTGlyph>
    <TTGlyph name="ampersand" xMin="45" yMin="-11" xMax="671" yMax="706">
      <contour>
        <pt x="290" y="-8" on="1" overlap="1"/>
        <pt x="219" y="-8" on="0"/>
        <pt x="109" y="38" on="0"/>
        <pt x="45" y="120" on="0"/>
        <pt x="45" y="174" on="1"/>
        <pt x="45" y="221" on="0"/>
        <pt x="87" y="299" on="0"/>
        <pt x="179" y="372" on="0"/>
        <pt x="254" y="411" on="1"/>
        <pt x="315" y="443" on="0"/>
        <pt x="384" y="491" on="0"/>
        <pt x="413" y="534" on="0"/>
        <pt x="413" y="559" on="1"/>
        <pt x="413" y="593" on="0"/>
        <pt x="365" y="636" on="0"/>
        <pt x="320" y="636" on="1"/>
        <pt x="273" y="636" on="0"/>
        <pt x="220" y="589" on="0"/>
        <pt x="220" y="551" on="1"/>
        <pt x="220" y="532" on="0"/>
        <pt x="233" y="497" on="0"/>
        <pt x="268" y="454" on="0"/>
        <pt x="301" y="421" on="1"/>
        <pt x="671" y="53" on="1"/>
        <pt x="617" y="-11" on="1"/>
        <pt x="224" y="380" on="1"/>
        <pt x="189" y="415" on="0"/>
        <pt x="149" y="470" on="0"/>
        <pt x="131" y="522" on="0"/>
        <pt x="131" y="549" on="1"/>
        <pt x="131" y="596" on="0"/>
        <pt x="178" y="667" on="0"/>
        <pt x="263" y="706" on="0"/>
        <pt x="320" y="706" on="1"/>
        <pt x="373" y="706" on="0"/>
        <pt x="451" y="671" on="0"/>
        <pt x="494" y="606" on="0"/>
        <pt x="494" y="560" on="1"/>
        <pt x="494" y="520" on="0"/>
        <pt x="455" y="452" on="0"/>
        <pt x="369" y="388" on="0"/>
        <pt x="296" y="351" on="1"/>
        <pt x="236" y="320" on="0"/>
        <pt x="168" y="267" on="0"/>
        <pt x="139" y="215" on="0"/>
        <pt x="139" y="184" on="1"/>
        <pt x="139" y="151" on="0"/>
        <pt x="178" y="100" on="0"/>
        <pt x="249" y="72" on="0"/>
        <pt x="296" y="72" on="1"/>
        <pt x="363" y="72" on="0"/>
        <pt x="471" y="130" on="0"/>
        <pt x="544" y="246" on="0"/>
        <pt x="561" y="332" on="1"/>
        <pt x="638" y="307" on="1"/>
        <pt x="618" y="206" on="0"/>
        <pt x="521" y="66" on="0"/>
        <pt x="379" y="-8" on="0"/>
      </contour>
    </TTGlyph>
    <TTGlyph name="ampersand.sc" xMin="37" yMin="-10" xMax="562" yMax="575">
      <contour>
        <pt x="246" y="-8" on="1" overlap="1"/>
        <pt x="186" y="-8" on="0"/>
        <pt x="91" y="32" on="0"/>
        <pt x="37" y="103" on="0"/>
        <pt x="37" y="149" on="1"/>
        <pt x="37" y="204" on="0"/>
        <pt x="116" y="294" on="0"/>
        <pt x="210" y="338" on="1"/>
        <pt x="259" y="361" on="0"/>
        <pt x="315" y="397" on="0"/>
        <pt x="338" y="431" on="0"/>
        <pt x="338" y="449" on="1"/>
        <pt x="338" y="475" on="0"/>
        <pt x="303" y="507" on="0"/>
        <pt x="268" y="507" on="1"/>
        <pt x="230" y="507" on="0"/>
        <pt x="190" y="470" on="0"/>
        <pt x="190" y="444" on="1"/>
        <pt x="190" y="422" on="0"/>
        <pt x="216" y="382" on="0"/>
        <pt x="256" y="343" on="1"/>
        <pt x="562" y="50" on="1"/>
        <pt x="510" y="-10" on="1"/>
        <pt x="182" y="304" on="1"/>
        <pt x="140" y="345" on="0"/>
        <pt x="106" y="409" on="0"/>
        <pt x="106" y="443" on="1"/>
        <pt x="106" y="483" on="0"/>
        <pt x="146" y="542" on="0"/>
        <pt x="218" y="575" on="0"/>
        <pt x="267" y="575" on="1"/>
        <pt x="334" y="575" on="0"/>
        <pt x="416" y="509" on="0"/>
        <pt x="416" y="452" on="1"/>
        <pt x="416" y="418" on="0"/>
        <pt x="383" y="361" on="0"/>
        <pt x="310" y="309" on="0"/>
        <pt x="251" y="281" on="1"/>
        <pt x="204" y="257" on="0"/>
        <pt x="149" y="217" on="0"/>
        <pt x="126" y="178" on="0"/>
        <pt x="126" y="153" on="1"/>
        <pt x="126" y="115" on="0"/>
        <pt x="193" y="66" on="0"/>
        <pt x="251" y="66" on="1"/>
        <pt x="303" y="66" on="0"/>
        <pt x="389" y="114" on="0"/>
        <pt x="452" y="207" on="0"/>
        <pt x="466" y="275" on="1"/>
        <pt x="541" y="254" on="1"/>
        <pt x="522" y="171" on="0"/>
        <pt x="439" y="54" on="0"/>
        <pt x="320" y="-8" on="0"/>
      </contour>
    </TTGlyph>
    <TTGlyph name="aogonek" xMin="50" yMin="-224" xMax="534" yMax="535">
      <component glyphName="a" x="0" y="0" flags="0x604"/>
      <component glyphName="uni0328" x="210" y="0" flags="0x4"/>
    </TTGlyph>
    <TTGlyph name="aogonek.sc" xMin="-1" yMin="-224" xMax="638" yMax="568">
      <component glyphName="a.sc" x="0" y="0" flags="0x604"/>
      <component glyphName="uni0328" x="315" y="0" flags="0x4"/>
    </TTGlyph>
    <TTGlyph name="aogonek.sc.ss01" xMin="91" yMin="-224" xMax="618" yMax="576">
      <component glyphName="a.sc.ss01" x="0" y="0" flags="0x604"/>
      <component glyphName="uni0328" x="295" y="0" flags="0x4"/>
    </TTGlyph>
    <TTGlyph name="aogonek.ss01" xMin="42" yMin="-224" xMax="613" yMax="535">
      <component glyphName="a.ss01" x="0" y="0" flags="0x604"/>
      <component glyphName="uni0328" x="290" y="0" flags="0x4"/>
    </TTGlyph>
    <TTGlyph name="approxequal" xMin="58" yMin="147" xMax="524" yMax="553">
      <contour>
        <pt x="392" y="381" on="1" overlap="1"/>
        <pt x="356" y="381" on="0"/>
        <pt x="302" y="411" on="0"/>
        <pt x="257" y="449" on="0"/>
        <pt x="217" y="479" on="0"/>
        <pt x="193" y="479" on="1"/>
        <pt x="161" y="479" on="0"/>
        <pt x="123" y="430" on="0"/>
        <pt x="121" y="389" on="1"/>
        <pt x="58" y="389" on="1"/>
        <pt x="60" y="472" on="0"/>
        <pt x="134" y="553" on="0"/>
        <pt x="190" y="553" on="1"/>
        <pt x="226" y="553" on="0"/>
        <pt x="280" y="523" on="0"/>
        <pt x="325" y="485" on="0"/>
        <pt x="365" y="455" on="0"/>
        <pt x="389" y="455" on="1"/>
        <pt x="422" y="455" on="0"/>
        <pt x="460" y="505" on="0"/>
        <pt x="461" y="546" on="1"/>
        <pt x="524" y="546" on="1"/>
        <pt x="522" y="463" on="0"/>
        <pt x="449" y="381" on="0"/>
      </contour>
      <contour>
        <pt x="392" y="147" on="1"/>
        <pt x="356" y="147" on="0"/>
        <pt x="302" y="176" on="0"/>
        <pt x="257" y="214" on="0"/>
        <pt x="217" y="244" on="0"/>
        <pt x="193" y="244" on="1"/>
        <pt x="161" y="244" on="0"/>
        <pt x="123" y="195" on="0"/>
        <pt x="121" y="154" on="1"/>
        <pt x="58" y="154" on="1"/>
        <pt x="60" y="237" on="0"/>
        <pt x="134" y="318" on="0"/>
        <pt x="190" y="318" on="1"/>
        <pt x="226" y="318" on="0"/>
        <pt x="280" y="288" on="0"/>
        <pt x="325" y="250" on="0"/>
        <pt x="365" y="220" on="0"/>
        <pt x="389" y="220" on="1"/>
        <pt x="422" y="220" on="0"/>
        <pt x="460" y="270" on="0"/>
        <pt x="461" y="311" on="1"/>
        <pt x="524" y="311" on="1"/>
        <pt x="522" y="228" on="0"/>
        <pt x="449" y="147" on="0"/>
      </contour>
    </TTGlyph>
    <TTGlyph name="aring" xMin="50" yMin="-6" xMax="511" yMax="812">
      <component glyphName="a" x="0" y="0" flags="0x604"/>
      <component glyphName="uni030A" x="-9" y="0" flags="0x4"/>
    </TTGlyph>
    <TTGlyph name="aring.sc" xMin="-1" yMin="0" xMax="616" yMax="851">
      <component glyphName="a.sc" x="0" y="0" flags="0x604"/>
      <component glyphName="uni030A" x="7" y="39" flags="0x4"/>
    </TTGlyph>
    <TTGlyph name="aring.sc.ss01" xMin="91" yMin="0" xMax="596" yMax="851">
      <component glyphName="a.sc.ss01" x="0" y="0" flags="0x604"/>
      <component glyphName="uni030A" x="43" y="39" flags="0x4"/>
    </TTGlyph>
    <TTGlyph name="aring.ss01" xMin="42" yMin="-6" xMax="591" yMax="812">
      <component glyphName="a.ss01" x="0" y="0" flags="0x604"/>
      <component glyphName="uni030A" x="35" y="0" flags="0x4"/>
    </TTGlyph>
    <TTGlyph name="aringacute" xMin="50" yMin="-6" xMax="511" yMax="883">
      <component glyphName="a" x="0" y="0" flags="0x604"/>
      <component glyphName="uni030A0301" x="-9" y="0" flags="0x4"/>
    </TTGlyph>
    <TTGlyph name="aringacute.sc" xMin="-1" yMin="0" xMax="616" yMax="921">
      <component glyphName="a.sc" x="0" y="0" flags="0x604"/>
      <component glyphName="uni030A0301" x="7" y="39" flags="0x4"/>
    </TTGlyph>
    <TTGlyph name="aringacute.sc.ss01" xMin="91" yMin="0" xMax="596" yMax="921">
      <component glyphName="a.sc.ss01" x="0" y="0" flags="0x604"/>
      <component glyphName="uni030A0301" x="43" y="39" flags="0x4"/>
    </TTGlyph>
    <TTGlyph name="aringacute.ss01" xMin="42" yMin="-6" xMax="591" yMax="883">
      <component glyphName="a.ss01" x="0" y="0" flags="0x604"/>
      <component glyphName="uni030A0301" x="35" y="0" flags="0x4"/>
    </TTGlyph>
    <TTGlyph name="arrowboth" xMin="50" yMin="68" xMax="679" yMax="480">
      <contour>
        <pt x="454" y="68" on="1" overlap="1"/>
        <pt x="585" y="273" on="1"/>
        <pt x="454" y="480" on="1"/>
        <pt x="541" y="480" on="1"/>
        <pt x="679" y="273" on="1"/>
        <pt x="541" y="68" on="1"/>
      </contour>
      <contour>
        <pt x="189" y="68" on="1"/>
        <pt x="50" y="273" on="1"/>
        <pt x="189" y="480" on="1"/>
        <pt x="276" y="480" on="1"/>
        <pt x="144" y="273" on="1"/>
        <pt x="276" y="68" on="1"/>
      </contour>
      <contour>
        <pt x="123" y="237" on="1"/>
        <pt x="123" y="310" on="1"/>
        <pt x="605" y="310" on="1"/>
        <pt x="605" y="237" on="1"/>
      </contour>
    </TTGlyph>
    <TTGlyph name="arrowdown" xMin="106" yMin="50" xMax="514" yMax="492">
      <contour>
        <pt x="514" y="273" on="1" overlap="1"/>
        <pt x="514" y="190" on="1"/>
        <pt x="311" y="50" on="1"/>
        <pt x="106" y="190" on="1"/>
        <pt x="106" y="273" on="1"/>
        <pt x="311" y="141" on="1"/>
      </contour>
      <contour>
        <pt x="349" y="492" on="1"/>
        <pt x="349" y="124" on="1"/>
        <pt x="272" y="124" on="1"/>
        <pt x="272" y="492" on="1"/>
      </contour>
    </TTGlyph>
    <TTGlyph name="arrowdown.case" xMin="106" yMin="100" xMax="514" yMax="542">
      <contour>
        <pt x="514" y="323" on="1" overlap="1"/>
        <pt x="514" y="240" on="1"/>
        <pt x="311" y="100" on="1"/>
        <pt x="106" y="240" on="1"/>
        <pt x="106" y="323" on="1"/>
        <pt x="311" y="191" on="1"/>
      </contour>
      <contour>
        <pt x="349" y="542" on="1"/>
        <pt x="349" y="174" on="1"/>
        <pt x="272" y="174" on="1"/>
        <pt x="272" y="542" on="1"/>
      </contour>
    </TTGlyph>
    <TTGlyph name="arrowleft" xMin="96" yMin="68" xMax="533" yMax="480">
      <contour>
        <pt x="235" y="68" on="1" overlap="1"/>
        <pt x="96" y="273" on="1"/>
        <pt x="235" y="480" on="1"/>
        <pt x="322" y="480" on="1"/>
        <pt x="191" y="273" on="1"/>
        <pt x="322" y="68" on="1"/>
      </contour>
      <contour>
        <pt x="171" y="237" on="1"/>
        <pt x="171" y="310" on="1"/>
        <pt x="533" y="310" on="1"/>
        <pt x="533" y="237" on="1"/>
      </contour>
    </TTGlyph>
    <TTGlyph name="arrowleft.case" xMin="96" yMin="118" xMax="533" yMax="530">
      <contour>
        <pt x="235" y="118" on="1" overlap="1"/>
        <pt x="96" y="323" on="1"/>
        <pt x="235" y="530" on="1"/>
        <pt x="322" y="530" on="1"/>
        <pt x="191" y="323" on="1"/>
        <pt x="322" y="118" on="1"/>
      </contour>
      <contour>
        <pt x="171" y="287" on="1"/>
        <pt x="171" y="360" on="1"/>
        <pt x="533" y="360" on="1"/>
        <pt x="533" y="287" on="1"/>
      </contour>
    </TTGlyph>
    <TTGlyph name="arrowright" xMin="67" yMin="67" xMax="504" yMax="479">
      <contour>
        <pt x="365" y="479" on="1" overlap="1"/>
        <pt x="504" y="274" on="1"/>
        <pt x="365" y="67" on="1"/>
        <pt x="278" y="67" on="1"/>
        <pt x="409" y="274" on="1"/>
        <pt x="278" y="479" on="1"/>
      </contour>
      <contour>
        <pt x="429" y="310" on="1"/>
        <pt x="429" y="237" on="1"/>
        <pt x="67" y="237" on="1"/>
        <pt x="67" y="310" on="1"/>
      </contour>
    </TTGlyph>
    <TTGlyph name="arrowright.case" xMin="67" yMin="117" xMax="504" yMax="529">
      <contour>
        <pt x="365" y="529" on="1" overlap="1"/>
        <pt x="504" y="324" on="1"/>
        <pt x="365" y="117" on="1"/>
        <pt x="278" y="117" on="1"/>
        <pt x="409" y="324" on="1"/>
        <pt x="278" y="529" on="1"/>
      </contour>
      <contour>
        <pt x="429" y="360" on="1"/>
        <pt x="429" y="287" on="1"/>
        <pt x="67" y="287" on="1"/>
        <pt x="67" y="360" on="1"/>
      </contour>
    </TTGlyph>
    <TTGlyph name="arrowup" xMin="96" yMin="55" xMax="504" yMax="497">
      <contour>
        <pt x="96" y="275" on="1" overlap="1"/>
        <pt x="96" y="358" on="1"/>
        <pt x="299" y="497" on="1"/>
        <pt x="504" y="358" on="1"/>
        <pt x="504" y="275" on="1"/>
        <pt x="299" y="407" on="1"/>
      </contour>
      <contour>
        <pt x="261" y="55" on="1"/>
        <pt x="261" y="423" on="1"/>
        <pt x="338" y="423" on="1"/>
        <pt x="338" y="55" on="1"/>
      </contour>
    </TTGlyph>
    <TTGlyph name="arrowup.case" xMin="96" yMin="105" xMax="504" yMax="547">
      <contour>
        <pt x="96" y="325" on="1" overlap="1"/>
        <pt x="96" y="408" on="1"/>
        <pt x="299" y="547" on="1"/>
        <pt x="504" y="408" on="1"/>
        <pt x="504" y="325" on="1"/>
        <pt x="299" y="457" on="1"/>
      </contour>
      <contour>
        <pt x="261" y="105" on="1"/>
        <pt x="261" y="473" on="1"/>
        <pt x="338" y="473" on="1"/>
        <pt x="338" y="105" on="1"/>
      </contour>
    </TTGlyph>
    <TTGlyph name="arrowupdn" xMin="95" yMin="39" xMax="504" yMax="650">
      <contour>
        <pt x="96" y="427" on="1" overlap="1"/>
        <pt x="96" y="509" on="1"/>
        <pt x="299" y="650" on="1"/>
        <pt x="504" y="509" on="1"/>
        <pt x="504" y="427" on="1"/>
        <pt x="299" y="558" on="1"/>
      </contour>
      <contour>
        <pt x="300" y="39" on="1"/>
        <pt x="95" y="180" on="1"/>
        <pt x="95" y="262" on="1"/>
        <pt x="300" y="130" on="1"/>
        <pt x="502" y="262" on="1"/>
        <pt x="502" y="180" on="1"/>
      </contour>
      <contour>
        <pt x="261" y="117" on="1"/>
        <pt x="261" y="575" on="1"/>
        <pt x="338" y="575" on="1"/>
        <pt x="338" y="117" on="1"/>
      </contour>
    </TTGlyph>
    <TTGlyph name="asciicircum" xMin="75" yMin="142" xMax="508" yMax="558">
      <contour>
        <pt x="75" y="142" on="1" overlap="1"/>
        <pt x="252" y="558" on="1"/>
        <pt x="332" y="558" on="1"/>
        <pt x="508" y="142" on="1"/>
        <pt x="431" y="142" on="1"/>
        <pt x="271" y="528" on="1"/>
        <pt x="312" y="528" on="1"/>
        <pt x="152" y="142" on="1"/>
      </contour>
    </TTGlyph>
    <TTGlyph name="asciitilde" xMin="58" yMin="265" xMax="524" yMax="436">
      <contour>
        <pt x="392" y="265" on="1" overlap="1"/>
        <pt x="356" y="265" on="0"/>
        <pt x="302" y="295" on="0"/>
        <pt x="257" y="333" on="0"/>
        <pt x="217" y="362" on="0"/>
        <pt x="193" y="362" on="1"/>
        <pt x="161" y="362" on="0"/>
        <pt x="123" y="314" on="0"/>
        <pt x="121" y="272" on="1"/>
        <pt x="58" y="272" on="1"/>
        <pt x="60" y="356" on="0"/>
        <pt x="134" y="436" on="0"/>
        <pt x="190" y="436" on="1"/>
        <pt x="226" y="436" on="0"/>
        <pt x="280" y="406" on="0"/>
        <pt x="325" y="368" on="0"/>
        <pt x="365" y="339" on="0"/>
        <pt x="389" y="339" on="1"/>
        <pt x="422" y="339" on="0"/>
        <pt x="460" y="388" on="0"/>
        <pt x="461" y="430" on="1"/>
        <pt x="524" y="430" on="1"/>
        <pt x="522" y="346" on="0"/>
        <pt x="449" y="265" on="0"/>
      </contour>
    </TTGlyph>
    <TTGlyph name="asterisk" xMin="19" yMin="369" xMax="381" yMax="742">
      <contour>
        <pt x="381" y="622" on="1" overlap="1"/>
        <pt x="245" y="546" on="1"/>
        <pt x="245" y="565" on="1"/>
        <pt x="381" y="489" on="1"/>
        <pt x="350" y="434" on="1"/>
        <pt x="218" y="511" on="1"/>
        <pt x="229" y="518" on="1"/>
        <pt x="230" y="369" on="1"/>
        <pt x="170" y="369" on="1"/>
        <pt x="171" y="518" on="1"/>
        <pt x="182" y="511" on="1"/>
        <pt x="50" y="434" on="1"/>
        <pt x="19" y="489" on="1"/>
        <pt x="156" y="565" on="1"/>
        <pt x="156" y="546" on="1"/>
        <pt x="19" y="622" on="1"/>
        <pt x="50" y="678" on="1"/>
        <pt x="182" y="600" on="1"/>
        <pt x="171" y="593" on="1"/>
        <pt x="170" y="742" on="1"/>
        <pt x="230" y="742" on="1"/>
        <pt x="229" y="593" on="1"/>
        <pt x="218" y="600" on="1"/>
        <pt x="350" y="678" on="1"/>
      </contour>
    </TTGlyph>
    <TTGlyph name="at" xMin="48" yMin="-202" xMax="986" yMax="707">
      <contour>
        <pt x="516" y="-202" on="1" overlap="1"/>
        <pt x="412" y="-202" on="0"/>
        <pt x="240" y="-134" on="0"/>
        <pt x="116" y="-12" on="0"/>
        <pt x="48" y="155" on="0"/>
        <pt x="48" y="254" on="1"/>
        <pt x="48" y="353" on="0"/>
        <pt x="116" y="519" on="0"/>
        <pt x="241" y="641" on="0"/>
        <pt x="415" y="707" on="0"/>
        <pt x="520" y="707" on="1"/>
        <pt x="623" y="707" on="0"/>
        <pt x="793" y="643" on="0"/>
        <pt x="918" y="526" on="0"/>
        <pt x="986" y="365" on="0"/>
        <pt x="986" y="268" on="1"/>
        <pt x="986" y="183" on="0"/>
        <pt x="944" y="61" on="0"/>
        <pt x="865" y="-6" on="0"/>
        <pt x="808" y="-6" on="1"/>
        <pt x="752" y="-6" on="0"/>
        <pt x="685" y="62" on="0"/>
        <pt x="685" y="125" on="1"/>
        <pt x="685" y="193" on="1"/>
        <pt x="690" y="254" on="1"/>
        <pt x="681" y="369" on="1"/>
        <pt x="681" y="502" on="1"/>
        <pt x="768" y="502" on="1"/>
        <pt x="768" y="142" on="1"/>
        <pt x="768" y="102" on="0"/>
        <pt x="801" y="70" on="0"/>
        <pt x="825" y="70" on="1"/>
        <pt x="854" y="70" on="0"/>
        <pt x="897" y="116" on="0"/>
        <pt x="918" y="205" on="0"/>
        <pt x="918" y="267" on="1"/>
        <pt x="918" y="351" on="0"/>
        <pt x="861" y="488" on="0"/>
        <pt x="754" y="588" on="0"/>
        <pt x="609" y="641" on="0"/>
        <pt x="520" y="641" on="1"/>
        <pt x="431" y="641" on="0"/>
        <pt x="284" y="584" on="0"/>
        <pt x="178" y="481" on="0"/>
        <pt x="121" y="339" on="0"/>
        <pt x="121" y="254" on="1"/>
        <pt x="121" y="168" on="0"/>
        <pt x="177" y="25" on="0"/>
        <pt x="282" y="-78" on="0"/>
        <pt x="427" y="-135" on="0"/>
        <pt x="516" y="-135" on="1"/>
        <pt x="562" y="-135" on="0"/>
        <pt x="664" y="-114" on="0"/>
        <pt x="709" y="-91" on="1"/>
        <pt x="731" y="-155" on="1"/>
        <pt x="685" y="-178" on="0"/>
        <pt x="569" y="-202" on="0"/>
      </contour>
      <contour>
        <pt x="498" y="-6" on="1"/>
        <pt x="427" y="-6" on="0"/>
        <pt x="317" y="61" on="0"/>
        <pt x="253" y="177" on="0"/>
        <pt x="253" y="251" on="1"/>
        <pt x="253" y="326" on="0"/>
        <pt x="317" y="441" on="0"/>
        <pt x="427" y="506" on="0"/>
        <pt x="498" y="506" on="1"/>
        <pt x="567" y="506" on="0"/>
        <pt x="671" y="447" on="0"/>
        <pt x="730" y="333" on="0"/>
        <pt x="730" y="251" on="1"/>
        <pt x="730" y="169" on="0"/>
        <pt x="672" y="55" on="0"/>
        <pt x="568" y="-6" on="0"/>
      </contour>
      <contour>
        <pt x="512" y="72" on="1"/>
        <pt x="561" y="72" on="0"/>
        <pt x="638" y="115" on="0"/>
        <pt x="683" y="196" on="0"/>
        <pt x="683" y="251" on="1"/>
        <pt x="683" y="307" on="0"/>
        <pt x="638" y="387" on="0"/>
        <pt x="561" y="429" on="0"/>
        <pt x="512" y="429" on="1"/>
        <pt x="462" y="429" on="0"/>
        <pt x="385" y="386" on="0"/>
        <pt x="342" y="306" on="0"/>
        <pt x="342" y="251" on="1"/>
        <pt x="342" y="197" on="0"/>
        <pt x="385" y="117" on="0"/>
        <pt x="462" y="72" on="0"/>
      </contour>
    </TTGlyph>
    <TTGlyph name="at.case" xMin="48" yMin="-135" xMax="986" yMax="774">
      <component glyphName="at" x="0" y="67" flags="0x604"/>
    </TTGlyph>
    <TTGlyph name="atilde" xMin="50" yMin="-6" xMax="511" yMax="737">
      <component glyphName="a" x="0" y="0" flags="0x604"/>
      <component glyphName="tildecomb" x="-9" y="0" flags="0x4"/>
    </TTGlyph>
    <TTGlyph name="atilde.sc" xMin="-1" yMin="0" xMax="616" yMax="775">
      <component glyphName="a.sc" x="0" y="0" flags="0x604"/>
      <component glyphName="tildecomb" x="7" y="39" flags="0x4"/>
    </TTGlyph>
    <TTGlyph name="atilde.sc.ss01" xMin="91" yMin="0" xMax="596" yMax="775">
      <component glyphName="a.sc.ss01" x="0" y="0" flags="0x604"/>
      <component glyphName="tildecomb" x="43" y="39" flags="0x4"/>
    </TTGlyph>
    <TTGlyph name="atilde.ss01" xMin="42" yMin="-6" xMax="591" yMax="737">
      <component glyphName="a.ss01" x="0" y="0" flags="0x604"/>
      <component glyphName="tildecomb" x="35" y="0" flags="0x4"/>
    </TTGlyph>
    <TTGlyph name="b" xMin="91" yMin="-6" xMax="640" yMax="742">
      <contour>
        <pt x="372" y="-6" on="1" overlap="1"/>
        <pt x="304" y="-6" on="0"/>
        <pt x="195" y="55" on="0"/>
        <pt x="132" y="175" on="0"/>
        <pt x="132" y="265" on="1"/>
        <pt x="132" y="355" on="0"/>
        <pt x="197" y="475" on="0"/>
        <pt x="306" y="535" on="0"/>
        <pt x="372" y="535" on="1"/>
        <pt x="450" y="535" on="0"/>
        <pt x="570" y="467" on="0"/>
        <pt x="640" y="346" on="0"/>
        <pt x="640" y="265" on="1"/>
        <pt x="640" y="184" on="0"/>
        <pt x="570" y="62" on="0"/>
        <pt x="450" y="-6" on="0"/>
      </contour>
      <contour>
        <pt x="91" y="0" on="1"/>
        <pt x="91" y="742" on="1"/>
        <pt x="187" y="742" on="1"/>
        <pt x="187" y="389" on="1"/>
        <pt x="177" y="266" on="1"/>
        <pt x="183" y="143" on="1"/>
        <pt x="183" y="0" on="1"/>
      </contour>
      <contour>
        <pt x="364" y="78" on="1"/>
        <pt x="415" y="78" on="0"/>
        <pt x="496" y="124" on="0"/>
        <pt x="543" y="209" on="0"/>
        <pt x="543" y="265" on="1"/>
        <pt x="543" y="322" on="0"/>
        <pt x="496" y="405" on="0"/>
        <pt x="415" y="451" on="0"/>
        <pt x="364" y="451" on="1"/>
        <pt x="314" y="451" on="0"/>
        <pt x="233" y="405" on="0"/>
        <pt x="186" y="322" on="0"/>
        <pt x="186" y="265" on="1"/>
        <pt x="186" y="209" on="0"/>
        <pt x="233" y="124" on="0"/>
        <pt x="314" y="78" on="0"/>
      </contour>
    </TTGlyph>
    <TTGlyph name="b.sc" xMin="97" yMin="0" xMax="602" yMax="568">
      <contour>
        <pt x="97" y="0" on="1" overlap="1"/>
        <pt x="97" y="568" on="1"/>
        <pt x="360" y="568" on="1"/>
        <pt x="463" y="568" on="0"/>
        <pt x="572" y="489" on="0"/>
        <pt x="572" y="421" on="1"/>
        <pt x="572" y="353" on="0"/>
        <pt x="481" y="277" on="0"/>
        <pt x="408" y="277" on="1"/>
        <pt x="423" y="304" on="1"/>
        <pt x="506" y="304" on="0"/>
        <pt x="602" y="228" on="0"/>
        <pt x="602" y="154" on="1"/>
        <pt x="602" y="82" on="0"/>
        <pt x="488" y="0" on="0"/>
        <pt x="377" y="0" on="1"/>
      </contour>
      <contour>
        <pt x="194" y="74" on="1"/>
        <pt x="372" y="74" on="1"/>
        <pt x="436" y="74" on="0"/>
        <pt x="504" y="117" on="0"/>
        <pt x="504" y="162" on="1"/>
        <pt x="504" y="208" on="0"/>
        <pt x="436" y="250" on="0"/>
        <pt x="372" y="250" on="1"/>
        <pt x="178" y="250" on="1"/>
        <pt x="178" y="324" on="1"/>
        <pt x="351" y="324" on="1"/>
        <pt x="411" y="324" on="0"/>
        <pt x="475" y="368" on="0"/>
        <pt x="475" y="410" on="1"/>
        <pt x="475" y="452" on="0"/>
        <pt x="411" y="494" on="0"/>
        <pt x="351" y="494" on="1"/>
        <pt x="194" y="494" on="1"/>
      </contour>
    </TTGlyph>
    <TTGlyph name="backslash" xMin="-38" yMin="-100" xMax="379" yMax="842">
      <contour>
        <pt x="379" y="-100" on="1" overlap="1"/>
        <pt x="292" y="-100" on="1"/>
        <pt x="-38" y="842" on="1"/>
        <pt x="49" y="842" on="1"/>
      </contour>
    </TTGlyph>
    <TTGlyph name="backslash.case" xMin="-38" yMin="-100" xMax="379" yMax="842">
      <contour>
        <pt x="379" y="-100" on="1" overlap="1"/>
        <pt x="292" y="-100" on="1"/>
        <pt x="-38" y="842" on="1"/>
        <pt x="49" y="842" on="1"/>
      </contour>
    </TTGlyph>
    <TTGlyph name="bar" xMin="105" yMin="-194" xMax="194" yMax="742">
      <contour>
        <pt x="105" y="-194" on="1" overlap="1"/>
        <pt x="105" y="742" on="1"/>
        <pt x="194" y="742" on="1"/>
        <pt x="194" y="-194" on="1"/>
      </contour>
    </TTGlyph>
    <TTGlyph name="braceleft" xMin="57" yMin="-194" xMax="332" yMax="742">
      <contour>
        <pt x="288" y="-194" on="1" overlap="1"/>
        <pt x="213" y="-194" on="0"/>
        <pt x="137" y="-119" on="0"/>
        <pt x="137" y="-46" on="1"/>
        <pt x="137" y="184" on="1"/>
        <pt x="137" y="210" on="0"/>
        <pt x="113" y="234" on="0"/>
        <pt x="92" y="234" on="1"/>
        <pt x="57" y="234" on="1"/>
        <pt x="57" y="314" on="1"/>
        <pt x="92" y="314" on="1"/>
        <pt x="113" y="314" on="0"/>
        <pt x="137" y="338" on="0"/>
        <pt x="137" y="364" on="1"/>
        <pt x="137" y="594" on="1"/>
        <pt x="137" y="668" on="0"/>
        <pt x="213" y="742" on="0"/>
        <pt x="288" y="742" on="1"/>
        <pt x="332" y="742" on="1"/>
        <pt x="332" y="663" on="1"/>
        <pt x="307" y="663" on="1"/>
        <pt x="270" y="663" on="0"/>
        <pt x="233" y="623" on="0"/>
        <pt x="233" y="585" on="1"/>
        <pt x="233" y="366" on="1"/>
        <pt x="233" y="331" on="0"/>
        <pt x="215" y="292" on="0"/>
        <pt x="180" y="273" on="0"/>
        <pt x="152" y="268" on="1"/>
        <pt x="152" y="280" on="1"/>
        <pt x="180" y="276" on="0"/>
        <pt x="215" y="256" on="0"/>
        <pt x="233" y="217" on="0"/>
        <pt x="233" y="182" on="1"/>
        <pt x="233" y="-37" on="1"/>
        <pt x="233" y="-75" on="0"/>
        <pt x="270" y="-115" on="0"/>
        <pt x="307" y="-115" on="1"/>
        <pt x="332" y="-115" on="1"/>
        <pt x="332" y="-194" on="1"/>
      </contour>
    </TTGlyph>
    <TTGlyph name="braceleft.case" xMin="67" yMin="-127" xMax="342" yMax="809">
      <component glyphName="braceleft" x="10" y="67" flags="0x404"/>
    </TTGlyph>
    <TTGlyph name="braceright" xMin="19" yMin="-194" xMax="293" yMax="742">
      <contour>
        <pt x="63" y="-194" on="1" overlap="1"/>
        <pt x="19" y="-194" on="1"/>
        <pt x="19" y="-115" on="1"/>
        <pt x="43" y="-115" on="1"/>
        <pt x="82" y="-115" on="0"/>
        <pt x="119" y="-75" on="0"/>
        <pt x="119" y="-37" on="1"/>
        <pt x="119" y="182" on="1"/>
        <pt x="119" y="217" on="0"/>
        <pt x="136" y="256" on="0"/>
        <pt x="172" y="276" on="0"/>
        <pt x="199" y="280" on="1"/>
        <pt x="199" y="268" on="1"/>
        <pt x="172" y="273" on="0"/>
        <pt x="136" y="292" on="0"/>
        <pt x="119" y="331" on="0"/>
        <pt x="119" y="366" on="1"/>
        <pt x="119" y="585" on="1"/>
        <pt x="119" y="623" on="0"/>
        <pt x="82" y="663" on="0"/>
        <pt x="43" y="663" on="1"/>
        <pt x="19" y="663" on="1"/>
        <pt x="19" y="742" on="1"/>
        <pt x="63" y="742" on="1"/>
        <pt x="138" y="742" on="0"/>
        <pt x="215" y="668" on="0"/>
        <pt x="215" y="594" on="1"/>
        <pt x="215" y="364" on="1"/>
        <pt x="215" y="338" on="0"/>
        <pt x="239" y="314" on="0"/>
        <pt x="259" y="314" on="1"/>
        <pt x="293" y="314" on="1"/>
        <pt x="293" y="234" on="1"/>
        <pt x="259" y="234" on="1"/>
        <pt x="239" y="234" on="0"/>
        <pt x="215" y="210" on="0"/>
        <pt x="215" y="184" on="1"/>
        <pt x="215" y="-46" on="1"/>
        <pt x="215" y="-119" on="0"/>
        <pt x="138" y="-194" on="0"/>
      </contour>
    </TTGlyph>
    <TTGlyph name="braceright.case" xMin="29" yMin="-127" xMax="303" yMax="809">
      <component glyphName="braceright" x="10" y="67" flags="0x404"/>
    </TTGlyph>
    <TTGlyph name="bracketleft" xMin="105" yMin="-194" xMax="314" yMax="742">
      <contour>
        <pt x="105" y="-194" on="1" overlap="1"/>
        <pt x="105" y="742" on="1"/>
        <pt x="314" y="742" on="1"/>
        <pt x="314" y="663" on="1"/>
        <pt x="201" y="663" on="1"/>
        <pt x="201" y="-115" on="1"/>
        <pt x="314" y="-115" on="1"/>
        <pt x="314" y="-194" on="1"/>
      </contour>
    </TTGlyph>
    <TTGlyph name="bracketleft.case" xMin="115" yMin="-127" xMax="324" yMax="809">
      <component glyphName="bracketleft" x="10" y="67" flags="0x404"/>
    </TTGlyph>
    <TTGlyph name="bracketright" xMin="19" yMin="-194" xMax="228" yMax="742">
      <contour>
        <pt x="228" y="-194" on="1" overlap="1"/>
        <pt x="19" y="-194" on="1"/>
        <pt x="19" y="-115" on="1"/>
        <pt x="132" y="-115" on="1"/>
        <pt x="132" y="663" on="1"/>
        <pt x="19" y="663" on="1"/>
        <pt x="19" y="742" on="1"/>
        <pt x="228" y="742" on="1"/>
      </contour>
    </TTGlyph>
    <TTGlyph name="bracketright.case" xMin="29" yMin="-127" xMax="238" yMax="809">
      <component glyphName="bracketright" x="10" y="67" flags="0x404"/>
    </TTGlyph>
    <TTGlyph name="breve" xMin="138" yMin="601" xMax="462" yMax="737">
      <component glyphName="uni0306" x="0" y="0" flags="0x404"/>
    </TTGlyph>
    <TTGlyph name="brevecombcy" xMin="65" yMin="599" xMax="380" yMax="737">
      <contour>
        <pt x="222" y="599" on="1" overlap="1"/>
        <pt x="149" y="599" on="0"/>
        <pt x="66" y="670" on="0"/>
        <pt x="65" y="737" on="1"/>
        <pt x="130" y="737" on="1"/>
        <pt x="131" y="699" on="0"/>
        <pt x="180" y="655" on="0"/>
        <pt x="221" y="655" on="1"/>
        <pt x="262" y="655" on="0"/>
        <pt x="312" y="699" on="0"/>
        <pt x="313" y="737" on="1"/>
        <pt x="380" y="737" on="1"/>
        <pt x="379" y="670" on="0"/>
        <pt x="295" y="599" on="0"/>
      </contour>
    </TTGlyph>
    <TTGlyph name="brevecombcy.case" xMin="64" yMin="749" xMax="407" yMax="886">
      <contour>
        <pt x="236" y="749" on="1" overlap="1"/>
        <pt x="154" y="749" on="0"/>
        <pt x="65" y="821" on="0"/>
        <pt x="64" y="886" on="1"/>
        <pt x="135" y="886" on="1"/>
        <pt x="136" y="847" on="0"/>
        <pt x="190" y="804" on="0"/>
        <pt x="236" y="804" on="1"/>
        <pt x="281" y="804" on="0"/>
        <pt x="336" y="847" on="0"/>
        <pt x="337" y="886" on="1"/>
        <pt x="407" y="886" on="1"/>
        <pt x="406" y="821" on="0"/>
        <pt x="317" y="749" on="0"/>
      </contour>
    </TTGlyph>
    <TTGlyph name="brokenbar" xMin="105" yMin="-194" xMax="194" yMax="742">
      <contour>
        <pt x="105" y="392" on="1" overlap="1"/>
        <pt x="105" y="742" on="1"/>
        <pt x="194" y="742" on="1"/>
        <pt x="194" y="392" on="1"/>
      </contour>
      <contour>
        <pt x="105" y="-194" on="1"/>
        <pt x="105" y="156" on="1"/>
        <pt x="194" y="156" on="1"/>
        <pt x="194" y="-194" on="1"/>
      </contour>
    </TTGlyph>
    <TTGlyph name="bullet" xMin="66" yMin="184" xMax="247" yMax="367">
      <contour>
        <pt x="157" y="184" on="1" overlap="1"/>
        <pt x="133" y="184" on="0"/>
        <pt x="91" y="207" on="0"/>
        <pt x="66" y="249" on="0"/>
        <pt x="66" y="276" on="1"/>
        <pt x="66" y="302" on="0"/>
        <pt x="91" y="343" on="0"/>
        <pt x="133" y="367" on="0"/>
        <pt x="157" y="367" on="1"/>
        <pt x="182" y="367" on="0"/>
        <pt x="223" y="343" on="0"/>
        <pt x="247" y="302" on="0"/>
        <pt x="247" y="276" on="1"/>
        <pt x="247" y="249" on="0"/>
        <pt x="223" y="207" on="0"/>
        <pt x="182" y="184" on="0"/>
      </contour>
    </TTGlyph>
    <TTGlyph name="bullet.case" xMin="76" yMin="260" xMax="257" yMax="443">
      <component glyphName="bullet" x="10" y="76" flags="0x404"/>
    </TTGlyph>
    <TTGlyph name="c" xMin="42" yMin="-6" xMax="538" yMax="535">
      <contour>
        <pt x="322" y="-6" on="1" overlap="1"/>
        <pt x="241" y="-6" on="0"/>
        <pt x="114" y="64" on="0"/>
        <pt x="42" y="186" on="0"/>
        <pt x="42" y="265" on="1"/>
        <pt x="42" y="344" on="0"/>
        <pt x="114" y="466" on="0"/>
        <pt x="241" y="535" on="0"/>
        <pt x="322" y="535" on="1"/>
        <pt x="394" y="535" on="0"/>
        <pt x="507" y="478" on="0"/>
        <pt x="538" y="422" on="1"/>
        <pt x="465" y="375" on="1"/>
        <pt x="439" y="414" on="0"/>
        <pt x="364" y="451" on="0"/>
        <pt x="321" y="451" on="1"/>
        <pt x="269" y="451" on="0"/>
        <pt x="187" y="405" on="0"/>
        <pt x="139" y="322" on="0"/>
        <pt x="139" y="265" on="1"/>
        <pt x="139" y="208" on="0"/>
        <pt x="187" y="124" on="0"/>
        <pt x="269" y="78" on="0"/>
        <pt x="321" y="78" on="1"/>
        <pt x="364" y="78" on="0"/>
        <pt x="439" y="115" on="0"/>
        <pt x="465" y="154" on="1"/>
        <pt x="538" y="108" on="1"/>
        <pt x="507" y="53" on="0"/>
        <pt x="394" y="-6" on="0"/>
      </contour>
    </TTGlyph>
    <TTGlyph name="c.sc" xMin="44" yMin="-8" xMax="576" yMax="576">
      <contour>
        <pt x="352" y="-8" on="1" overlap="1"/>
        <pt x="264" y="-8" on="0"/>
        <pt x="124" y="68" on="0"/>
        <pt x="44" y="201" on="0"/>
        <pt x="44" y="284" on="1"/>
        <pt x="44" y="369" on="0"/>
        <pt x="124" y="500" on="0"/>
        <pt x="264" y="576" on="0"/>
        <pt x="352" y="576" on="1"/>
        <pt x="425" y="576" on="0"/>
        <pt x="537" y="532" on="0"/>
        <pt x="576" y="487" on="1"/>
        <pt x="514" y="424" on="1"/>
        <pt x="482" y="459" on="0"/>
        <pt x="402" y="492" on="0"/>
        <pt x="355" y="492" on="1"/>
        <pt x="294" y="492" on="0"/>
        <pt x="197" y="439" on="0"/>
        <pt x="142" y="345" on="0"/>
        <pt x="142" y="284" on="1"/>
        <pt x="142" y="225" on="0"/>
        <pt x="197" y="130" on="0"/>
        <pt x="294" y="76" on="0"/>
        <pt x="355" y="76" on="1"/>
        <pt x="402" y="76" on="0"/>
        <pt x="482" y="110" on="0"/>
        <pt x="514" y="145" on="1"/>
        <pt x="576" y="82" on="1"/>
        <pt x="537" y="37" on="0"/>
        <pt x="424" y="-8" on="0"/>
      </contour>
    </TTGlyph>
    <TTGlyph name="cacute" xMin="42" yMin="-6" xMax="538" yMax="737">
      <component glyphName="c" x="0" y="0" flags="0x604"/>
      <component glyphName="acutecomb" x="3" y="0" flags="0x4"/>
    </TTGlyph>
    <TTGlyph name="cacute.sc" xMin="44" yMin="-8" xMax="576" yMax="777">
      <component glyphName="c.sc" x="0" y="0" flags="0x604"/>
      <component glyphName="acutecomb" x="47" y="39" flags="0x4"/>
    </TTGlyph>
    <TTGlyph name="caron" xMin="121" yMin="607" xMax="479" yMax="737">
      <component glyphName="uni030C" x="0" y="0" flags="0x404"/>
    </TTGlyph>
    <TTGlyph name="ccaron" xMin="42" yMin="-6" xMax="538" yMax="737">
      <component glyphName="c" x="0" y="0" flags="0x604"/>
      <component glyphName="uni030C" x="3" y="0" flags="0x4"/>
    </TTGlyph>
    <TTGlyph name="ccaron.sc" xMin="44" yMin="-8" xMax="576" yMax="777">
      <component glyphName="c.sc" x="0" y="0" flags="0x604"/>
      <component glyphName="uni030C" x="47" y="39" flags="0x4"/>
    </TTGlyph>
    <TTGlyph name="ccedilla" xMin="42" yMin="-224" xMax="538" yMax="535">
      <component glyphName="c" x="0" y="0" flags="0x604"/>
      <component glyphName="uni0327" x="0" y="0" flags="0x4"/>
    </TTGlyph>
    <TTGlyph name="ccedilla.sc" xMin="44" yMin="-224" xMax="576" yMax="576">
      <component glyphName="c.sc" x="0" y="0" flags="0x604"/>
      <component glyphName="uni0327" x="36" y="0" flags="0x4"/>
    </TTGlyph>
    <TTGlyph name="ccircumflex" xMin="42" yMin="-6" xMax="538" yMax="737">
      <component glyphName="c" x="0" y="0" flags="0x604"/>
      <component glyphName="uni0302" x="3" y="0" flags="0x4"/>
    </TTGlyph>
    <TTGlyph name="ccircumflex.sc" xMin="44" yMin="-8" xMax="576" yMax="777">
      <component glyphName="c.sc" x="0" y="0" flags="0x604"/>
      <component glyphName="uni0302" x="47" y="39" flags="0x4"/>
    </TTGlyph>
    <TTGlyph name="cdotaccent" xMin="42" yMin="-6" xMax="538" yMax="743">
      <component glyphName="c" x="0" y="0" flags="0x604"/>
      <component glyphName="uni0307" x="3" y="0" flags="0x4"/>
    </TTGlyph>
    <TTGlyph name="cdotaccent.sc" xMin="44" yMin="-8" xMax="576" yMax="782">
      <component glyphName="c.sc" x="0" y="0" flags="0x604"/>
      <component glyphName="uni0307" x="47" y="39" flags="0x4"/>
    </TTGlyph>
    <TTGlyph name="cedilla" xMin="186" yMin="-224" xMax="399" yMax="7">
      <component glyphName="uni0327" x="0" y="0" flags="0x404"/>
    </TTGlyph>
    <TTGlyph name="cent" xMin="42" yMin="-120" xMax="538" yMax="650">
      <contour>
        <pt x="282" y="-120" on="1" overlap="1"/>
        <pt x="282" y="650" on="1"/>
        <pt x="346" y="650" on="1"/>
        <pt x="346" y="-120" on="1"/>
      </contour>
      <contour>
        <pt x="322" y="-6" on="1"/>
        <pt x="241" y="-6" on="0"/>
        <pt x="114" y="64" on="0"/>
        <pt x="42" y="186" on="0"/>
        <pt x="42" y="265" on="1"/>
        <pt x="42" y="344" on="0"/>
        <pt x="114" y="466" on="0"/>
        <pt x="241" y="535" on="0"/>
        <pt x="322" y="535" on="1"/>
        <pt x="394" y="535" on="0"/>
        <pt x="507" y="478" on="0"/>
        <pt x="538" y="422" on="1"/>
        <pt x="465" y="375" on="1"/>
        <pt x="439" y="414" on="0"/>
        <pt x="364" y="451" on="0"/>
        <pt x="321" y="451" on="1"/>
        <pt x="269" y="451" on="0"/>
        <pt x="187" y="405" on="0"/>
        <pt x="139" y="322" on="0"/>
        <pt x="139" y="265" on="1"/>
        <pt x="139" y="208" on="0"/>
        <pt x="187" y="124" on="0"/>
        <pt x="269" y="78" on="0"/>
        <pt x="321" y="78" on="1"/>
        <pt x="364" y="78" on="0"/>
        <pt x="439" y="115" on="0"/>
        <pt x="465" y="154" on="1"/>
        <pt x="538" y="108" on="1"/>
        <pt x="507" y="53" on="0"/>
        <pt x="394" y="-6" on="0"/>
      </contour>
    </TTGlyph>
    <TTGlyph name="cent.BRACKET.179" xMin="42" yMin="-120" xMax="538" yMax="650">
      <contour>
        <pt x="322" y="-6" on="1" overlap="1"/>
        <pt x="241" y="-6" on="0"/>
        <pt x="114" y="64" on="0"/>
        <pt x="42" y="186" on="0"/>
        <pt x="42" y="265" on="1"/>
        <pt x="42" y="344" on="0"/>
        <pt x="114" y="466" on="0"/>
        <pt x="241" y="535" on="0"/>
        <pt x="322" y="535" on="1"/>
        <pt x="394" y="535" on="0"/>
        <pt x="507" y="478" on="0"/>
        <pt x="538" y="422" on="1"/>
        <pt x="465" y="375" on="1"/>
        <pt x="439" y="414" on="0"/>
        <pt x="364" y="451" on="0"/>
        <pt x="321" y="451" on="1"/>
        <pt x="269" y="451" on="0"/>
        <pt x="187" y="405" on="0"/>
        <pt x="139" y="322" on="0"/>
        <pt x="139" y="265" on="1"/>
        <pt x="139" y="208" on="0"/>
        <pt x="187" y="124" on="0"/>
        <pt x="269" y="78" on="0"/>
        <pt x="321" y="78" on="1"/>
        <pt x="364" y="78" on="0"/>
        <pt x="439" y="115" on="0"/>
        <pt x="465" y="154" on="1"/>
        <pt x="538" y="108" on="1"/>
        <pt x="507" y="53" on="0"/>
        <pt x="394" y="-6" on="0"/>
      </contour>
      <contour>
        <pt x="282" y="-120" on="1"/>
        <pt x="282" y="22" on="1"/>
        <pt x="346" y="22" on="1"/>
        <pt x="346" y="-120" on="1"/>
      </contour>
      <contour>
        <pt x="282" y="489" on="1"/>
        <pt x="282" y="650" on="1"/>
        <pt x="346" y="650" on="1"/>
        <pt x="346" y="489" on="1"/>
      </contour>
    </TTGlyph>
    <TTGlyph name="circumflex" xMin="121" yMin="607" xMax="479" yMax="737">
      <component glyphName="uni0302" x="0" y="0" flags="0x404"/>
    </TTGlyph>
    <TTGlyph name="colon" xMin="46" yMin="-6" xMax="180" yMax="535">
      <component glyphName="period" x="0" y="404" flags="0x604"/>
      <component glyphName="period" x="0" y="0" flags="0x4"/>
    </TTGlyph>
    <TTGlyph name="colonmonetary" xMin="48" yMin="-120" xMax="685" yMax="820">
      <contour>
        <pt x="324" y="-120" on="1" overlap="1"/>
        <pt x="563" y="820" on="1"/>
        <pt x="624" y="820" on="1"/>
        <pt x="385" y="-120" on="1"/>
      </contour>
      <contour>
        <pt x="173" y="-120" on="1"/>
        <pt x="412" y="820" on="1"/>
        <pt x="473" y="820" on="1"/>
        <pt x="234" y="-120" on="1"/>
      </contour>
      <contour>
        <pt x="418" y="-8" on="1"/>
        <pt x="338" y="-8" on="0"/>
        <pt x="203" y="45" on="0"/>
        <pt x="104" y="142" on="0"/>
        <pt x="48" y="272" on="0"/>
        <pt x="48" y="350" on="1"/>
        <pt x="48" y="428" on="0"/>
        <pt x="104" y="558" on="0"/>
        <pt x="203" y="655" on="0"/>
        <pt x="338" y="708" on="0"/>
        <pt x="418" y="708" on="1"/>
        <pt x="500" y="708" on="0"/>
        <pt x="637" y="653" on="0"/>
        <pt x="685" y="599" on="1"/>
        <pt x="620" y="536" on="1"/>
        <pt x="580" y="578" on="0"/>
        <pt x="480" y="619" on="0"/>
        <pt x="423" y="619" on="1"/>
        <pt x="364" y="619" on="0"/>
        <pt x="263" y="579" on="0"/>
        <pt x="189" y="507" on="0"/>
        <pt x="148" y="408" on="0"/>
        <pt x="148" y="350" on="1"/>
        <pt x="148" y="292" on="0"/>
        <pt x="189" y="193" on="0"/>
        <pt x="263" y="121" on="0"/>
        <pt x="364" y="81" on="0"/>
        <pt x="423" y="81" on="1"/>
        <pt x="480" y="81" on="0"/>
        <pt x="580" y="122" on="0"/>
        <pt x="620" y="165" on="1"/>
        <pt x="685" y="102" on="1"/>
        <pt x="637" y="48" on="0"/>
        <pt x="500" y="-8" on="0"/>
      </contour>
    </TTGlyph>
    <TTGlyph name="colonmonetary.1" xMin="48" yMin="-120" xMax="685" yMax="820">
      <contour>
        <pt x="418" y="-8" on="1" overlap="1"/>
        <pt x="338" y="-8" on="0"/>
        <pt x="203" y="45" on="0"/>
        <pt x="104" y="142" on="0"/>
        <pt x="48" y="272" on="0"/>
        <pt x="48" y="350" on="1"/>
        <pt x="48" y="428" on="0"/>
        <pt x="104" y="558" on="0"/>
        <pt x="203" y="655" on="0"/>
        <pt x="338" y="708" on="0"/>
        <pt x="418" y="708" on="1"/>
        <pt x="500" y="708" on="0"/>
        <pt x="637" y="653" on="0"/>
        <pt x="685" y="599" on="1"/>
        <pt x="620" y="536" on="1"/>
        <pt x="580" y="578" on="0"/>
        <pt x="480" y="619" on="0"/>
        <pt x="423" y="619" on="1"/>
        <pt x="364" y="619" on="0"/>
        <pt x="263" y="579" on="0"/>
        <pt x="189" y="507" on="0"/>
        <pt x="148" y="408" on="0"/>
        <pt x="148" y="350" on="1"/>
        <pt x="148" y="292" on="0"/>
        <pt x="189" y="193" on="0"/>
        <pt x="263" y="121" on="0"/>
        <pt x="364" y="81" on="0"/>
        <pt x="423" y="81" on="1"/>
        <pt x="480" y="81" on="0"/>
        <pt x="580" y="122" on="0"/>
        <pt x="620" y="165" on="1"/>
        <pt x="685" y="102" on="1"/>
        <pt x="637" y="48" on="0"/>
        <pt x="500" y="-8" on="0"/>
      </contour>
      <contour>
        <pt x="173" y="-120" on="1"/>
        <pt x="227" y="93" on="1"/>
        <pt x="278" y="54" on="1"/>
        <pt x="234" y="-120" on="1"/>
      </contour>
      <contour>
        <pt x="324" y="-120" on="1"/>
        <pt x="364" y="37" on="1"/>
        <pt x="424" y="37" on="1"/>
        <pt x="385" y="-120" on="1"/>
      </contour>
      <contour>
        <pt x="369" y="652" on="1"/>
        <pt x="412" y="820" on="1"/>
        <pt x="473" y="820" on="1"/>
        <pt x="430" y="652" on="1"/>
      </contour>
      <contour>
        <pt x="519" y="648" on="1"/>
        <pt x="563" y="820" on="1"/>
        <pt x="624" y="820" on="1"/>
        <pt x="580" y="648" on="1"/>
      </contour>
    </TTGlyph>
    <TTGlyph name="comma" xMin="48" yMin="-148" xMax="180" yMax="131">
      <contour>
        <pt x="53" y="-148" on="1" overlap="1"/>
        <pt x="103" y="54" on="1"/>
        <pt x="116" y="-4" on="1"/>
        <pt x="87" y="-4" on="0"/>
        <pt x="48" y="32" on="0"/>
        <pt x="48" y="63" on="1"/>
        <pt x="48" y="93" on="0"/>
        <pt x="87" y="131" on="0"/>
        <pt x="115" y="131" on="1"/>
        <pt x="144" y="131" on="0"/>
        <pt x="180" y="92" on="0"/>
        <pt x="180" y="63" on="1"/>
        <pt x="180" y="53" on="0"/>
        <pt x="177" y="34" on="0"/>
        <pt x="170" y="9" on="0"/>
        <pt x="163" y="-9" on="1"/>
        <pt x="116" y="-148" on="1"/>
      </contour>
    </TTGlyph>
    <TTGlyph name="copyright" xMin="48" yMin="-3" xMax="754" yMax="703">
      <contour>
        <pt x="400" y="-3" on="1" overlap="1"/>
        <pt x="325" y="-3" on="0"/>
        <pt x="197" y="51" on="0"/>
        <pt x="101" y="148" on="0"/>
        <pt x="48" y="276" on="0"/>
        <pt x="48" y="350" on="1"/>
        <pt x="48" y="424" on="0"/>
        <pt x="102" y="552" on="0"/>
        <pt x="198" y="649" on="0"/>
        <pt x="327" y="703" on="0"/>
        <pt x="402" y="703" on="1"/>
        <pt x="477" y="703" on="0"/>
        <pt x="606" y="650" on="0"/>
        <pt x="701" y="554" on="0"/>
        <pt x="754" y="427" on="0"/>
        <pt x="754" y="352" on="1"/>
        <pt x="754" y="277" on="0"/>
        <pt x="700" y="148" on="0"/>
        <pt x="603" y="51" on="0"/>
        <pt x="475" y="-3" on="0"/>
      </contour>
      <contour>
        <pt x="400" y="42" on="1"/>
        <pt x="465" y="42" on="0"/>
        <pt x="577" y="90" on="0"/>
        <pt x="661" y="174" on="0"/>
        <pt x="707" y="287" on="0"/>
        <pt x="707" y="352" on="1"/>
        <pt x="707" y="417" on="0"/>
        <pt x="661" y="529" on="0"/>
        <pt x="579" y="611" on="0"/>
        <pt x="468" y="658" on="0"/>
        <pt x="402" y="658" on="1"/>
        <pt x="336" y="658" on="0"/>
        <pt x="223" y="611" on="0"/>
        <pt x="141" y="526" on="0"/>
        <pt x="95" y="415" on="0"/>
        <pt x="95" y="350" on="1"/>
        <pt x="95" y="285" on="0"/>
        <pt x="141" y="173" on="0"/>
        <pt x="223" y="89" on="0"/>
        <pt x="335" y="42" on="0"/>
      </contour>
      <contour>
        <pt x="411" y="144" on="1"/>
        <pt x="350" y="144" on="0"/>
        <pt x="254" y="196" on="0"/>
        <pt x="200" y="289" on="0"/>
        <pt x="200" y="350" on="1"/>
        <pt x="200" y="411" on="0"/>
        <pt x="254" y="504" on="0"/>
        <pt x="350" y="556" on="0"/>
        <pt x="411" y="556" on="1"/>
        <pt x="464" y="556" on="0"/>
        <pt x="549" y="513" on="0"/>
        <pt x="573" y="475" on="1"/>
        <pt x="516" y="434" on="1"/>
        <pt x="497" y="462" on="0"/>
        <pt x="442" y="488" on="0"/>
        <pt x="410" y="488" on="1"/>
        <pt x="371" y="488" on="0"/>
        <pt x="312" y="453" on="0"/>
        <pt x="276" y="392" on="0"/>
        <pt x="276" y="350" on="1"/>
        <pt x="276" y="308" on="0"/>
        <pt x="312" y="247" on="0"/>
        <pt x="371" y="212" on="0"/>
        <pt x="410" y="212" on="1"/>
        <pt x="442" y="212" on="0"/>
        <pt x="497" y="238" on="0"/>
        <pt x="516" y="266" on="1"/>
        <pt x="573" y="226" on="1"/>
        <pt x="549" y="188" on="0"/>
        <pt x="464" y="144" on="0"/>
      </contour>
    </TTGlyph>
    <TTGlyph name="currency" xMin="31" yMin="-2" xMax="669" yMax="637">
      <contour>
        <pt x="146" y="463" on="1" overlap="1"/>
        <pt x="31" y="578" on="1"/>
        <pt x="86" y="637" on="1"/>
        <pt x="202" y="522" on="1"/>
      </contour>
      <contour>
        <pt x="86" y="-2" on="1"/>
        <pt x="31" y="57" on="1"/>
        <pt x="146" y="172" on="1"/>
        <pt x="202" y="113" on="1"/>
      </contour>
      <contour>
        <pt x="613" y="-2" on="1"/>
        <pt x="497" y="113" on="1"/>
        <pt x="553" y="172" on="1"/>
        <pt x="669" y="57" on="1"/>
      </contour>
      <contour>
        <pt x="553" y="463" on="1"/>
        <pt x="497" y="522" on="1"/>
        <pt x="613" y="637" on="1"/>
        <pt x="669" y="578" on="1"/>
      </contour>
      <contour>
        <pt x="350" y="55" on="1"/>
        <pt x="295" y="55" on="0"/>
        <pt x="196" y="96" on="0"/>
        <pt x="122" y="169" on="0"/>
        <pt x="79" y="264" on="0"/>
        <pt x="79" y="319" on="1"/>
        <pt x="79" y="374" on="0"/>
        <pt x="122" y="469" on="0"/>
        <pt x="196" y="543" on="0"/>
        <pt x="295" y="584" on="0"/>
        <pt x="350" y="584" on="1"/>
        <pt x="406" y="584" on="0"/>
        <pt x="505" y="543" on="0"/>
        <pt x="580" y="469" on="0"/>
        <pt x="622" y="374" on="0"/>
        <pt x="622" y="319" on="1"/>
        <pt x="622" y="264" on="0"/>
        <pt x="580" y="169" on="0"/>
        <pt x="505" y="96" on="0"/>
        <pt x="406" y="55" on="0"/>
      </contour>
      <contour>
        <pt x="350" y="134" on="1"/>
        <pt x="404" y="134" on="0"/>
        <pt x="491" y="185" on="0"/>
        <pt x="545" y="268" on="0"/>
        <pt x="545" y="319" on="1"/>
        <pt x="545" y="370" on="0"/>
        <pt x="491" y="454" on="0"/>
        <pt x="404" y="505" on="0"/>
        <pt x="350" y="505" on="1"/>
        <pt x="298" y="505" on="0"/>
        <pt x="210" y="454" on="0"/>
        <pt x="158" y="370" on="0"/>
        <pt x="158" y="319" on="1"/>
        <pt x="158" y="268" on="0"/>
        <pt x="210" y="185" on="0"/>
        <pt x="298" y="134" on="0"/>
      </contour>
    </TTGlyph>
    <TTGlyph name="d" xMin="42" yMin="-6" xMax="591" yMax="742">
      <contour>
        <pt x="310" y="-6" on="1" overlap="1"/>
        <pt x="233" y="-6" on="0"/>
        <pt x="112" y="62" on="0"/>
        <pt x="42" y="184" on="0"/>
        <pt x="42" y="265" on="1"/>
        <pt x="42" y="346" on="0"/>
        <pt x="112" y="467" on="0"/>
        <pt x="233" y="535" on="0"/>
        <pt x="310" y="535" on="1"/>
        <pt x="377" y="535" on="0"/>
        <pt x="485" y="475" on="0"/>
        <pt x="550" y="355" on="0"/>
        <pt x="550" y="265" on="1"/>
        <pt x="550" y="175" on="0"/>
        <pt x="487" y="55" on="0"/>
        <pt x="379" y="-6" on="0"/>
      </contour>
      <contour>
        <pt x="318" y="78" on="1"/>
        <pt x="368" y="78" on="0"/>
        <pt x="449" y="124" on="0"/>
        <pt x="496" y="209" on="0"/>
        <pt x="496" y="265" on="1"/>
        <pt x="496" y="322" on="0"/>
        <pt x="449" y="405" on="0"/>
        <pt x="368" y="451" on="0"/>
        <pt x="318" y="451" on="1"/>
        <pt x="267" y="451" on="0"/>
        <pt x="187" y="405" on="0"/>
        <pt x="139" y="322" on="0"/>
        <pt x="139" y="265" on="1"/>
        <pt x="139" y="209" on="0"/>
        <pt x="187" y="124" on="0"/>
        <pt x="267" y="78" on="0"/>
      </contour>
      <contour>
        <pt x="499" y="0" on="1"/>
        <pt x="499" y="143" on="1"/>
        <pt x="505" y="266" on="1"/>
        <pt x="495" y="389" on="1"/>
        <pt x="495" y="742" on="1"/>
        <pt x="591" y="742" on="1"/>
        <pt x="591" y="0" on="1"/>
      </contour>
    </TTGlyph>
    <TTGlyph name="d.sc" xMin="97" yMin="0" xMax="658" yMax="568">
      <contour>
        <pt x="97" y="0" on="1" overlap="1"/>
        <pt x="97" y="568" on="1"/>
        <pt x="344" y="568" on="1"/>
        <pt x="440" y="568" on="0"/>
        <pt x="581" y="498" on="0"/>
        <pt x="658" y="370" on="0"/>
        <pt x="658" y="284" on="1"/>
        <pt x="658" y="198" on="0"/>
        <pt x="581" y="70" on="0"/>
        <pt x="440" y="0" on="0"/>
        <pt x="344" y="0" on="1"/>
      </contour>
      <contour>
        <pt x="194" y="81" on="1"/>
        <pt x="340" y="81" on="1"/>
        <pt x="410" y="81" on="0"/>
        <pt x="508" y="130" on="0"/>
        <pt x="560" y="222" on="0"/>
        <pt x="560" y="284" on="1"/>
        <pt x="560" y="347" on="0"/>
        <pt x="508" y="438" on="0"/>
        <pt x="410" y="488" on="0"/>
        <pt x="340" y="488" on="1"/>
        <pt x="194" y="488" on="1"/>
      </contour>
    </TTGlyph>
    <TTGlyph name="dagger" xMin="30" yMin="-194" xMax="530" yMax="700">
      <contour>
        <pt x="231" y="-194" on="1" overlap="1"/>
        <pt x="231" y="376" on="1"/>
        <pt x="30" y="376" on="1"/>
        <pt x="30" y="460" on="1"/>
        <pt x="231" y="460" on="1"/>
        <pt x="231" y="700" on="1"/>
        <pt x="327" y="700" on="1"/>
        <pt x="327" y="460" on="1"/>
        <pt x="530" y="460" on="1"/>
        <pt x="530" y="376" on="1"/>
        <pt x="327" y="376" on="1"/>
        <pt x="327" y="-194" on="1"/>
      </contour>
    </TTGlyph>
    <TTGlyph name="daggerdbl" xMin="30" yMin="-194" xMax="530" yMax="700">
      <contour>
        <pt x="530" y="376" on="1" overlap="1"/>
        <pt x="327" y="376" on="1"/>
        <pt x="327" y="130" on="1"/>
        <pt x="530" y="130" on="1"/>
        <pt x="530" y="46" on="1"/>
        <pt x="327" y="46" on="1"/>
        <pt x="327" y="-194" on="1"/>
        <pt x="231" y="-194" on="1"/>
        <pt x="231" y="46" on="1"/>
        <pt x="30" y="46" on="1"/>
        <pt x="30" y="130" on="1"/>
        <pt x="231" y="130" on="1"/>
        <pt x="231" y="376" on="1"/>
        <pt x="30" y="376" on="1"/>
        <pt x="30" y="460" on="1"/>
        <pt x="231" y="460" on="1"/>
        <pt x="231" y="700" on="1"/>
        <pt x="327" y="700" on="1"/>
        <pt x="327" y="460" on="1"/>
        <pt x="530" y="460" on="1"/>
      </contour>
    </TTGlyph>
    <TTGlyph name="dcaron" xMin="42" yMin="-6" xMax="760" yMax="775">
      <component glyphName="d" x="0" y="0" flags="0x604"/>
      <component glyphName="uni030C.alt" x="380" y="42" flags="0x4"/>
    </TTGlyph>
    <TTGlyph name="dcaron.sc" xMin="97" yMin="0" xMax="658" yMax="776">
      <component glyphName="d.sc" x="0" y="0" flags="0x604"/>
      <component glyphName="uni030C" x="25" y="39" flags="0x4"/>
    </TTGlyph>
    <TTGlyph name="dcroat" xMin="42" yMin="-6" xMax="682" yMax="742">
      <component glyphName="d" x="0" y="0" flags="0x604"/>
      <component glyphName="uni0335" x="184" y="197" flags="0x4"/>
    </TTGlyph>
    <TTGlyph name="dcroat.sc" xMin="32" yMin="0" xMax="678" yMax="568">
      <component glyphName="eth.sc" x="0" y="0" flags="0x604"/>
    </TTGlyph>
    <TTGlyph name="degree" xMin="45" yMin="381" xMax="374" yMax="706">
      <contour>
        <pt x="209" y="381" on="1" overlap="1"/>
        <pt x="163" y="381" on="0"/>
        <pt x="88" y="424" on="0"/>
        <pt x="45" y="498" on="0"/>
        <pt x="45" y="544" on="1"/>
        <pt x="45" y="589" on="0"/>
        <pt x="88" y="663" on="0"/>
        <pt x="163" y="706" on="0"/>
        <pt x="209" y="706" on="1"/>
        <pt x="255" y="706" on="0"/>
        <pt x="330" y="663" on="0"/>
        <pt x="374" y="589" on="0"/>
        <pt x="374" y="544" on="1"/>
        <pt x="374" y="498" on="0"/>
        <pt x="330" y="424" on="0"/>
        <pt x="255" y="381" on="0"/>
      </contour>
      <contour>
        <pt x="210" y="435" on="1"/>
        <pt x="240" y="435" on="0"/>
        <pt x="289" y="464" on="0"/>
        <pt x="317" y="513" on="0"/>
        <pt x="317" y="543" on="1"/>
        <pt x="317" y="575" on="0"/>
        <pt x="289" y="625" on="0"/>
        <pt x="240" y="653" on="0"/>
        <pt x="210" y="653" on="1"/>
        <pt x="179" y="653" on="0"/>
        <pt x="129" y="625" on="0"/>
        <pt x="101" y="576" on="0"/>
        <pt x="101" y="543" on="1"/>
        <pt x="101" y="512" on="0"/>
        <pt x="129" y="463" on="0"/>
        <pt x="179" y="435" on="0"/>
      </contour>
    </TTGlyph>
    <TTGlyph name="descTailcy" xMin="65" yMin="-113" xMax="245" yMax="84">
      <contour>
        <pt x="109" y="-113" on="1" overlap="1"/>
        <pt x="145" y="25" on="1"/>
        <pt x="203" y="0" on="1"/>
        <pt x="65" y="0" on="1"/>
        <pt x="65" y="84" on="1"/>
        <pt x="245" y="84" on="1"/>
        <pt x="187" y="-113" on="1"/>
      </contour>
    </TTGlyph>
    <TTGlyph name="descTailcy.case" xMin="0" yMin="-153" xMax="199" yMax="87">
      <contour>
        <pt x="48" y="-153" on="1" overlap="1"/>
        <pt x="92" y="26" on="1"/>
        <pt x="131" y="0" on="1"/>
        <pt x="0" y="0" on="1"/>
        <pt x="0" y="87" on="1"/>
        <pt x="199" y="87" on="1"/>
        <pt x="128" y="-153" on="1"/>
      </contour>
    </TTGlyph>
    <TTGlyph name="descendercy" xMin="58" yMin="-113" xMax="237" yMax="84">
      <contour>
        <pt x="147" y="-113" on="1" overlap="1"/>
        <pt x="147" y="25" on="1"/>
        <pt x="170" y="0" on="1"/>
        <pt x="58" y="0" on="1"/>
        <pt x="58" y="84" on="1"/>
        <pt x="237" y="84" on="1"/>
        <pt x="237" y="-113" on="1"/>
      </contour>
    </TTGlyph>
    <TTGlyph name="descendercy.case" xMin="45" yMin="-153" xMax="250" yMax="87">
      <contour>
        <pt x="158" y="-153" on="1" overlap="1"/>
        <pt x="158" y="26" on="1"/>
        <pt x="183" y="0" on="1"/>
        <pt x="45" y="0" on="1"/>
        <pt x="45" y="87" on="1"/>
        <pt x="250" y="87" on="1"/>
        <pt x="250" y="-153" on="1"/>
      </contour>
    </TTGlyph>
    <TTGlyph name="descendercy.case.short" xMin="58" yMin="-153" xMax="219" yMax="87">
      <contour>
        <pt x="126" y="-153" on="1" overlap="1"/>
        <pt x="126" y="26" on="1"/>
        <pt x="151" y="0" on="1"/>
        <pt x="58" y="0" on="1"/>
        <pt x="58" y="87" on="1"/>
        <pt x="219" y="87" on="1"/>
        <pt x="219" y="-153" on="1"/>
      </contour>
    </TTGlyph>
    <TTGlyph name="descendercy.short" xMin="64" yMin="-113" xMax="218" yMax="82">
      <contour>
        <pt x="131" y="-113" on="1" overlap="1"/>
        <pt x="131" y="24" on="1"/>
        <pt x="154" y="0" on="1"/>
        <pt x="64" y="0" on="1"/>
        <pt x="64" y="82" on="1"/>
        <pt x="218" y="82" on="1"/>
        <pt x="218" y="-113" on="1"/>
      </contour>
    </TTGlyph>
    <TTGlyph name="dieresis" xMin="156" yMin="624" xMax="444" yMax="727">
      <component glyphName="uni0308" x="0" y="0" flags="0x404"/>
    </TTGlyph>
    <TTGlyph name="divide" xMin="67" yMin="93" xMax="515" yMax="607">
      <contour>
        <pt x="67" y="310" on="1" overlap="1"/>
        <pt x="67" y="389" on="1"/>
        <pt x="515" y="389" on="1"/>
        <pt x="515" y="310" on="1"/>
      </contour>
      <contour>
        <pt x="291" y="93" on="1"/>
        <pt x="267" y="93" on="0"/>
        <pt x="234" y="128" on="0"/>
        <pt x="234" y="154" on="1"/>
        <pt x="234" y="180" on="0"/>
        <pt x="267" y="213" on="0"/>
        <pt x="291" y="213" on="1"/>
        <pt x="315" y="213" on="0"/>
        <pt x="349" y="180" on="0"/>
        <pt x="349" y="154" on="1"/>
        <pt x="349" y="128" on="0"/>
        <pt x="315" y="93" on="0"/>
      </contour>
      <contour>
        <pt x="291" y="487" on="1"/>
        <pt x="267" y="487" on="0"/>
        <pt x="234" y="522" on="0"/>
        <pt x="234" y="547" on="1"/>
        <pt x="234" y="573" on="0"/>
        <pt x="267" y="607" on="0"/>
        <pt x="291" y="607" on="1"/>
        <pt x="315" y="607" on="0"/>
        <pt x="349" y="573" on="0"/>
        <pt x="349" y="547" on="1"/>
        <pt x="349" y="522" on="0"/>
        <pt x="315" y="487" on="0"/>
      </contour>
    </TTGlyph>
    <TTGlyph name="dollar" xMin="41" yMin="-120" xMax="580" yMax="820">
      <contour>
        <pt x="284" y="-120" on="1" overlap="1"/>
        <pt x="284" y="820" on="1"/>
        <pt x="348" y="820" on="1"/>
        <pt x="348" y="-120" on="1"/>
      </contour>
      <contour>
        <pt x="309" y="-8" on="1"/>
        <pt x="229" y="-8" on="0"/>
        <pt x="83" y="41" on="0"/>
        <pt x="41" y="80" on="1"/>
        <pt x="78" y="158" on="1"/>
        <pt x="118" y="123" on="0"/>
        <pt x="242" y="77" on="0"/>
        <pt x="309" y="77" on="1"/>
        <pt x="370" y="77" on="0"/>
        <pt x="446" y="105" on="0"/>
        <pt x="482" y="154" on="0"/>
        <pt x="482" y="185" on="1"/>
        <pt x="482" y="221" on="0"/>
        <pt x="435" y="265" on="0"/>
        <pt x="360" y="292" on="0"/>
        <pt x="270" y="312" on="0"/>
        <pt x="179" y="339" on="0"/>
        <pt x="104" y="381" on="0"/>
        <pt x="58" y="452" on="0"/>
        <pt x="58" y="508" on="1"/>
        <pt x="58" y="562" on="0"/>
        <pt x="115" y="653" on="0"/>
        <pt x="234" y="708" on="0"/>
        <pt x="326" y="708" on="1"/>
        <pt x="387" y="708" on="0"/>
        <pt x="507" y="676" on="0"/>
        <pt x="551" y="646" on="1"/>
        <pt x="518" y="566" on="1"/>
        <pt x="473" y="596" on="0"/>
        <pt x="373" y="623" on="0"/>
        <pt x="326" y="623" on="1"/>
        <pt x="267" y="623" on="0"/>
        <pt x="191" y="593" on="0"/>
        <pt x="156" y="543" on="0"/>
        <pt x="156" y="512" on="1"/>
        <pt x="156" y="475" on="0"/>
        <pt x="203" y="431" on="0"/>
        <pt x="278" y="405" on="0"/>
        <pt x="368" y="384" on="0"/>
        <pt x="459" y="358" on="0"/>
        <pt x="534" y="316" on="0"/>
        <pt x="580" y="246" on="0"/>
        <pt x="580" y="191" on="1"/>
        <pt x="580" y="138" on="0"/>
        <pt x="522" y="47" on="0"/>
        <pt x="401" y="-8" on="0"/>
      </contour>
    </TTGlyph>
    <TTGlyph name="dollar.BRACKET.179" xMin="41" yMin="-120" xMax="580" yMax="820">
      <contour>
        <pt x="309" y="-8" on="1" overlap="1"/>
        <pt x="229" y="-8" on="0"/>
        <pt x="83" y="41" on="0"/>
        <pt x="41" y="80" on="1"/>
        <pt x="78" y="158" on="1"/>
        <pt x="118" y="123" on="0"/>
        <pt x="242" y="77" on="0"/>
        <pt x="309" y="77" on="1"/>
        <pt x="370" y="77" on="0"/>
        <pt x="446" y="105" on="0"/>
        <pt x="482" y="154" on="0"/>
        <pt x="482" y="185" on="1"/>
        <pt x="482" y="221" on="0"/>
        <pt x="435" y="265" on="0"/>
        <pt x="360" y="292" on="0"/>
        <pt x="270" y="312" on="0"/>
        <pt x="179" y="339" on="0"/>
        <pt x="104" y="381" on="0"/>
        <pt x="58" y="452" on="0"/>
        <pt x="58" y="508" on="1"/>
        <pt x="58" y="562" on="0"/>
        <pt x="115" y="653" on="0"/>
        <pt x="234" y="708" on="0"/>
        <pt x="326" y="708" on="1"/>
        <pt x="387" y="708" on="0"/>
        <pt x="507" y="676" on="0"/>
        <pt x="551" y="646" on="1"/>
        <pt x="518" y="566" on="1"/>
        <pt x="473" y="596" on="0"/>
        <pt x="373" y="623" on="0"/>
        <pt x="326" y="623" on="1"/>
        <pt x="267" y="623" on="0"/>
        <pt x="191" y="593" on="0"/>
        <pt x="156" y="543" on="0"/>
        <pt x="156" y="512" on="1"/>
        <pt x="156" y="475" on="0"/>
        <pt x="203" y="431" on="0"/>
        <pt x="278" y="405" on="0"/>
        <pt x="368" y="384" on="0"/>
        <pt x="459" y="358" on="0"/>
        <pt x="534" y="316" on="0"/>
        <pt x="580" y="246" on="0"/>
        <pt x="580" y="191" on="1"/>
        <pt x="580" y="138" on="0"/>
        <pt x="522" y="47" on="0"/>
        <pt x="401" y="-8" on="0"/>
      </contour>
      <contour>
        <pt x="284" y="-120" on="1"/>
        <pt x="284" y="45" on="1"/>
        <pt x="348" y="45" on="1"/>
        <pt x="348" y="-120" on="1"/>
      </contour>
      <contour>
        <pt x="284" y="658" on="1"/>
        <pt x="284" y="820" on="1"/>
        <pt x="348" y="820" on="1"/>
        <pt x="348" y="658" on="1"/>
      </contour>
    </TTGlyph>
    <TTGlyph name="dong" xMin="42" yMin="-133" xMax="682" yMax="742">
      <contour>
        <pt x="310" y="-6" on="1" overlap="1"/>
        <pt x="233" y="-6" on="0"/>
        <pt x="112" y="62" on="0"/>
        <pt x="42" y="184" on="0"/>
        <pt x="42" y="265" on="1"/>
        <pt x="42" y="346" on="0"/>
        <pt x="112" y="467" on="0"/>
        <pt x="233" y="535" on="0"/>
        <pt x="310" y="535" on="1"/>
        <pt x="377" y="535" on="0"/>
        <pt x="485" y="475" on="0"/>
        <pt x="550" y="355" on="0"/>
        <pt x="550" y="265" on="1"/>
        <pt x="550" y="175" on="0"/>
        <pt x="487" y="55" on="0"/>
        <pt x="379" y="-6" on="0"/>
      </contour>
      <contour>
        <pt x="63" y="-133" on="1"/>
        <pt x="63" y="-77" on="1"/>
        <pt x="592" y="-77" on="1"/>
        <pt x="592" y="-133" on="1"/>
      </contour>
      <contour>
        <pt x="318" y="78" on="1"/>
        <pt x="368" y="78" on="0"/>
        <pt x="449" y="124" on="0"/>
        <pt x="496" y="209" on="0"/>
        <pt x="496" y="265" on="1"/>
        <pt x="496" y="322" on="0"/>
        <pt x="449" y="405" on="0"/>
        <pt x="368" y="451" on="0"/>
        <pt x="318" y="451" on="1"/>
        <pt x="267" y="451" on="0"/>
        <pt x="187" y="405" on="0"/>
        <pt x="139" y="322" on="0"/>
        <pt x="139" y="265" on="1"/>
        <pt x="139" y="209" on="0"/>
        <pt x="187" y="124" on="0"/>
        <pt x="267" y="78" on="0"/>
      </contour>
      <contour>
        <pt x="499" y="0" on="1"/>
        <pt x="499" y="143" on="1"/>
        <pt x="505" y="266" on="1"/>
        <pt x="495" y="389" on="1"/>
        <pt x="495" y="742" on="1"/>
        <pt x="591" y="742" on="1"/>
        <pt x="591" y="0" on="1"/>
      </contour>
      <contour>
        <pt x="285" y="607" on="1"/>
        <pt x="285" y="663" on="1"/>
        <pt x="682" y="663" on="1"/>
        <pt x="682" y="607" on="1"/>
      </contour>
    </TTGlyph>
    <TTGlyph name="dotaccent" xMin="241" yMin="625" xMax="359" yMax="743">
      <component glyphName="uni0307" x="0" y="0" flags="0x404"/>
    </TTGlyph>
    <TTGlyph name="dotbelowcomb" xMin="249" yMin="-196" xMax="351" yMax="-94">
      <contour>
        <pt x="300" y="-196" on="1" overlap="1"/>
        <pt x="279" y="-196" on="0"/>
        <pt x="249" y="-168" on="0"/>
        <pt x="249" y="-146" on="1"/>
        <pt x="249" y="-123" on="0"/>
        <pt x="279" y="-94" on="0"/>
        <pt x="300" y="-94" on="1"/>
        <pt x="321" y="-94" on="0"/>
        <pt x="351" y="-123" on="0"/>
        <pt x="351" y="-146" on="1"/>
        <pt x="351" y="-168" on="0"/>
        <pt x="321" y="-196" on="0"/>
      </contour>
    </TTGlyph>
    <TTGlyph name="dotlessi" xMin="91" yMin="0" xMax="187" yMax="530">
      <contour>
        <pt x="91" y="0" on="1" overlap="1"/>
        <pt x="91" y="530" on="1"/>
        <pt x="187" y="530" on="1"/>
        <pt x="187" y="0" on="1"/>
      </contour>
    </TTGlyph>
    <TTGlyph name="dotlessi.sc" xMin="97" yMin="0" xMax="194" yMax="568">
      <component glyphName="i.sc" x="0" y="0" flags="0x604"/>
    </TTGlyph>
    <TTGlyph name="dotlessi.sc.ss01" xMin="57" yMin="0" xMax="369" yMax="568">
      <component glyphName="i.sc.ss01" x="0" y="0" flags="0x604"/>
    </TTGlyph>
    <TTGlyph name="e" xMin="42" yMin="-6" xMax="570" yMax="535">
      <contour>
        <pt x="327" y="-6" on="1" overlap="1"/>
        <pt x="242" y="-6" on="0"/>
        <pt x="113" y="64" on="0"/>
        <pt x="42" y="186" on="0"/>
        <pt x="42" y="265" on="1"/>
        <pt x="42" y="344" on="0"/>
        <pt x="111" y="466" on="0"/>
        <pt x="232" y="535" on="0"/>
        <pt x="308" y="535" on="1"/>
        <pt x="385" y="535" on="0"/>
        <pt x="503" y="467" on="0"/>
        <pt x="570" y="344" on="0"/>
        <pt x="570" y="262" on="1"/>
        <pt x="570" y="256" on="0"/>
        <pt x="569" y="240" on="0"/>
        <pt x="568" y="233" on="1"/>
        <pt x="117" y="233" on="1"/>
        <pt x="117" y="302" on="1"/>
        <pt x="518" y="302" on="1"/>
        <pt x="479" y="278" on="1"/>
        <pt x="480" y="329" on="0"/>
        <pt x="436" y="409" on="0"/>
        <pt x="359" y="454" on="0"/>
        <pt x="308" y="454" on="1"/>
        <pt x="258" y="454" on="0"/>
        <pt x="180" y="409" on="0"/>
        <pt x="136" y="328" on="0"/>
        <pt x="136" y="276" on="1"/>
        <pt x="136" y="260" on="1"/>
        <pt x="136" y="207" on="0"/>
        <pt x="185" y="124" on="0"/>
        <pt x="273" y="78" on="0"/>
        <pt x="330" y="78" on="1"/>
        <pt x="377" y="78" on="0"/>
        <pt x="454" y="110" on="0"/>
        <pt x="483" y="142" on="1"/>
        <pt x="536" y="80" on="1"/>
        <pt x="500" y="38" on="0"/>
        <pt x="393" y="-6" on="0"/>
      </contour>
    </TTGlyph>
    <TTGlyph name="e.sc" xMin="97" yMin="0" xMax="523" yMax="568">
      <contour>
        <pt x="178" y="328" on="1" overlap="1"/>
        <pt x="477" y="328" on="1"/>
        <pt x="477" y="249" on="1"/>
        <pt x="178" y="249" on="1"/>
      </contour>
      <contour>
        <pt x="194" y="81" on="1"/>
        <pt x="523" y="81" on="1"/>
        <pt x="523" y="0" on="1"/>
        <pt x="97" y="0" on="1"/>
        <pt x="97" y="568" on="1"/>
        <pt x="512" y="568" on="1"/>
        <pt x="512" y="488" on="1"/>
        <pt x="194" y="488" on="1"/>
      </contour>
    </TTGlyph>
    <TTGlyph name="e.sc.ss01" xMin="42" yMin="-8" xMax="525" yMax="576">
      <contour>
        <pt x="525" y="56" on="1" overlap="1"/>
        <pt x="486" y="27" on="0"/>
        <pt x="365" y="-8" on="0"/>
        <pt x="295" y="-8" on="1"/>
        <pt x="169" y="-8" on="0"/>
        <pt x="42" y="87" on="0"/>
        <pt x="42" y="159" on="1"/>
        <pt x="42" y="202" on="0"/>
        <pt x="86" y="266" on="0"/>
        <pt x="161" y="303" on="0"/>
        <pt x="209" y="303" on="1"/>
        <pt x="213" y="276" on="1"/>
        <pt x="169" y="276" on="0"/>
        <pt x="102" y="310" on="0"/>
        <pt x="66" y="371" on="0"/>
        <pt x="66" y="411" on="1"/>
        <pt x="66" y="456" on="0"/>
        <pt x="119" y="530" on="0"/>
        <pt x="226" y="576" on="0"/>
        <pt x="307" y="576" on="1"/>
        <pt x="362" y="576" on="0"/>
        <pt x="465" y="553" on="0"/>
        <pt x="502" y="533" on="1"/>
        <pt x="474" y="456" on="1"/>
        <pt x="437" y="476" on="0"/>
        <pt x="354" y="496" on="0"/>
        <pt x="311" y="496" on="1"/>
        <pt x="236" y="496" on="0"/>
        <pt x="163" y="445" on="0"/>
        <pt x="163" y="404" on="1"/>
        <pt x="163" y="367" on="0"/>
        <pt x="217" y="327" on="0"/>
        <pt x="269" y="327" on="1"/>
        <pt x="424" y="327" on="1"/>
        <pt x="424" y="248" on="1"/>
        <pt x="263" y="248" on="1"/>
        <pt x="206" y="248" on="0"/>
        <pt x="139" y="207" on="0"/>
        <pt x="139" y="164" on="1"/>
        <pt x="139" y="124" on="0"/>
        <pt x="216" y="73" on="0"/>
        <pt x="299" y="73" on="1"/>
        <pt x="336" y="73" on="0"/>
        <pt x="408" y="86" on="0"/>
        <pt x="470" y="113" on="0"/>
        <pt x="493" y="131" on="1"/>
      </contour>
    </TTGlyph>
    <TTGlyph name="e.ss01" xMin="42" yMin="-6" xMax="569" yMax="535">
      <contour>
        <pt x="327" y="-6" on="1" overlap="1"/>
        <pt x="242" y="-6" on="0"/>
        <pt x="113" y="64" on="0"/>
        <pt x="42" y="186" on="0"/>
        <pt x="42" y="265" on="1"/>
        <pt x="42" y="344" on="0"/>
        <pt x="111" y="466" on="0"/>
        <pt x="231" y="535" on="0"/>
        <pt x="308" y="535" on="1"/>
        <pt x="381" y="535" on="0"/>
        <pt x="498" y="471" on="0"/>
        <pt x="568" y="355" on="0"/>
        <pt x="569" y="275" on="1"/>
        <pt x="123" y="188" on="1"/>
        <pt x="119" y="257" on="1"/>
        <pt x="514" y="332" on="1"/>
        <pt x="479" y="283" on="1"/>
        <pt x="479" y="332" on="0"/>
        <pt x="435" y="409" on="0"/>
        <pt x="359" y="454" on="0"/>
        <pt x="308" y="454" on="1"/>
        <pt x="258" y="454" on="0"/>
        <pt x="179" y="409" on="0"/>
        <pt x="135" y="326" on="0"/>
        <pt x="135" y="270" on="1"/>
        <pt x="135" y="211" on="0"/>
        <pt x="184" y="125" on="0"/>
        <pt x="272" y="78" on="0"/>
        <pt x="330" y="78" on="1"/>
        <pt x="377" y="78" on="0"/>
        <pt x="454" y="110" on="0"/>
        <pt x="483" y="142" on="1"/>
        <pt x="535" y="80" on="1"/>
        <pt x="500" y="38" on="0"/>
        <pt x="393" y="-6" on="0"/>
      </contour>
    </TTGlyph>
    <TTGlyph name="eacute" xMin="42" yMin="-6" xMax="570" yMax="737">
      <component glyphName="e" x="0" y="0" flags="0x604"/>
      <component glyphName="acutecomb" x="7" y="0" flags="0x4"/>
    </TTGlyph>
    <TTGlyph name="eacute.sc" xMin="97" yMin="0" xMax="523" yMax="776">
      <component glyphName="e.sc" x="0" y="0" flags="0x604"/>
      <component glyphName="acutecomb" x="4" y="39" flags="0x4"/>
    </TTGlyph>
    <TTGlyph name="eacute.sc.ss01" xMin="42" yMin="-8" xMax="525" yMax="776">
      <component glyphName="e.sc.ss01" x="0" y="0" flags="0x604"/>
      <component glyphName="acutecomb" x="-5" y="39" flags="0x4"/>
    </TTGlyph>
    <TTGlyph name="eacute.ss01" xMin="42" yMin="-6" xMax="569" yMax="737">
      <component glyphName="e.ss01" x="0" y="0" flags="0x604"/>
      <component glyphName="acutecomb" x="4" y="0" flags="0x4"/>
    </TTGlyph>
    <TTGlyph name="ebreve" xMin="42" yMin="-6" xMax="570" yMax="737">
      <component glyphName="e" x="0" y="0" flags="0x604"/>
      <component glyphName="uni0306" x="7" y="0" flags="0x4"/>
    </TTGlyph>
    <TTGlyph name="ebreve.sc" xMin="97" yMin="0" xMax="523" yMax="776">
      <component glyphName="e.sc" x="0" y="0" flags="0x604"/>
      <component glyphName="uni0306" x="4" y="39" flags="0x4"/>
    </TTGlyph>
    <TTGlyph name="ebreve.sc.ss01" xMin="42" yMin="-8" xMax="525" yMax="776">
      <component glyphName="e.sc.ss01" x="0" y="0" flags="0x604"/>
      <component glyphName="uni0306" x="-5" y="39" flags="0x4"/>
    </TTGlyph>
    <TTGlyph name="ebreve.ss01" xMin="42" yMin="-6" xMax="569" yMax="737">
      <component glyphName="e.ss01" x="0" y="0" flags="0x604"/>
      <component glyphName="uni0306" x="4" y="0" flags="0x4"/>
    </TTGlyph>
    <TTGlyph name="ecaron" xMin="42" yMin="-6" xMax="570" yMax="737">
      <component glyphName="e" x="0" y="0" flags="0x604"/>
      <component glyphName="uni030C" x="7" y="0" flags="0x4"/>
    </TTGlyph>
    <TTGlyph name="ecaron.sc" xMin="97" yMin="0" xMax="523" yMax="776">
      <component glyphName="e.sc" x="0" y="0" flags="0x604"/>
      <component glyphName="uni030C" x="4" y="39" flags="0x4"/>
    </TTGlyph>
    <TTGlyph name="ecaron.sc.ss01" xMin="42" yMin="-8" xMax="525" yMax="776">
      <component glyphName="e.sc.ss01" x="0" y="0" flags="0x604"/>
      <component glyphName="uni030C" x="-5" y="39" flags="0x4"/>
    </TTGlyph>
    <TTGlyph name="ecaron.ss01" xMin="42" yMin="-6" xMax="569" yMax="737">
      <component glyphName="e.ss01" x="0" y="0" flags="0x604"/>
      <component glyphName="uni030C" x="4" y="0" flags="0x4"/>
    </TTGlyph>
    <TTGlyph name="ecircumflex" xMin="42" yMin="-6" xMax="570" yMax="737">
      <component glyphName="e" x="0" y="0" flags="0x604"/>
      <component glyphName="uni0302" x="7" y="0" flags="0x4"/>
    </TTGlyph>
    <TTGlyph name="ecircumflex.sc" xMin="97" yMin="0" xMax="523" yMax="776">
      <component glyphName="e.sc" x="0" y="0" flags="0x604"/>
      <component glyphName="uni0302" x="4" y="39" flags="0x4"/>
    </TTGlyph>
    <TTGlyph name="ecircumflex.sc.ss01" xMin="42" yMin="-8" xMax="525" yMax="776">
      <component glyphName="e.sc.ss01" x="0" y="0" flags="0x604"/>
      <component glyphName="uni0302" x="-5" y="39" flags="0x4"/>
    </TTGlyph>
    <TTGlyph name="ecircumflex.ss01" xMin="42" yMin="-6" xMax="569" yMax="737">
      <component glyphName="e.ss01" x="0" y="0" flags="0x604"/>
      <component glyphName="uni0302" x="4" y="0" flags="0x4"/>
    </TTGlyph>
    <TTGlyph name="edieresis" xMin="42" yMin="-6" xMax="570" yMax="727">
      <component glyphName="e" x="0" y="0" flags="0x604"/>
      <component glyphName="uni0308" x="7" y="0" flags="0x4"/>
    </TTGlyph>
    <TTGlyph name="edieresis.sc" xMin="97" yMin="0" xMax="523" yMax="765">
      <component glyphName="e.sc" x="0" y="0" flags="0x604"/>
      <component glyphName="uni0308" x="4" y="39" flags="0x4"/>
    </TTGlyph>
    <TTGlyph name="edieresis.sc.ss01" xMin="42" yMin="-8" xMax="525" yMax="765">
      <component glyphName="e.sc.ss01" x="0" y="0" flags="0x604"/>
      <component glyphName="uni0308" x="-5" y="39" flags="0x4"/>
    </TTGlyph>
    <TTGlyph name="edieresis.ss01" xMin="42" yMin="-6" xMax="569" yMax="727">
      <component glyphName="e.ss01" x="0" y="0" flags="0x604"/>
      <component glyphName="uni0308" x="4" y="0" flags="0x4"/>
    </TTGlyph>
    <TTGlyph name="edotaccent" xMin="42" yMin="-6" xMax="570" yMax="743">
      <component glyphName="e" x="0" y="0" flags="0x604"/>
      <component glyphName="uni0307" x="7" y="0" flags="0x4"/>
    </TTGlyph>
    <TTGlyph name="edotaccent.sc" xMin="97" yMin="0" xMax="523" yMax="781">
      <component glyphName="e.sc" x="0" y="0" flags="0x604"/>
      <component glyphName="uni0307" x="4" y="39" flags="0x4"/>
    </TTGlyph>
    <TTGlyph name="edotaccent.sc.ss01" xMin="42" yMin="-8" xMax="525" yMax="781">
      <component glyphName="e.sc.ss01" x="0" y="0" flags="0x604"/>
      <component glyphName="uni0307" x="-5" y="39" flags="0x4"/>
    </TTGlyph>
    <TTGlyph name="edotaccent.ss01" xMin="42" yMin="-6" xMax="569" yMax="743">
      <component glyphName="e.ss01" x="0" y="0" flags="0x604"/>
      <component glyphName="uni0307" x="4" y="0" flags="0x4"/>
    </TTGlyph>
    <TTGlyph name="egrave" xMin="42" yMin="-6" xMax="570" yMax="737">
      <component glyphName="e" x="0" y="0" flags="0x604"/>
      <component glyphName="gravecomb" x="7" y="0" flags="0x4"/>
    </TTGlyph>
    <TTGlyph name="egrave.sc" xMin="97" yMin="0" xMax="523" yMax="776">
      <component glyphName="e.sc" x="0" y="0" flags="0x604"/>
      <component glyphName="gravecomb" x="4" y="39" flags="0x4"/>
    </TTGlyph>
    <TTGlyph name="egrave.sc.ss01" xMin="42" yMin="-8" xMax="525" yMax="776">
      <component glyphName="e.sc.ss01" x="0" y="0" flags="0x604"/>
      <component glyphName="gravecomb" x="-5" y="39" flags="0x4"/>
    </TTGlyph>
    <TTGlyph name="egrave.ss01" xMin="42" yMin="-6" xMax="569" yMax="737">
      <component glyphName="e.ss01" x="0" y="0" flags="0x604"/>
      <component glyphName="gravecomb" x="4" y="0" flags="0x4"/>
    </TTGlyph>
    <TTGlyph name="eight" xMin="44" yMin="-8" xMax="600" yMax="708">
      <contour>
        <pt x="321" y="-8" on="1" overlap="1"/>
        <pt x="236" y="-8" on="0"/>
        <pt x="112" y="42" on="0"/>
        <pt x="44" y="135" on="0"/>
        <pt x="44" y="198" on="1"/>
        <pt x="44" y="260" on="0"/>
        <pt x="109" y="347" on="0"/>
        <pt x="233" y="392" on="0"/>
        <pt x="321" y="392" on="1"/>
        <pt x="409" y="392" on="0"/>
        <pt x="534" y="347" on="0"/>
        <pt x="600" y="259" on="0"/>
        <pt x="600" y="198" on="1"/>
        <pt x="600" y="135" on="0"/>
        <pt x="532" y="42" on="0"/>
        <pt x="406" y="-8" on="0"/>
      </contour>
      <contour>
        <pt x="321" y="73" on="1"/>
        <pt x="405" y="73" on="0"/>
        <pt x="500" y="142" on="0"/>
        <pt x="500" y="201" on="1"/>
        <pt x="500" y="259" on="0"/>
        <pt x="405" y="326" on="0"/>
        <pt x="321" y="326" on="1"/>
        <pt x="238" y="326" on="0"/>
        <pt x="144" y="259" on="0"/>
        <pt x="144" y="201" on="1"/>
        <pt x="144" y="142" on="0"/>
        <pt x="238" y="73" on="0"/>
      </contour>
      <contour>
        <pt x="321" y="338" on="1"/>
        <pt x="241" y="338" on="0"/>
        <pt x="129" y="381" on="0"/>
        <pt x="69" y="462" on="0"/>
        <pt x="69" y="518" on="1"/>
        <pt x="69" y="577" on="0"/>
        <pt x="132" y="662" on="0"/>
        <pt x="246" y="708" on="0"/>
        <pt x="321" y="708" on="1"/>
        <pt x="397" y="708" on="0"/>
        <pt x="511" y="662" on="0"/>
        <pt x="575" y="577" on="0"/>
        <pt x="575" y="518" on="1"/>
        <pt x="575" y="462" on="0"/>
        <pt x="515" y="381" on="0"/>
        <pt x="401" y="338" on="0"/>
      </contour>
      <contour>
        <pt x="321" y="402" on="1"/>
        <pt x="394" y="402" on="0"/>
        <pt x="477" y="462" on="0"/>
        <pt x="477" y="514" on="1"/>
        <pt x="477" y="567" on="0"/>
        <pt x="391" y="627" on="0"/>
        <pt x="321" y="627" on="1"/>
        <pt x="251" y="627" on="0"/>
        <pt x="168" y="567" on="0"/>
        <pt x="168" y="514" on="1"/>
        <pt x="168" y="462" on="0"/>
        <pt x="249" y="402" on="0"/>
      </contour>
    </TTGlyph>
</ttFont>
